<?xml version="1.0" encoding="UTF-8"?>
<svg id="Layer_1" xmlns="http://www.w3.org/2000/svg" version="1.1" viewBox="0 0 244.78 247.68">
  <!-- Generator: Adobe Illustrator 29.1.0, SVG Export Plug-In . SVG Version: 2.1.0 Build 142)  -->
  <defs>
    <style>
      .st0 {
        fill: #9c3a30;
      }
    </style>
  </defs>
  <path class="st0" d="M131.24,108.72c-3.38-3.37-7.63-6-11.94-7.38-8.72-2.81-13.95,2.82-16.79,9.88-7.9,5.26-12.6,14.19-13.46,23.71-.96-.47-2.39.1-2.84,1.19-2.2,5.35-1.6,11.51.66,17.05.37,6.94,3.3,12.63,10.78,13.34,7.4,4.92,16.69,6.36,25.4,4.65.88-.17,1.74-.39,2.59-.64.86-.12,1.73-.29,2.62-.55,3.4-1,6.45-3.09,9.05-5.75,12.03-10.39,15.79-29.43,7.37-44.05-3.09-5.36-7.91-9.2-13.44-11.45ZM96.67,155.69c.5.99,1.06,1.95,1.67,2.89-2-1.8-3.66-3.97-4.94-6.42-1.46-2.77-2.04-5.76-2.45-8.8.07-.12.13-.25.14-.41.1-1.43.24-2.86.43-4.28.8-2.49,1.86-4.86,3.19-7.01-.14.81-.26,1.63-.34,2.46-2.03,6.97-1.19,14.61,2.3,21.56ZM104.49,115.03c7.24-4.53,16.69-4.99,24.31-1.19,2.09,1.04,3.9,2.35,5.46,3.86.07.17.16.34.22.51-1.34-1.18-2.93-2.17-4.78-2.93-2.5-1.02-5.08-1.54-7.66-1.63-6.16-2.67-13.3-1.45-18.58,2.47.03-.17.08-.33.12-.49.29-.2.59-.4.9-.59ZM137.06,152.75c.87-3.23,1.25-6.61,1.16-9.87-.02-.67-.06-1.36-.11-2.04.16-.38.31-.75.45-1.1,1-2.59,1.53-5.3,1.56-7.95.54.75,1.03,1.52,1.47,2.32.48,6.45-1.1,13.18-4.53,18.64ZM128.09,161.36c-2.4,1.31-5.03,2.22-7.74,2.73,4.36-2.35,7.85-6.39,10.38-11.05,1.64-2.05,3.12-4.24,4.37-6.35-.42,4.7-2.15,9.57-4.97,13.38-.66.45-1.33.89-2.03,1.28ZM112.76,164.36c-.49-.38-.97-.78-1.43-1.19.78-.42,1.56-.86,2.31-1.32,2.53.82,5.09.47,7.55-.65-.88.66-1.79,1.25-2.76,1.76-1.78.94-3.72,1.38-5.68,1.4ZM102.56,132.97c-.06-.81-.12-1.73-.15-2.73.11-.79.25-1.56.47-2.31.94-1.4,2-2.7,3.2-3.86.12-.11-.06-.28-.17-.17-.91.82-1.76,1.72-2.56,2.69.38-.94.86-1.84,1.45-2.68,1.47-1.35,3.21-2.41,5.07-3.2,2.82-.64,5.79-.8,8.74-.52-.31.09-.63.2-.95.32-5.82,2.13-10.38,6.43-11.63,11.62-.32.65-.41,1.36-.31,2.11-.05.83-.02,1.68.1,2.54-2.78,5.84,1.17,12.83,7.56,15.03,2.63.91,5.08.41,7.17-.88.95.1,1.9.08,2.83-.08-1.81,1.83-3.74,3.54-5.77,5.1-1.59-.37-3.13-1.1-4.54-2.02.25-.53-.02-1.32-.74-1.26-.31.02-.61.04-.92.05-.5-.41-.97-.83-1.42-1.27-2.69-2.68-5-6.52-6.38-10.65-.51-2.6-.84-5.23-1.04-7.81ZM114.64,158.07c-.32.22-.65.44-.99.66-.91-.42-1.74-1.03-2.51-1.74,1.12.47,2.29.84,3.5,1.08ZM118.3,158.7c.41.05.82.09,1.24.1-.42.16-.85.29-1.28.4-.29.07-.57.12-.85.16.3-.22.59-.44.89-.65ZM113.49,144.86c-1.42-1.18-2.69-2.64-3.64-4.28.25.22.51.42.76.61,3.07,2.31,7.12,4.64,11.16,5.22-.57.67-1.21,1.27-1.89,1.77,0,0,0,0,0,0-2.38-.53-4.71-1.94-6.37-3.32ZM115.84,149.49c-2.49-.11-4.8-1.8-6.57-3.97-.41-.81-.7-1.62-.89-2.43,1.76,2.54,4.46,4.93,7.47,6.4ZM115.46,141.27c-2.13-1.16-4.43-2.66-6.02-4.62.76-1.2,1.84-2.31,3.28-3.25,1.37-.9,2.92-1.49,4.46-1.72,3.7.42,7.1,2.2,7.48,6.43.18,1.99-.33,4.06-1.29,5.9-2.71-.03-5.73-1.57-7.91-2.75ZM126.98,145.87c-.58.7-1.25,1.29-1.99,1.72-.45.26-.91.45-1.39.58.44-.53.84-1.1,1.21-1.68.87-.09,1.59-.31,2.17-.62ZM124.01,130.21c2.38.33,4.35,1.57,5.25,4.21.68,2,.63,4.57-.04,6.96,0-1.91-.54-4.03-1.09-5.76-.84-2.64-2.31-4.39-4.12-5.42ZM127.41,128.69c-3.66-1.77-8.16-1.32-12.18.32-1.99-.03-3.98.22-5.74.73,0,0,0,0-.01,0,2.3-3.86,7.12-6.49,11.19-7.44,7.53-1.77,10.5,5.17,11.2,12.01-.68-2.42-2.11-4.48-4.46-5.61ZM130.78,146.15c-.53,1.64-1.25,3.23-2.18,4.67-1.59,1.78-3.52,3.22-5.73,4.13,2.92-2.65,5.6-5.6,7.91-8.8ZM105.68,154.77c.93,1.45,1.98,2.79,3.18,3.99.66.66,1.32,1.21,1.99,1.68-.49.28-.99.54-1.5.8-1.07-1.13-2.05-2.31-2.93-3.49-.75-1-1.48-2.11-2.19-3.32.48.14.96.26,1.46.34ZM135.47,129.18c-.45-1.16-.96-2.29-1.53-3.39.61.43,1.21.88,1.78,1.36-.06.68-.14,1.36-.25,2.03ZM131.13,121.25c-.96-1.28-2.01-2.48-3.17-3.58,3.05,1.15,5.74,3.19,7.48,6,.06.1.11.2.16.3-1.41-1.03-2.91-1.93-4.48-2.72ZM105.32,118.62c1.83-1.47,3.94-2.54,6.27-3.04-1.66.67-3.26,1.5-4.78,2.45-.51.17-1.01.37-1.49.59ZM100.71,141.84c-.6-1.96-.91-4.01-.89-6.05.19,2.02.48,4.06.89,6.05ZM102.54,150.33c-.23-.17-.46-.34-.68-.53-.14-.32-.28-.65-.42-.97.35.52.72,1.02,1.1,1.51ZM101,152.95c1.68,3.27,3.8,6.48,6.27,9.25-.46.19-.92.37-1.38.54-.13-.06-.25-.13-.38-.2-3.75-3.22-6.5-7.79-8.03-12.66-.02-.22-.04-.44-.06-.66.99,1.57,2.2,2.81,3.58,3.72ZM139.76,127.66c-.28-1.47-.74-2.9-1.37-4.24-.01-.14-.04-.28-.05-.42,1,1.79,1.78,3.69,2.32,5.69-.29-.35-.59-.69-.9-1.03ZM114.71,103.38c3.43-.12,6.99,1.33,10.17,3.51-4.94-.88-10.11-.62-14.91.83-1.43.43-2.79.97-4.09,1.6,1.87-3.42,4.68-5.79,8.83-5.93ZM100.49,118.14c-.06.3-.12.59-.17.89-.48.56-.93,1.14-1.35,1.75-.89,1.31-1.65,2.75-2.3,4.26-.89.85-1.73,1.78-2.51,2.79,1.43-3.62,3.46-6.93,6.33-9.68Z"/>
  <path class="st0" d="M229.49,146.2c.02-3.91.01-7.82-.04-11.73-.18-12.05-.85-24.06-2.71-35.98-.85-5.44-1.78-11.02-3.37-16.31.38-.28.22-.89-.27-.9-1.35-4.34-2.65-9.41-5.04-13.39.51-2.09-.62-4.61-3.4-4.52-2.82.08-5.63.16-8.45.22,1.1-6.6-.96-14-7.56-16.7-7.42-3.04-16.34-1.36-24.07-.84-1.08.07-1.97.84-1.97,1.97-.02,3.33-.18,6.7-.07,10.04-1.53-1.32-3.3-2.46-4.76-3.84-2.23-2.1-4.28-4.39-6.28-6.71-2.64-3.05-5.39-5.86-8.29-8.53.85-1.03.63-2.97-.64-3.54-4.4-2-9.91-1.14-14.65-1.16-5.84-.02-11.67.07-17.51.25-5.84.18-11.67.34-17.51.66-2.49.14-5.08.2-7.63.49-.97-1.52-3.01-2.42-4.74-1.26-4.88,3.28-8.62,9.41-12.18,14.01-3.35,4.33-6.33,8.96-9.33,13.55-5.38-.12-10.75-.12-16.13.1-10.87.43-24.9.54-34.04,7.39,0-.12-.01-.24-.02-.36-.03-.4-.64-.53-.73-.1-.08.41-.16.83-.24,1.25-.97.85-1.47,1.61-1.93,2.96-.12.35.23.58.53.53.26-.04.51-.09.77-.13-3.6,20.64-2.95,42.2-2.25,63.02.09,2.65.19,5.3.3,7.95-.61.09-.63,1.05.01.98,0,0,.02,0,.03,0,.61,14.47,1.45,28.92,2.13,43.39-.02,0-.03,0-.05,0-.56.01-.56.86,0,.86.03,0,.06,0,.09,0,.26,5.48.49,10.97.67,16.45.03.94.48,1.59,1.09,1.96-.44.12-.72.17-.74.12-.02-.04-.07-.04-.1-.01-.65.6-.62,1.46.04,2.09,1.83,1.76,3.95,1.67,6.35,1.69,8.53.06,17.02.56,25.55.78,20.29.52,40.59.26,60.88.43,19.3.15,38.75,1.12,58.02-.33,16.45-1.24,33.12-4.58,49.65-2.59,1.97.24,3.29-1.08,3.8-2.72,1.26,2.23,5.37,1.77,5.43-1.41.01-.61.03-1.22.04-1.83.32.25.79-.15.49-.54-.15-.2-.31-.4-.46-.6.37-18.38,1.17-36.75,1.31-55.13,1.2-.07,1.2-1.92.02-1.96ZM220.5,187.53c-.07,1.75-.23,3.59-.33,5.44-.4-.52-.8-1.04-1.21-1.56-.08-.11-.28.04-.19.15.4.56.81,1.12,1.22,1.67-2.83.61-5.67,2.11-8.37,3.03-1.27.43-2.54.84-3.81,1.24-1.95-2.29-3.52-4.9-4.67-7.67.04-1.23.08-2.47.11-3.71,2.03-.38,4.07-.77,6.1-1.15-.13,3-.13,6.01.38,8.82.13.71,1.3.71,1.43,0,.55-2.97.56-6.12.52-9.24.65-.12,1.31-.24,1.96-.36-.08,3.18-.29,6.5.55,9.53.13.47.82.47.95,0,.86-3.09.58-6.41.65-9.59,0-.11,0-.22,0-.33.29-.05.58-.11.87-.16,1.34-.24,2.68-.47,4.02-.7-.06,1.53-.12,3.05-.18,4.57ZM177.31,197.4c-.06-2.02-.11-4.05-.16-6.07.82-.29,1.94-.3,2.72-.5,1.76-.47,3.56-.84,5.35-1.21.55-.12,1.1-.22,1.65-.33-.48,2.87-.76,5.76-.57,8.55.08,1.2,1.74,1.18,1.85,0,.06-.71.12-1.42.18-2.13,1.14,2.31,2.7,4.25,4.56,5.87-.16.04-.32.07-.48.11-2.87.18-5.74.41-8.6.64-.69-.43-1.39-.89-2.08-1.38-1.48-1.05-2.92-2.11-4.4-3.1,0-.15,0-.3-.01-.45ZM205.36,134.61c2.11-.12,4.23-.22,6.34-.37.02,2.1.01,4.2-.04,6.3-2.19.12-4.39.26-6.58.4,0-.03,0-.06,0-.09.1-2.08.19-4.17.28-6.25ZM223.58,134.47c.02,1.89.02,3.78.01,5.66-2.28.03-4.55.08-6.82.17.05-2.18.09-4.36.13-6.54,2.24-.28,4.46-.66,6.65-1.23,0,.64.02,1.29.03,1.93ZM213.65,182.5c-.67.12-1.34.25-2.01.37-.02-1.46-.04-2.91,0-4.32.07-2.64.17-5.28.28-7.92.64-.13,1.28-.26,1.92-.39,0,.16-.01.31-.02.47-.14,3.93-.16,7.85-.18,11.78ZM203.84,164.99c2.19-.32,4.38-.62,6.56-.96-.1,1.94-.21,3.88-.3,5.83-2.17.42-4.34.81-6.52,1.19.04-1.24.09-2.47.14-3.71.03-.78.07-1.56.11-2.34ZM204.62,149.85c2.21.25,4.41.26,6.6.14-.07,1.16-.14,2.33-.21,3.49-2.22.29-4.43.63-6.64.99.08-1.54.16-3.08.25-4.62ZM213.33,131.33c-.12-2.51-.31-5.07-.53-7.66,1.01-.19,2.02-.36,3.03-.51-.13,3.09-.27,6.17-.41,9.26-.68.1-1.37.21-2.05.3-.02-.46-.02-.93-.04-1.39ZM222.54,108.24c-1.85,0-3.7.08-5.55.22-.03-1.9-.07-3.81-.12-5.71,1.76-.17,3.55-.42,5.11-.94.21,2.14.39,4.28.56,6.43ZM223.27,121.22c-.06-.01-.11-.03-.18-.03-2.02.03-4.03.22-6.04.5,0-1.59.01-3.18,0-4.76,1.97-.4,3.96-.69,5.98-.72.09,1.67.17,3.35.23,5.02ZM222.96,114.75c-1.99.04-3.95.31-5.9.71,0-1.57-.02-3.14-.03-4.72,1.88-.17,3.77-.32,5.66-.44.1,1.48.19,2.97.28,4.45ZM216.42,108.51c-1.62.13-3.24.31-4.86.51-.12-1.9-.21-3.8-.25-5.69.45-.06.91-.13,1.36-.18,1.22-.15,2.58-.24,3.95-.37-.06,1.91-.14,3.82-.21,5.74ZM216.34,110.8c-.06,1.62-.13,3.23-.2,4.85-1.22.27-2.43.56-3.63.87-.11.03-.23.06-.34.09-.16-1.78-.31-3.56-.44-5.35,1.54-.17,3.08-.32,4.62-.46ZM216.08,117.13c-.06,1.58-.13,3.16-.2,4.73-1.07.17-2.13.36-3.19.57-.13-1.47-.27-2.96-.4-4.44,1.27-.29,2.53-.59,3.79-.86ZM215.36,133.94c-.1,2.15-.19,4.29-.29,6.44-.56.03-1.11.05-1.66.08.05-2.11.05-4.22,0-6.34.65-.05,1.29-.11,1.94-.18ZM215.01,141.81c-.08,1.66-.15,3.32-.22,4.98-.02.44-.04.89-.06,1.33-.54.08-1.09.16-1.63.24.12-2.16.21-4.33.28-6.49.54-.02,1.09-.04,1.63-.06ZM214.67,149.7c-.05,1.12-.09,2.25-.14,3.37-.57.06-1.13.12-1.7.18.07-1.13.14-2.27.2-3.4.55-.05,1.09-.1,1.64-.16ZM212.74,154.65c.57-.06,1.14-.11,1.72-.16-.1,2.47-.2,4.95-.3,7.43-.62.14-1.23.28-1.85.41.02-.52.05-1.05.08-1.57.11-2.04.23-4.08.35-6.11ZM210.93,154.84c-.1,1.52-.19,3.03-.28,4.55-.07,1.12-.12,2.23-.18,3.35-2.19.48-4.39.95-6.59,1.43.14-2.82.28-5.64.43-8.46,2.2-.32,4.41-.62,6.62-.87ZM210.05,170.99c-.09,2.07-.19,4.13-.27,6.2-.07,1.97-.23,4.03-.35,6.1-2.05.38-4.1.78-6.15,1.17.09-4.11.15-8.23.27-12.34,2.17-.36,4.34-.73,6.5-1.13ZM211.97,169.48c.09-1.92.18-3.83.27-5.75.62-.1,1.25-.21,1.86-.32-.07,1.89-.15,3.78-.21,5.67-.64.13-1.28.27-1.92.4ZM216.26,163.01c1.94-.38,3.85-.82,5.75-1.35-.13,1.85-.26,3.71-.39,5.57-1.81.49-3.63.94-5.47,1.36.03-1.86.06-3.72.1-5.57ZM223.14,161.34s.03,0,.05-.01c-.06,1.84-.12,3.68-.18,5.52-.01,0-.03,0-.04,0,.07-1.84.12-3.67.17-5.51ZM223.24,159.58s-.04.01-.07.02c.03-1.79.06-3.58.07-5.37.05,0,.09,0,.14,0-.04,1.78-.09,3.57-.14,5.35ZM222.13,159.9c-1.94.54-3.88,1.04-5.84,1.51.05-2.35.11-4.71.16-7.06,2-.13,4.01-.18,6.03-.14-.11,1.9-.22,3.79-.35,5.69ZM216.48,152.9c.03-1.14.05-2.28.08-3.42,2.06-.25,4.13-.54,6.19-.79-.06,1.32-.13,2.65-.2,3.97-2.03,0-4.06.08-6.08.24ZM216.61,147.82c.05-2.02.1-4.04.15-6.07,2.09-.06,4.17-.11,6.26-.14-.04,1.73-.1,3.45-.17,5.18-2.08.3-4.15.68-6.23,1.03ZM216.94,132.17c.05-3.06.09-6.12.11-9.18,2.01-.26,4.02-.43,6.04-.44.08,0,.15-.03.22-.05.1,2.71.17,5.41.21,8.12-2.15.66-4.36,1.15-6.59,1.55ZM220.48,89.86c-2.92.4-5.79,1.39-8.7,2.04.29-2.43.73-4.83,1.35-7.17,2.05-.11,4.31-.37,6.36-.92.34,2.02.68,4.03.99,6.05ZM220.64,90.92c.42,2.74.79,5.49,1.09,8.25.03.3.06.6.09.9-3.05-.14-6.47.9-9.37,1.38-.39.07-.77.14-1.16.21-.02-2.72.07-5.43.32-8.1,3.07-.47,6.42-1.08,9.04-2.64ZM210.22,101.87c-1.62.33-3.24.71-4.85,1.13-.14-2.83-.33-5.66-.57-8.49,1.76-.2,3.52-.44,5.27-.71.24-.04.48-.08.72-.11-.34,2.7-.52,5.43-.58,8.18ZM210.19,103.48c-.01,1.9.02,3.8.09,5.71-1.55.21-3.11.45-4.66.69-.05-1.88-.11-3.76-.19-5.65,1.58-.28,3.17-.53,4.76-.75ZM210.38,111.42c.09,1.87.21,3.74.33,5.6-1.62.46-3.31.97-4.99,1.29,0-2.11-.01-4.22-.05-6.33,1.57-.2,3.14-.38,4.71-.56ZM208.12,118.83c.9-.15,1.79-.32,2.69-.51.1,1.49.21,2.97.32,4.44-1.83.39-3.65.82-5.46,1.26.03-1.62.04-3.25.05-4.87.81-.08,1.61-.2,2.41-.33ZM211.21,123.98c.13,1.78.24,3.55.34,5.29.07,1.23.11,2.46.14,3.68-2.1.27-4.21.51-6.29.78.11-2.84.19-5.68.25-8.52,1.85-.43,3.71-.85,5.57-1.23ZM211.61,141.95c-.07,2.21-.18,4.43-.3,6.64-2.2.24-4.4.36-6.63.24.12-2.19.23-4.38.34-6.58,2.2-.11,4.4-.21,6.6-.31ZM202.56,154.77c-1.6.27-3.21.54-4.81.8.1-4.32.16-8.64.16-12.96,1.8-.09,3.59-.18,5.39-.27-.23,4.14-.49,8.29-.74,12.43ZM202.49,155.98c-.17,2.87-.34,5.74-.51,8.61-1.5.33-3.01.68-4.51,1.03.1-2.98.18-5.95.26-8.93,1.59-.23,3.18-.47,4.76-.71ZM201.94,165.27c-.04.69-.08,1.38-.12,2.07-.07,1.35-.15,2.7-.24,4.05-1.44.25-2.88.49-4.32.73.07-2.04.14-4.09.2-6.14,1.49-.26,2.98-.49,4.48-.71ZM201.52,172.45c-.25,4.14-.48,8.31-.58,12.46-.63.12-1.27.24-1.9.37-.74.15-1.47.3-2.21.45.11-4.19.25-8.39.39-12.58,1.43-.23,2.86-.46,4.29-.7ZM200.3,186.68c.2-.04.41-.08.61-.12-.03,2.35,0,4.7.09,7.04.06,1.27,1.91,1.27,1.97,0,.04-.73.06-1.46.09-2.19.87,2.25,2.04,4.46,3.47,6.48-2.48.75-4.97,1.46-7.48,2.13-.82.22-1.64.43-2.47.64.01-4.44.09-8.87.2-13.31,1.17-.22,2.34-.44,3.51-.67ZM194.75,201.12s-.03,0-.06.01c-2.69-1.88-4.81-4.35-6.22-7.43.1-1.6.2-3.21.3-4.81,2.1-.41,4.2-.81,6.3-1.21-.17,4.48-.29,8.96-.32,13.44ZM181.82,202.48c-1.42.12-2.84.24-4.25.35-.04-1.24-.12-2.47-.18-3.7,1.48,1.13,2.95,2.28,4.44,3.35ZM199.75,201.32c2.6-.66,5.18-1.39,7.75-2.16.61.77,1.25,1.49,1.94,2.18-3.22-.12-6.45-.12-9.69-.02ZM216.21,182.03c-.13.02-.25.05-.38.07.09-3.35.21-6.69.26-10.04.01-.76.03-1.53.04-2.29,1.81-.39,3.61-.81,5.4-1.28-.09,1.2-.18,2.4-.27,3.6-.23,3.04-.37,6.08-.51,9.13-1.52.27-3.03.53-4.55.81ZM222.75,172.09c.07-1.33.13-2.65.18-3.98.01,0,.03,0,.05-.01-.14,4.27-.28,8.53-.4,12.8-.09.01-.17.03-.25.05.13-2.95.28-5.9.42-8.85ZM223.43,152.66h-.17c0-1.34,0-2.69,0-4.03.08-.01.17-.02.26-.03-.03,1.35-.05,2.71-.08,4.06ZM223.24,146.74c-.01-1.71-.04-3.41-.07-5.12.14,0,.28,0,.42,0-.01,1.7-.03,3.39-.05,5.09-.1.01-.2.02-.3.04ZM198.8,63.72c.6-1.42,1.13-3.08,1.35-4.74.28-.19.27-.53.08-.73.06-.78.04-1.55-.08-2.28.49-.23.94-.48,1.37-.75.86,2.45.86,5.42.81,8.44-1.18.02-2.35.05-3.53.06ZM186.55,58.47c.11.6.23,1.21.38,1.8-1.67.06-3.33.07-5,.09.01-.63,0-1.26,0-1.9,1.53.11,3.07.1,4.62.01ZM181.9,57.51c-.11-2.73-.4-5.47-.68-8.09,1.78-.15,3.57-.28,5.36-.32-.46,2.69-.55,5.54-.19,8.31-1.48.12-2.99.16-4.49.11ZM194.58,63.77c1.08-.17,2.16-.35,3.25-.52-.05.16-.1.32-.15.48-1.03.01-2.06.02-3.09.03ZM187.25,61.37c.26.84.57,1.66.93,2.45-2.15.01-4.31.02-6.46.03.1-.85.16-1.71.19-2.57,1.77.08,3.55.11,5.33.09ZM189.06,61.33c1.55-.05,3.21-.15,4.87-.38.35.78.77,1.5,1.28,2.14-1.24.23-2.48.47-3.72.7-.61,0-1.22.01-1.84.02-.19-.83-.39-1.66-.59-2.49ZM198.04,62.6c-.62.1-1.24.2-1.87.32.03-.09.04-.18.02-.28-.14-.68-.35-1.33-.59-1.98,1.16-.24,2.3-.58,3.34-1.05-.26,1.02-.59,2.04-.91,3ZM199.25,58.2c-1.43.32-2.82.65-4.21.95-.2-.52-.39-1.04-.55-1.57,1.69-.3,3.39-.7,4.91-1.3.01.62-.04,1.27-.14,1.92ZM193.38,59.5c-1.5.29-3.02.53-4.6.66-.14-.61-.28-1.22-.41-1.83.14-.01.28-.02.43-.04,1.24-.12,2.67-.26,4.16-.47.11.57.26,1.13.43,1.67ZM179.85,60.38c-1.4.02-2.8.06-4.2.16.02-1.14.08-2.27.17-3.4,1.32.51,2.67.86,4.04,1.09-.02.72-.03,1.44-.01,2.16ZM175.77,63.85c-.09-1.01-.13-2.01-.12-3.01,1.41.13,2.82.25,4.23.33.03.91.1,1.8.2,2.68-1.44,0-2.87,0-4.31,0ZM201.05,54.08c-.44.1-.88.22-1.31.37-.38-.92-.97-1.74-1.87-2.37-.17-.12-.38.16-.23.29.77.65,1.24,1.43,1.5,2.28-.83.3-1.65.63-2.48.87-.84.25-1.68.46-2.53.66-.47-2.18-.53-4.42-.32-6.64.32.05.63.11.95.17,3.35.69,5.24,2.27,6.3,4.36ZM192.88,49.4c-.31,2.19-.43,4.69-.13,7.08-1.02.21-2.04.39-3.07.55-.5.08-1.01.14-1.53.21-.52-2.66-.83-5.34-.6-8.15,1.79,0,3.58.08,5.34.32ZM180.56,49.48c-.27,2.56-.55,5.24-.66,7.9-1.37-.13-2.72-.37-4.03-.7.2-2.27.47-4.55.6-6.84,1.35-.12,2.72-.24,4.1-.36ZM166.09,63.83c-2.23-.01-4.46-.03-6.69-.04-1.2-3.82-2.55-7.64-3.82-11.41,0-.02-.01-.04-.02-.06.16.21.32.42.48.63,2.71,3.37,6.09,8.06,10.04,10.88ZM148.81,40.57c.02.06.05.13.07.19-.05-.06-.1-.12-.16-.18.03,0,.06-.01.08-.01ZM147.78,40.71c.01.08.04.16.11.23.92.98,1.72,2,2.44,3.06.71,1.46,1.51,2.86,2.37,4.25.95,2.05,1.7,4.21,2.37,6.45.88,2.96,1.53,6.13,2.62,9.08-3.38-.03-6.76-.05-10.14-.08-.79,0-1.58,0-2.37-.02-.93-3.83-2.34-7.59-3.27-11.43-.93-3.86-1.77-7.72-2.88-11.54,2.85.11,5.89.31,8.74,0ZM138.4,40.68s0,.02,0,.03c1.94,7.36,2.39,15.93,5.55,22.95-4.39-.02-8.78-.03-13.18-.04-.03-7.69.11-15.41,1.33-22.99,1.48.01,2.95.02,4.44.01.6,0,1.22.01,1.86.03ZM131.43,40.63c-1.33,7.57-1.6,15.3-1.68,23-5.33,0-10.66-.02-15.99-.08.16-7.95,2.05-15.76,4.87-23.2.13,0,.26,0,.39.01,4.14.13,8.27.23,12.4.28ZM118.38,40.33c-3.12,7.37-5.38,15.21-5.68,23.19-3.04-.04-6.08-.1-9.12-.18,1.12-8.09,3.57-15.86,6.94-23.28,2.62.1,5.24.18,7.86.27ZM109.56,40.03c-3.41,7.42-5.89,15.19-7.08,23.29-2.5-.07-4.99-.16-7.49-.27-1.9-.08-3.8-.18-5.69-.27,2.29-8.19,5.01-16.3,9.99-23.24.75.04,1.49.08,2.23.12,2.68.15,5.36.26,8.04.37ZM82.93,53.06c2.24-2.37,4.3-4.93,6.5-7.34,1.94-2.13,4.3-4.06,5.88-6.48t0,0c1.2.13,2.4.22,3.61.29-5.09,6.72-8.62,15.01-10.56,23.22-4.68-.22-9.37-.45-14.06-.6,2.94-2.96,5.76-6.03,8.63-9.08ZM24.2,71.98c-.61,5.89-1.17,11.79-1.56,17.69-.92.09-1.85.16-2.77.22-.23-5.55-.5-11.09-.83-16.63,1.72-.37,3.44-.83,5.16-1.29ZM22.69,163.35c1.73-.35,3.46-.71,5.2-1.07.3,4.66.37,9.32.06,13.99-1.63.47-3.26.94-4.9,1.39-.08-4.77-.2-9.53-.36-14.3ZM29.67,163.06c-.02-.38-.06-.76-.08-1.14,1.06-.22,2.12-.44,3.18-.66.05-.01.09-.02.14-.03.17,2.49.34,4.99.49,7.48.12,1.98.21,3.95.28,5.93-1.29.35-2.58.71-3.86,1.08.3-4.26.11-8.59-.14-12.67ZM22.4,113.63c.32,5.41.87,10.81,1.54,16.22-.88.14-1.75.25-2.63.32-.22-5.53-.41-11.06-.59-16.6.56.03,1.12.05,1.68.06ZM23.71,103.04c1.74.17,3.5.17,5.27.08.1,3.11.23,6.23.39,9.34-1.77.24-3.55.43-5.33.57-.17-3.33-.28-6.66-.32-9.99ZM29.42,113.34c.26,5.01.59,10.02.96,15.03-1.63.47-3.27.89-4.93,1.22-.64-5.33-1.09-10.65-1.38-15.96,1.79-.02,3.57-.12,5.35-.29ZM21.64,137.96c-.11-2.48-.21-4.96-.31-7.45.91.01,1.8-.01,2.69-.07.07.58.14,1.16.22,1.74.44,3.36.92,6.72,1.39,10.07-1.24.36-2.49.71-3.74,1.03-.08-1.77-.16-3.55-.24-5.32ZM26.13,134.88c-.22-1.53-.42-3.05-.61-4.58,1.65-.19,3.28-.49,4.92-.87.27,3.59.55,7.19.84,10.78,0,.12.02.24.03.35-1.39.41-2.77.82-4.16,1.23-.34-2.31-.69-4.61-1.02-6.92ZM29.58,142.5c.62-.17,1.23-.34,1.86-.51.48,5.97.95,11.94,1.38,17.91-1.11.27-2.21.56-3.31.86-.47-5.91-1.28-11.79-2.15-17.66.74-.2,1.48-.4,2.23-.61ZM38.94,175.1c.33,3.73.62,7.47.88,11.21-.77.15-1.53.29-2.28.42-.45.08-.9.15-1.35.22-.08-3.73-.29-7.45-.53-11.17,1.09-.24,2.18-.47,3.28-.68ZM36.07,174.03c-.18.04-.35.09-.52.13-.09-1.38-.18-2.76-.27-4.13-.19-3.04-.42-6.08-.65-9.12.98-.18,1.98-.36,2.98-.53.39,4.33.79,8.65,1.18,12.98-.94.22-1.85.45-2.71.67ZM34.52,159.5c-.47-5.98-.99-11.95-1.52-17.92,1.03-.27,2.06-.52,3.1-.76.05.96.11,1.93.18,2.89.33,5.02.74,10.04,1.19,15.05-.99.25-1.98.5-2.94.73ZM32.87,140.12c-.33-3.68-.65-7.36-.96-11.05,1.18-.31,2.37-.65,3.59-1.01.04-.01.08-.02.12-.04.05,3.74.19,7.48.39,11.19-1.09.31-2.15.63-3.14.91ZM31.81,127.94c-.42-4.91-.82-9.81-1.18-14.72,1.82-.2,3.64-.46,5.45-.77-.37,4.74-.51,9.51-.47,14.28-1.26.41-2.52.82-3.8,1.21ZM30.56,112.29c-.22-3.08-.43-6.15-.61-9.23,2.48-.18,4.96-.53,7.37-.86-.5,3.03-.87,6.08-1.14,9.14-1.86.36-3.74.68-5.62.95ZM29.93,102.74c-.27-4.45-.49-8.9-.65-13.35,3.9-.54,7.79-1.24,11.67-1.96-1.56,4.64-2.7,9.38-3.52,14.18-2.47.45-4.98.88-7.49,1.13ZM28.97,102.83c-1.76.14-3.53.19-5.27.08-.06-4.29-.02-8.59.1-12.89,1.66-.15,3.32-.34,4.98-.56-.02,4.46.05,8.92.19,13.37ZM22.14,100.31c-.11,4.3-.01,8.58.23,12.84-.55.03-1.1.06-1.66.09-.26-7.65-.51-15.3-.82-22.94.91-.04,1.82-.1,2.73-.17-.22,3.39-.39,6.78-.48,10.18ZM25.8,143.52c.83,5.91,1.6,11.81,2.02,17.72-1.72.49-3.43,1.01-5.15,1.51-.21-6.1-.46-12.19-.73-18.29,1.29-.29,2.58-.6,3.86-.93ZM23.08,178.65c1.6-.35,3.19-.71,4.78-1.09-.26,3.2-.69,6.4-1.36,9.62-.08.39.5.69.67.29,1.42-3.24,2.17-6.75,2.52-10.33,1.34-.32,2.69-.63,4.04-.94.13,3.7.22,7.4.36,11.09-3.62.57-7.26,1.06-10.91,1.36,0-3.33-.05-6.66-.1-9.99ZM34.15,188.56c.13,3.09.28,6.18.54,9.27.07.8,1.17.8,1.23,0,.25-3.16.31-6.34.28-9.53,1.23-.16,2.47-.3,3.72-.43.04.63.09,1.27.13,1.9.17,2.81.17,5.66.25,8.49-1.88.41-3.72.87-5.46,1.24-3.99.86-7.93,1.92-11.82,3.15.1-4.34.16-8.67.16-13.01,3.67-.21,7.32-.61,10.97-1.09ZM25.81,206.06c-.3.09-1.61.55-3.04,1.04.09-.25.16-.52.17-.83.03-.94.04-1.88.06-2.82,3.6-1,7.24-1.85,10.92-2.57,2.09-.41,4.27-.64,6.44-.87.06,1.39.14,2.77.29,4.14,0,.04.02.07.03.11-1.63.06-3.25.12-4.88.19-3.41.15-6.72.62-9.99,1.61ZM42.61,204.19s0-.02.01-.04c.15-1.45.18-2.92.16-4.4,2.55-.28,5.07-.64,7.46-1.33.69-.2.51-1.16-.16-1.21-2.36-.18-4.86.1-7.35.56-.1-2.33-.31-4.66-.45-6.94-.06-1.06-.13-2.12-.21-3.18,4.19-.43,8.42-.92,12.34-2.06.49-.14.35-.8-.11-.85-4.01-.42-8.25.35-12.35,1.16-.26-3.44-.56-6.87-.87-10.3-.03-.29-.05-.58-.08-.87.54-.1,1.09-.21,1.63-.3,2.89-.5,5.91-.36,8.74-1.08.46-.12.48-.84,0-.95-3.21-.71-7-.23-10.54.51-.4-4.29-.82-8.58-1.22-12.86,2.88-.5,5.77-1.04,8.49-1.82.55-.16.42-.95-.13-.97-2.77-.12-5.67.39-8.52,1.05-.41-4.48-.81-8.95-1.15-13.43-.11-1.48-.21-2.96-.32-4.45,2.66-.52,5.43-.42,8.03-1.13.52-.14.54-.94,0-1.07-2.52-.59-5.38-.17-8.14.51-.24-3.72-.44-7.46-.56-11.21,2.48-.75,4.96-1.47,7.49-2.04,3.21-.71,6.42-.54,9.63-1.02.51-.08.44-.83,0-.95-5.12-1.44-11.33.82-16.19,2.37-.33.11-.65.21-.97.31-.12-4.66-.1-9.33.14-13.97,4.05-.75,8.08-1.7,12.11-2.7,5.51-1.37,11-2.8,16.56-3.95,4.82-1,9.63-1.42,14.48-1.87-5.84,6.53-10.13,14.39-12.44,22.98-1.15,4.25-1.7,8.51-1.67,12.88-2.01,7.81-2.44,16.03,0,23.8,2.57,8.2,7.96,15.24,14.77,20.4,14.41,10.92,34.06,13.6,51.37,9.36,10.48-2.56,20.27-8.14,27.43-16.25,7.29-8.26,13.98-21.87,11.12-33.05-.16-.62-.78-.7-1.21-.42,1.77-10.94-1.59-22.5-6.66-32.15-6.16-11.73-16.5-22.59-29.54-26.29-6.65-1.89-13.89-.94-20.55.38-7.2,1.43-14.1,4.23-20.34,8.08-4,2.47-7.62,5.41-10.83,8.73-9.76-.34-19.98,2.87-29.26,5.29-5.06,1.32-10.14,2.61-15.27,3.64.18-3.02.46-6.03.85-9.02,7.09-.96,14.13-2.35,21.25-3.09.39-.04.4-.65,0-.62-6.25.55-12.45,1.54-18.63,2.62-.84.15-1.68.3-2.53.46.66-4.77,1.63-9.48,3.01-14.09,0,0,0,0,0,0,9.59-1.78,18.93-3,28.69-3.08.48,0,.46-.69,0-.74-8.34-.87-16.96.87-25.12,2.44-1.12.21-2.24.43-3.35.66.06-.19.11-.38.17-.57.07-.23-.28-.32-.35-.1-.09.25-.17.5-.26.75-3.97.78-7.94,1.55-11.94,2.15-.05-1.65-.12-3.31-.16-4.97,0-.16-.24-.16-.25,0-.03,1.68-.05,3.36-.06,5.04-1.65.25-3.31.46-4.96.63.18-5.89.51-11.79.97-17.74,1.77-.46,3.55-.9,5.35-1.2,6.37-1.06,12.85-1.48,19.3-1.65,14.2-.36,28.41.34,42.59,1.02,16.69.81,33.4.63,50.1.81,14.44.15,28.89.31,43.33.27-19.13,5.77-39.63,7.01-59.48,7.37-25.63.47-51.36-1.18-76.95,1.03-.24.02-.24.39,0,.37,26.32-2.28,52.82-.53,79.19-1.08,19.55-.41,39.73-1.84,58.53-7.71,7.54-.03,15.08-.11,22.62-.28,1.76-.04,3.53-.09,5.29-.14.76-.02,1.4-.24,1.92-.57.68,3.82,1.89,7.65,2.53,11.44.02.1.03.19.05.28-1.89.45-3.79,1.07-5.57,1.4,0,0-.01,0-.02,0,.35-1.18.75-2.34,1.21-3.49.05-.13-.17-.22-.23-.1-.53,1.2-.99,2.42-1.41,3.66-4.47.75-9.1.58-13.12-1.7-.28-.16-.51.25-.25.43,3.29,2.16,6.92,2.78,10.8,2.79.65,0,1.36-.01,2.1-.04-.72,2.39-1.25,4.83-1.63,7.31-.12.02-.24.05-.36.07-1.99.37-3.99.66-6,.9-.15-1.64-.31-3.28-.5-4.91,0-.08-.13-.08-.12,0,.1,1.65.18,3.3.25,4.96-2.74.32-5.49.54-8.23.76-8.59.66-17.24,1.2-25.75,2.61-.14.02-.1.26.03.24,8.9-.97,17.88-.79,26.81-1.43,2.41-.17,4.81-.39,7.2-.67.11,2.88.17,5.77.19,8.65-1.6.44-3.19.91-4.76,1.41-.45.15-.27.82.2.71,1.52-.36,3.04-.66,4.57-.95.01,1.89,0,3.77-.01,5.66-10.63,1.73-21.23,3.91-32.09,2.76-.79-.08-.78,1.14,0,1.23,8.34,1,16.65.15,24.93-.98,2.39-.33,4.76-.64,7.14-.94-.03,2.13-.08,4.27-.14,6.4-2.25.29-4.48.14-6.55-.98-.14-.08-.26.13-.12.21,2.05,1.32,4.33,1.62,6.65,1.51-.05,1.71-.11,3.42-.17,5.12-1.46.35-2.92.7-4.37,1.02-7.53,1.68-17.93,4.5-25.23.65-.04-.02-.08.04-.03.06,6.85,3.39,14.44,2.46,21.71,1.13,2.62-.48,5.25-1.08,7.88-1.69-.11,2.8-.24,5.6-.38,8.4-.62.09-1.23.18-1.84.27-.34.05-.27.63.08.61.57-.05,1.15-.09,1.72-.12-.11,2.05-.22,4.1-.33,6.15,0,.07,0,.14,0,.21-1.83.13-3.65.26-5.47.39,0-2.31-.03-4.62-.07-6.93,0-.08-.12-.08-.12,0-.06,2.32-.14,4.64-.23,6.96-7.63.55-15.27,1.11-22.92,1.29-.24,0-.24.37,0,.37,7.64.14,15.26-.15,22.88-.52-.18,4.37-.4,8.73-.65,13.1-6.66,1.08-13.34,1.95-20.12,1.64-.48-.02-.47.71,0,.74,6.74.43,13.41-.32,20.05-1.27-.17,3.03-.35,6.06-.53,9.09-.19.04-.37.09-.56.13-.15.04-.09.26.07.24.16-.03.32-.06.48-.09-.12,2.05-.24,4.1-.36,6.15-6.47,1.1-12.92,2.27-19.26,3.95-.54.14-.31.97.23.83,6.24-1.61,12.6-2.72,18.97-3.76-.24,4.23-.46,8.47-.63,12.7-2.1.45-4.19.93-6.27,1.42.18-2.89.38-5.78.73-8.67.03-.28-.42-.33-.49-.06-.63,2.95-1.41,6.04-1.99,9.16-.94.23-1.87.46-2.81.7-2.58.66-4.88,1.3-7.15,2.56-.06-2.01-.11-4.02-.16-6.03-.01-.4-.61-.4-.62,0-.11,3.95-.21,7.89-.32,11.84-2.4-1.52-4.91-2.81-7.77-3.58-.23-.06-.32.29-.1.36,2.82.91,5.37,2.53,7.83,4.32-.06,1.6-.17,3.23-.24,4.86-.4.03-.81.07-1.21.1-2.25.17-4.5.31-6.75.43-.56-.26-1.11-.54-1.63-.87-1.94-1.21-3.69-2.7-5.49-4.1,3.26-.67,6.72-1.15,9.79-2.34.48-.19.47-1.02-.13-.97-3.65.29-7.41,1.18-11.12,2.22-1.32-.92-2.7-1.73-4.14-2.38,2.26-.31,4.53-.6,6.82-.84.77-.08.81-1.22,0-1.23-3.79-.06-7.58.22-11.36.72-.43-.07-.86-.13-1.31-.16-.07,0-.08.1-.02.12.2.04.38.09.57.14-4.76.66-9.5,1.67-14.19,2.8-.37-.31-.74-.61-1.12-.92-.03-.02-.08.02-.05.05.33.29.65.6.98.91-4.09.99-8.14,2.07-12.13,3.11-2.03.52-4.06,1.04-6.09,1.55-1.83-1.19-3.68-2.35-5.58-3.43.01-.23-.2-.48-.47-.41-.06.01-.12.02-.18.04-1.26-.69-2.54-1.35-3.85-1.95-.21-.1-.4.2-.19.32,1.03.59,2.04,1.22,3.05,1.86-5.02,1.19-10.08,2.09-15.18,2.75-3.09-1.67-5.73-3.51-7.93-5.81,2.73-.72,5.4-1.61,7.7-2.8.37-.19.21-.85-.22-.81-2.92.31-5.86,1.22-8.76,2.15-1.4-1.74-2.58-3.71-3.54-6.04-.18-.43-.87-.26-.72.2.78,2.29,1.79,4.36,3.02,6.23-1.38.44-2.74.86-4.1,1.2-.08.02-.15.04-.22.05-1.66-1.41-3.32-2.82-5.01-4.19.86-.25,1.73-.5,2.59-.75.61-.18.48-1.07-.15-1.09-1.4-.04-2.82.12-4.24.42-1.98-1.53-4.02-2.98-6.22-4.24-.21-.12-.38.19-.19.32,1.9,1.26,3.67,2.67,5.38,4.15-4.32,1.07-8.72,3.18-13.08,4.35-1.73-2.09-3.28-4.32-4.71-6.64-.13-.2-.43-.03-.32.18,1.2,2.31,2.53,4.58,4.02,6.71-3.42.8-6.81.92-10.13-.58-.14-.06-.26.13-.12.22,3.35,1.93,7.13,1.81,10.79,1.14,1.88,2.58,4.01,4.95,6.52,6.95.2.16.4.31.61.47-1.56,0-3.11-.03-4.67-.08-4.23-.14-9.37-.17-13.17-2.31-.07-.04-.13.07-.06.11,3.23,1.99,7.5,2.3,11.18,2.67,2.64.27,5.28.41,7.92.47.27.18.55.37.84.54-1.39.01-2.77.03-4.16.05-7.04.08-14.07.24-21.1.48ZM167.38,150.95c-.75,2.91-1.44,5.84-2.45,8.69-1.62,4.56-4.08,8.9-7.12,12.67-5.73,7.14-13.65,12.17-22.29,15.05-16.73,5.57-36.68,3.28-51.19-6.95-14.8-10.43-18.54-28.77-14.25-45.61.2-.78-.38-1.27-.98-1.29,3.02-11.43,8.25-21.87,17.14-30.22,10.64-9.99,25.74-15.33,40.25-15.26,13.58.07,24.79,11.52,31.38,22.29,6.8,11.11,10.94,25.75,6.17,38.39-.8,2.12,1.81,3.26,3.34,2.22ZM144.71,204.02c-.54-.37-1.07-.76-1.6-1.15,1.92-.55,3.85-1.07,5.79-1.57,3.34-.86,6.72-1.63,10.09-2.39.91.74,1.81,1.5,2.73,2.26.91.75,1.95,1.63,3.07,2.48-6.69.29-13.38.39-20.08.38ZM71.1,203.64c-.33-.15-.66-.31-.99-.48,2.77,0,5.55-.08,8.32-.21,2.72-.13,5.44-.31,8.16-.54.5.38,1.01.75,1.54,1.1-5.68.02-11.36.07-17.03.12ZM59.85,194.63c.28-.06.55-.12.83-.18,4.42-.99,8.89-2.19,13.29-3.45,1.53,1.39,3.02,2.82,4.52,4.25-5.18,1.25-10.36,2.23-15.72,2.45-1.02-.98-1.99-2-2.91-3.07ZM78.08,196.53c.48-.09.98-.18,1.47-.27.91.86,1.82,1.72,2.76,2.56.95.86,1.98,1.76,3.07,2.64-2.04.16-4.07.31-6.12.43-3.57.2-7.17.33-10.76.36-1.33-.83-2.6-1.78-3.78-2.77-.59-.49-1.16-1.01-1.71-1.53,5.08.06,10.07-.51,15.06-1.42ZM115.77,201.67c-2.57.64-5.14,1.27-7.71,1.87-2.51-.02-5.03-.03-7.54-.04-1.33-.73-2.68-1.43-4.04-2.14.44-.06.89-.1,1.33-.17,4.34-.59,9.08-1.08,13.14-2.84,1.63,1.07,3.23,2.19,4.82,3.32ZM96.05,203.5c-1.32,0-2.63,0-3.95,0-.87-.42-1.73-.86-2.57-1.35,1.19-.12,2.39-.23,3.58-.37.97.6,1.95,1.17,2.94,1.72ZM88.07,201.23c-2.37-1.59-4.56-3.48-6.74-5.31,1.34-.26,2.71-.56,4.08-.88,1.69,2.2,3.75,4.11,6.23,5.79.02.01.04.02.06.04-1.21.13-2.41.25-3.62.37ZM117.26,202.73c.43.31.87.62,1.31.93-1.59-.02-3.17-.05-4.76-.07,1.15-.28,2.3-.57,3.45-.86ZM136.94,198.16c1.45,1.47,2.92,3.03,4.46,4.49-1.33.43-2.66.87-3.98,1.33-5.53-.06-11.07-.17-16.6-.27-.68-.45-1.36-.91-2.04-1.36.81-.2,1.62-.41,2.42-.61,5.26-1.32,10.49-2.52,15.73-3.58ZM137.34,198.08c5.4-1.09,10.83-2.03,16.31-2.81,1.42.74,2.74,1.63,4.02,2.61-2.65.77-5.27,1.57-7.81,2.26-2.5.68-4.99,1.4-7.46,2.18-1.72-1.34-3.37-2.8-5.05-4.25ZM141.99,203.18c.31.28.62.56.93.83-1.2,0-2.41-.01-3.61-.02.89-.28,1.79-.54,2.68-.81ZM219.98,202.28c-2.63-.39-5.26-.64-7.9-.81-1.1-.82-2.16-1.71-3.16-2.75.7-.22,1.41-.43,2.11-.66,2.81-.9,6.37-1.67,9.06-3.21-.08,2.49,0,4.98.55,7.29.09.35.63.35.71,0,.47-1.94.65-4,.7-6.08.08.11.16.22.24.32-.02,2.45-.02,4.9,0,7.36-.48-.75-1.24-1.31-2.31-1.46ZM222.05,195.4c.04-2.65-.09-5.34,0-7.88.05-1.62.13-3.23.2-4.85.09-.02.18-.03.27-.05-.12,4.35-.21,8.71-.24,13.06-.08-.1-.15-.2-.23-.29Z"/>
</svg>