<?xml version="1.0" encoding="UTF-8"?>
<svg id="Layer_1" xmlns="http://www.w3.org/2000/svg" version="1.1" viewBox="0 0 244.78 247.68">
  <!-- Generator: Adobe Illustrator 29.1.0, SVG Export Plug-In . SVG Version: 2.1.0 Build 142)  -->
  <defs>
    <style>
      .st0 {
        fill: #9c3a30;
      }
    </style>
  </defs>
  <path class="st0" d="M90.76,153.19c.47-.09.47-.85,0-.95-4-.8-8.37-.28-12.46-.46-4.7-.21-9.39-.64-13.99-1.66-.26-.06-.37.32-.11.41,4.17,1.34,8.43,2.25,12.79,2.61,4.4.36,9.42.93,13.77.06Z"/>
  <path class="st0" d="M84.64,157.93c.47.06.58-.75.11-.83-6.58-1.1-12.16-.15-18.12,2.77-.05.02,0,.09.04.07,5.53-2.56,12-2.77,17.96-2.01Z"/>
  <path class="st0" d="M69.05,164.64c-.09,0-.09.13,0,.14,4.64.35,9.9,1.19,14.5.33.4-.08.4-.74,0-.81-4.6-.86-9.86-.01-14.5.33Z"/>
  <path class="st0" d="M69.05,169.64c6.08.64,13.26,1.38,19.3.27.4-.08.4-.74,0-.81-6.03-1.12-13.21-.37-19.3.26-.18.02-.18.26,0,.28Z"/>
  <path class="st0" d="M71.45,179.45c3.95.05,8.06.43,11.99.07.54-.05.54-.79,0-.84-3.93-.36-8.04.02-11.99.07-.45,0-.45.7,0,.7Z"/>
  <path class="st0" d="M76.25,184.31c2.58.07,5.16.13,7.75.2,2.22.06,4.63.48,6.75-.22.4-.13.4-.68,0-.81-2.12-.69-4.54-.27-6.75-.22-2.58.07-5.16.13-7.75.2-.54.01-.54.83,0,.84Z"/>
  <path class="st0" d="M85.84,191.22c2.4.05,4.79.09,7.19.14.36,0,.36-.57,0-.56-2.4.05-4.79.09-7.19.14-.18,0-.18.28,0,.28Z"/>
  <path class="st0" d="M190.45,175.15c-5.63-7.54-17.38-8.12-25.77-6.73-1.43.24-.81,2.38.6,2.16,8-1.22,22.39-.3,24.68,9.64,1.16,5.06-4.2,9.51-7.72,12.01-4.1,2.9-8.6,5.12-13.25,7.01-15.16,6.13-32.12,9.33-48.42,10.27-14.27.82-28.82.35-42.98-1.62-4.4-.61-8.85-1.39-13.25-2.43,0,0,0,0,0,0-.01-.05-.07-.05-.11-.02-9.13-2.18-17.99-5.54-25.55-11.07-4.07-2.98-6.63-6.75-8.92-11,8.99-8.52,21.11-10.32,32.94-12.38,1.66,5.28,3.78,10.44,6.84,15.06,2.86,4.32,8.31,10.48,13.91,10.54.6,0,.95-.78.5-1.2-2.14-1.99-4.95-3.04-7.22-4.94-2.57-2.15-4.58-4.87-6.3-7.72-2.31-3.83-3.95-8.04-5.29-12.33.61-.56.26-1.74-.6-2-.53-1.82-1.02-3.64-1.49-5.46-2.02-7.8-3.48-17.12-7.02-24.99,9.16,9.47,24.18,10.23,36.53,10.36,14.91.16,31.18-.9,45.05-6.84,3.93-1.68,7.94-4.69,10.98-8.4-.18.75-.35,1.5-.52,2.24-1.83,8.13-2.74,16.43-3.95,24.66-.76,5.15-1.65,10.38-3.13,15.42-.11.03-.22.06-.32.08-1.15.27-1.11,1.62-.39,2.2-.71,2.11-1.52,4.18-2.49,6.18-1.55,3.2-3.63,6.08-6.28,8.46-1.23,1.11-2.59,1.9-4,2.58-.15-.14-.33-.25-.53-.3-2.31-.63-5.24.82-7.52,1.31-3.57.77-7.21,1.16-10.85,1.38-6.32.38-14,.47-19.89-2.19-1.05-.48-1.93.94-.92,1.57,5.85,3.66,13.02,4.08,19.73,4.03,4-.03,8-.44,11.95-1.06,1.04-.17,2.27-.31,3.49-.57,6.33-.23,12.04-5.91,15.24-10.88,2.11-3.27,3.61-6.9,4.75-10.66,9.84-2.56,19.5-7.45,27.8-13.15,8.03-5.51,14.33-13.13,14.06-23.38-.2-7.6-6.43-12.2-13.56-12.64-8.67-.54-16.88,4.83-21.22,12.07-.42.7.65,1.32,1.09.64,4.29-6.6,11.52-10.79,19.46-10.56,7.98.23,12.77,6.3,11.58,14.08-1.49,9.74-9.02,15.6-16.95,20.43-6.61,4.03-13.96,7.55-21.49,9.69.56-2.18,1.03-4.38,1.44-6.56.33.24.77.31,1.22.01,9.39-6.08,31.65-11.2,29.54-26.09-.73-5.16-6.64-5.7-10.7-4.98-6.07,1.08-12.07,5.22-15.07,10.6-.31.56.51,1.03.85.5,2.95-4.72,7.99-7.71,13.31-9.01,5.67-1.38,10.59.79,9.15,7.26-1.27,5.69-8.3,9.24-12.94,11.75-4.91,2.66-10.2,4.69-14.93,7.66.02-.1.04-.2.06-.3,1.98-11.28,1.81-24.13,5.1-35.51,1.41-2.31,2.4-4.8,2.79-7.36.57-1.19,1.21-2.35,1.91-3.48.04-.07-.05-.14-.11-.08-.59.54-1.13,1.13-1.63,1.75.32-14.12-22.29-17.07-32.38-17.7-6.12-.38-12.62-.41-19.14.04,2.64-2.89,4.79-6.13,5.61-9.99.27-1.3-.76-2.19-2-2-5.51.86-10.86,2.56-16.32,3.67,1.13-.46,2.25-.9,3.33-1.35,5-2.09,10.04-4.11,14.96-6.41,5.37-2.51,17.23-7.68,14.89-15.55-2.18-7.35-16.32-3.58-21.3-2.75-5.91.98-11.78,2.17-17.73,2.87-3.59.42-7.99.98-11.66-.07,8.88-10.62,22.85-15.8,35.45-20.55,12.92-4.87,26.34-9.35,37.12-18.29.82-.68.51-2.05-.33-2.54-24.2-14.27-50.56,4.44-75.15,7.25-.17.02-.18.28,0,.28,23.49-.32,48.78-18.11,71.42-5.96-22.41,16.24-55.66,16.28-72.98,39.67-.56.76-.16,2.05.65,2.47,7.42,3.81,17.71,1.14,25.45-.2,5.14-.89,10.26-1.93,15.44-2.55,2.67-.32,7.62-1.26,9.91.69,5.08,4.31-13.87,12.77-15.94,13.7-7.47,3.36-16.64,5.64-23.13,10.81-1.16.93-.17,2.86,1.17,2.83,7.84-.19,15.23-2.84,22.85-4.38-1.31,3.31-3.65,6.03-6.03,8.72-10.33,1.09-20.56,3.54-29.34,8.02-.09-.25-.31-.43-.67-.4-6.56.59-14.04,5.08-16.35,11.6-.91,2.56-.88,5.07-.22,7.43-.44-.52-.89-1.03-1.36-1.52-.06-.06-.16.02-.11.08,7.47,11.01,8.27,25.76,11.72,38.26.15.56.31,1.11.48,1.66-12.1,2.15-24.04,4.37-32.91,13.43-.15-.28-.3-.56-.44-.84-.18-.37-.82-.21-.78.21.05.57.13,1.13.23,1.68-.08.1-.17.18-.26.27-.44.49.05,1.15.56,1.06,1.18,4.31,4.03,8.03,7.57,11.13,8.84,9.82,20.76,16.41,33.62,20.6,1.34.94,2.82,1.64,4.26,1.78.23.02.42-.14.51-.34,8.19,2.27,16.64,3.64,24.82,4.32.24.25.5.48.8.68.4.25.8-.16.71-.56,1.81.13,3.61.23,5.38.3,10.68.41,21.49-.45,31.97-2.69.03.08.04.17.08.25.13.34.71.55.9.12.09-.21.16-.42.23-.63,3.97-.89,7.89-1.97,11.74-3.27,12.11-4.08,26.76-11.2,34.08-22.2.1-.15.14-.31.16-.45,5.68-4.62,10.38-11.51,5.22-18.42ZM89.36,126.24c-4.35,4.04-8.49,8.34-13.07,12.11,1.53-3.91,3.99-7.25,6.86-10.44,2-.71,4.09-1.26,6.21-1.67ZM127.64,128.92c1.23.4,2.45.85,3.65,1.34-1.69,2.62-3.96,4.58-6.43,6.43.84-2.07,1.81-4.07,3.02-6,.42-.67.21-1.34-.25-1.77ZM125.55,128.89c-3.94,3.87-8.19,7.3-13.26,9.23,2.41-3.45,4.81-6.85,8.18-9.52.52-.41.57-1.01.35-1.53,1.38.31,2.75.64,4.11,1.02.46.13.91.27,1.36.4-.26.05-.51.17-.73.39ZM98.39,140.49c2.81-5.19,6.5-9.89,8.92-15.3,3.67.2,7.32.66,10.93,1.35-6.64,4.64-12.37,10.78-19.85,13.95ZM102.64,125.07c-5.29,4.76-10.24,9.93-15.99,14.1,2.18-4.92,5.02-9.45,8.36-13.74,2.62-.26,5.19-.36,7.63-.36ZM86,133.63c-1.57,2.89-2.93,5.9-4.03,9.09-.27.78.2,1.47.85,1.76-2.92-.3-5.79-.72-8.61-1.28.1-.03.21-.07.31-.13,4.19-2.73,7.87-6.03,11.48-9.44ZM119.17,142.91c-11.28,1.88-23.58,2.75-35.31,1.67.12-.03.24-.07.35-.13,6.11-3.63,11.22-8.51,16.36-13.34-2.3,3.67-4.74,7.27-6.45,11.26-.49,1.15.3,2.61,1.7,2.22,5.1-1.42,9.34-4.18,13.39-7.28-.62.89-1.25,1.79-1.9,2.67-.85,1.16.54,2.42,1.69,2.19,4.87-.96,9.1-3.24,12.92-6.16-.56,1.42-1.07,2.86-1.55,4.33-.39,1.17,1.12,2.45,2.17,1.67,3.72-2.74,7.47-5.15,10.2-8.66.03.08.06.15.1.23.75,1.52,1.69,1.86,2.75,2.96.75.79,1.94-.4,1.19-1.19-.57-.59-1.02-1.8-1.3-3.03,1.66,1.04,3.27,2.26,5.06,2.85.18.06.35.08.52.08-6.15,4.45-14.13,6.38-21.89,7.67ZM62.03,116.71c-2.09,2.75-2.78,6.1-.23,9.66.05.07.17,0,.12-.07-8.32-13.6,22.24-18.27,29.6-19.24,1.23-.16,2.47-.31,3.7-.43-1,1.21-1.94,2.46-2.73,3.81-.38.64.47,1.23.99.76,1.79-1.59,3.73-3.2,5.59-4.91,7.22-.53,14.49-.49,21.69.14,7.95.69,16.48,1.76,23.52,5.8,5.34,3.06,7.39,7.99,4.65,13.68-1.62,3.36-3.81,6.02-6.38,8.16.16-.44.15-.95-.11-1.39-2.63-4.52-11.12-6.64-15.75-7.97-7.58-2.18-15.59-3.1-23.47-3.09-12.73,0-29.29,3.17-34.83,16.32-.38.89.86,1.68,1.33.78,2.12-4.12,5.47-7.04,9.44-9.09-3,3.48-5.4,7.33-6.58,11.95-.14.53.09,1.05.47,1.38-6.57-1.53-13.4-5.03-17.07-10.8-4.12-6.47.6-12.05,6.06-15.44ZM130.85,212.08c3.13-.42,6.33-.9,9.55-1.47-1.01,1.85-2.26,4.37-2.53,6.67-4.49.97-9.05,1.67-13.63,2.12-.38-2.52.56-4.63,2.41-6.68.06-.07-.03-.16-.1-.1-2.11,2.01-3.23,4.18-3.03,6.85-3.61.34-7.23.52-10.85.57.02-.05.03-.11.03-.18-.09-1.28-.74-2.51-1.08-3.76-.23-.87-.5-1.71-.82-2.54,6.71-.12,13.42-.6,20.04-1.48ZM85.39,212.4c-.1.15-.13.35-.04.55.71,1.55,1.31,3.14,2.14,4.63.1.18.22.39.36.61-1.32-.22-2.63-.47-3.95-.74,0-.18-.1-.37-.34-.47-3.27-1.37-6.04-3.12-7.87-5.86,3.22.51,6.45.93,9.69,1.27ZM74.62,210.95c1.04,2.22,2.63,4.19,4.66,5.49-3.8-.92-7.56-2.01-11.25-3.31-.06-.05-.12-.09-.17-.15-1.16-1.09-1.89-2.45-2.44-3.89,3.04.73,6.11,1.34,9.2,1.86ZM49.97,204.1c4.59,1.93,9.34,3.45,14.17,4.67.22,1.22.7,2.39,1.42,3.46-6.82-2.58-13.36-5.84-19.33-9.86,1.28.64,2.53,1.22,3.74,1.72ZM90.04,218.54s-.02-.02-.03-.03c-.64-.54-1.1-1.26-1.54-1.96-.8-1.29-1.39-2.7-2.09-4.05,2.02.2,4.04.38,6.05.53,1.69.13,3.39.23,5.09.32-.09,1.85-.21,4.17.32,6.13-2.59-.24-5.19-.55-7.8-.94ZM106.07,219.99c-2.23-.07-4.48-.2-6.74-.38-.25-.49-.47-.99-.63-1.55-.42-1.51-.49-3.12-.56-4.69,3.8.18,7.62.24,11.44.2.42,1.1.68,2.23.95,3.38.25,1.09.46,2.27,1.21,3.11-1.89.01-3.78,0-5.66-.07ZM149.46,214.1c-3.22,1.09-6.5,2-9.81,2.78.05-.59.11-1.18.21-1.76.29-1.6.81-3.16,1.42-4.66,7.28-1.31,14.67-3.06,21.74-5.49-.28.49-.56.99-.82,1.49-.26.48.5.91.73.42.36-.77.72-1.53,1.13-2.27,4.21-1.5,8.29-3.25,12.15-5.3-2.46,2.16-5.01,4.21-7.89,6.03-5.88,3.73-12.29,6.54-18.87,8.76Z"/>
  <path class="st0" d="M157.67,207.69c-2.42,1.15-4.84,2.37-6.19,4.8-.22.4.4.75.61.35,1.21-2.37,3.53-3.6,5.8-4.79.24-.13.03-.48-.21-.36Z"/>
  <path class="st0" d="M80.54,203.23c7.72,1.97,15.89,2.71,23.81,3.35,8.37.68,16.25.41,24.46-1.61,5.59-1.37,11.04-3.31,16.43-5.31,4.28-1.58,9.45-2.79,13.04-5.69.49-.4.08-1.21-.5-1.2-4.12.08-8.23,2.3-12.07,3.67-5,1.79-10.05,3.43-15.18,4.8-8.11,2.16-16.18,2.83-24.52,2.5-7.7-.3-15.41-1.01-23.01-2.27-6.05-1-13.7-1.59-18.58-5.76-.2-.18-.49.1-.3.3,4.1,4.23,10.94,5.81,16.43,7.2Z"/>
  <path class="st0" d="M149.16,185.68c1.51,1.73,2.12,3.81,3.34,5.68.31.48,1.02.28,1.04-.28.25-5.19-5.6-8.98-10.08-9.86-.35-.07-.49.42-.15.54,2.31.8,4.24,2.08,5.84,3.92Z"/>
  <path class="st0" d="M66.65,183.61c-2.66-.11-8.81-.69-10,2.57-.11.31.23.6.52.52,1.46-.39,2.56-1.52,4.08-1.95,1.74-.48,3.61-.5,5.4-.58.36-.02.36-.55,0-.56Z"/>
</svg>