<?xml version="1.0" encoding="UTF-8"?>
<svg id="Layer_1" xmlns="http://www.w3.org/2000/svg" version="1.1" viewBox="0 0 183.33 244.44">
  <!-- Generator: Adobe Illustrator 29.1.0, SVG Export Plug-In . SVG Version: 2.1.0 Build 142)  -->
  <defs>
    <style>
      .st0 {
        fill: #9c3a30;
      }
    </style>
  </defs>
  <path class="st0" d="M158.97,135.58c2.68,2.34,6.69-1.38,4.03-3.77-1.15-1.14-2.31-2.27-3.47-3.39-1.04-1.08-2.06-2.18-3.08-3.28,1.14-1.19,1.49-3.12.05-4.49-.82-.78-1.61-1.58-2.38-2.4-.07-.23-.18-.47-.37-.71-2.05-2.56-4.19-5.04-6.38-7.48-2.76-3.7-5.34-7.52-7.96-11.2-5.23-7.33-10.41-14.86-16.91-21.29-3.06-3.03-6.46-5.86-9.97-8.58-.01-.47-.18-.97-.57-1.44-.72-.86-1.48-1.67-2.28-2.45-5.77-8.03-12.28-16.16-21.73-19.2-.57-.54-1.14-1.07-1.71-1.61,1.41-1.38-.8-3.45-2.34-2.23-.18-.17-.36-.34-.54-.52,0,0-.02-.01-.03-.02.47-.73-.49-1.64-1.21-.97-.09.09-.18.17-.27.26-.14-.01-.28-.01-.42,0-.25-.57-1.12-.94-1.8-.43-6.28,4.62-11.39,10.43-15.9,16.72-.09.1-.19.19-.28.29-5.83,6.41-10.27,14.27-14.59,21.69,0-2.84.1-5.67.25-8.52.04-.71.09-1.42.13-2.13,1.06-.8,1.02-2.29.18-3.01.07-1.17.15-2.35.2-3.52.12-2.69.56-5.6-.5-8.15-.19-.47-.61-.68-1.02-.66-2.93-.66-6.19,1.45-8.55,2.91-1.65,1.03-3.28,2.09-4.95,3.09-.48.29-.96.55-1.45.81-.28-.47-.89-.76-1.46-.59-3,.92-3.04,6.67-3.31,9.05-.67,5.75-.59,11.6-.36,17.37.24,5.94.88,11.82,1.96,17.68.35,1.9.7,3.91,1.23,5.87-2.08,3.56-4.07,7.16-5.93,10.82-.37-.06-.8.09-.87.48-.11.63-.21,1.27-.31,1.9-2.65,5.44-5.01,11.01-6.89,16.81-1.01,3.13,2.94,4.86,5.24,3.5-.15,8.61.22,17.25.5,25.8.27,8.18.51,16.36.64,24.54.05,3.51-.36,8.43.91,11.76.65,1.7,1.38,3.3,3.6,2.92.89-.15,1.49-.91,1.77-1.66,2.39-6.37,1.06-14.58.81-21.23-.27-7.26-.62-14.52-.96-21.77-.43-9.21-.87-18.48-1.82-27.69.91-1.52,1.63-3.12,2.2-4.42.42-.96.84-1.94,1.25-2.95,7.65.28,15.49-.46,23.05-.62,10.11-.21,20.2-.64,30.3-.91,20.61-.55,41.36-.12,61.94-1.16.93,12.87,3.86,25.66,5.78,38.42,2.06,13.69,3.48,27.56,3.78,41.38-.45-.55-1.16-.94-2.13-.94-13.52.05-27.05.77-40.54,1.89-.03-1.82-.91-3.43-1.39-5.28-.95-3.67-1.31-7.46-1.62-11.22-.59-7.16-.57-14.34-.7-21.51-.02-.89-.8-1.7-1.8-1.68-5.06.14-10.08.85-15.11,1.34-4.15.41-10.52,1.55-14.42-.32-.78-.37-1.72.62-.98,1.19.24.18.48.34.73.5-.61.03-1.28.48-1.37,1.12-1,6.99-.29,14.09.11,21.11.2,3.49.48,6.98.71,10.46.17,2.6-.04,5.39.39,8-7.98.93-15.97,1.81-23.99,2.37-9.89.69-19.18-.68-28.96-1.4-.45-.03-.49.5-.2.7,7.19,5.15,18.08,5.17,26.73,5.27,10.5.12,20.9-1.2,31.3-2.41,23.55-2.75,47.37-4.83,71.12-4.84,1.29,0,2.12-.67,2.5-1.54,1.06,1.74,4.51,1.38,4.53-1.11.12-14.01-1.21-27.86-3.35-41.71-1.96-12.64-4.16-25.6-8.28-37.84,3.05,2.85,6.35,5.47,9.5,8.22ZM106.9,190.58c.33,3.76.83,7.53,1.72,11.21.39,1.59.75,3.4,1.8,4.64-.52.05-1.05.1-1.57.14-.29-2.2-1.13-4.41-1.67-6.51-.88-3.37-1.8-6.74-2.63-10.12-1.62-6.51-2.46-13.21-3.11-19.87,1.59-.1,3.18-.19,4.77-.22-.09,6.92.09,13.83.69,20.73ZM104.76,206.19c-5.83-11.37-6.73-23.5-7.78-35.8,1.2-.09,2.41-.18,3.61-.27-1.04,6.01-.4,11.88.63,17.96.66,3.87,1.52,7.72,2.58,11.51.64,2.3,1.1,4.93,2.04,7.26-.31.03-.62.06-.93.09.02-.24-.02-.49-.16-.75ZM95.72,170.48c-2.31,12.05.56,25.92,6.16,36.75-2.33.23-4.66.48-6.99.73-.33-1.95-1.02-3.89-1.47-5.77-.86-3.62-1.37-7.32-1.76-11.01-.72-6.71-.08-13.74-1.59-20.34,1.89-.07,3.77-.2,5.65-.34ZM82.74,209.33c.24-2.46-.12-5.04-.25-7.45-.18-3.5-.48-6.98-.88-10.46-.82-7.14-1.26-14.31-2.35-21.41-.02-.13-.06-.23-.11-.33,1.13.54,2.35.86,3.62,1.04.91,1.64,1.1,4.01,1.44,5.75.71,3.61.79,7.3,1.06,10.95.48,6.49.55,13,.55,19.51,0,1.79,2.96,1.79,2.96,0,0-7.05-.05-14.12-.68-21.15-.32-3.51-.92-7.07-1.83-10.49-.42-1.58-1.08-3.37-2.45-4.45,1.77.15,3.59.09,5.31.03-1.58,6.93-.84,14.6-.34,21.59.25,3.54.74,7.07,1.39,10.57.32,1.76.67,3.61,1.33,5.3-2.48.27-4.96.56-7.43.85-.45.05-.9.11-1.34.16ZM39.29,59.95c2.08-1.01,5.01-1.96,7.24-3.35-.11,1.32-.05,2.67-.09,4.02-.04,1.62-.06,3.24-.08,4.87-2.93.97-5.57,2.42-8.25,3.95-1.71.98-3.4,1.99-5.12,2.95-.65.37-1.17.74-1.66,1.13.06-1.07.11-2.14.2-3.2.16-2.02.43-4.03.88-6.02.12-.53.34-1.08.55-1.64.25-.06.55-.15.92-.3,1.85-.74,3.63-1.56,5.41-2.42ZM32.62,103.09c-.72-5.47-1.04-11.02-1.29-16.52-.16-3.47-.19-6.95-.1-10.43.45.02.88.01,1.32-.17,1.79-.76,3.53-1.58,5.27-2.43,2.8-1.37,5.63-2.64,8.51-3.82-.01,4.32.1,8.63.49,12.93-2.52,4.37-4.96,8.78-7.36,13.21-2.18,3.44-4.33,6.89-6.42,10.37-.16-1.06-.28-2.11-.42-3.12ZM86.15,121.21c-10.1.42-20.22.84-30.29,1.74-7.22.65-14.9.91-22.25,2.06,2.97-4.12,5.06-9.11,7.24-13.16,4.53-8.43,8.86-16.96,13.37-25.41,3.5-6.55,7.18-13.03,11.29-19.27,4.84-6.34,10.01-12.46,15.7-18.11,2.33,2.56,5.02,4.74,7.86,6.76,1.5,2.19,3.22,4.27,4.98,6.27,6.18,6.98,13.88,12.56,20.58,19.09,10.3,10.04,16.46,23.59,25.88,34.31.05,1.67.93,3.29,2.11,4.79-18.75-.7-37.77.16-56.47.93Z"/>
  <path class="st0" d="M27.44,38.78c2.97.3,5.31,2.33,8.27,2.87-1.02,2.92-2.88,4.35-6.09,5.47-.56.2-.34,1.02.25.85,3.97-1.18,6.21-2.93,7.49-6.71.16-.46-.26-.82-.71-.87-2.74-.3-4.79-2.07-7.22-2.97,4.87-4,10.32-7.38,15.84-10.51,1.05-.6.36-2.33-.86-1.91-1.9.65-3.99.45-6.04.23,3.23-2.74,5.18-6.2,8.25-9.27.95-.95-.57-2.37-1.52-1.42-3.58,3.56-5.61,7.85-10.16,10.59-.93.56-.55,1.88.56,1.92,1.52.05,3.07.29,4.6.4-4.78,2.85-9.38,5.95-13.36,9.76-.65.62-.13,1.49.7,1.57Z"/>
  <path class="st0" d="M80.84,68.89c.12-.64.22-1.29.29-1.96.08-.8-1.24-.92-1.45-.19-2.14,7.14-6.89,13.34-11.25,19.42-3.42,4.76-9.09,11.72-8.14,17.81.23,1.46,2.51,1.52,3.2.39.46-.76.84-1.57,1.18-2.4,6.12.19,12.12-.34,18.26-1.02,7.05-.78,14.25-.49,21.23-1.37,1.68-.21,2.19-1.4,1.94-2.58,1.37-.3,2.54-1.69,1.61-3.15-6.24-9.72-16.12-19.48-26.86-24.96ZM98.46,94.35c-.27-.41-.55-.83-.81-1.27-.41-.7-.78-1.42-1.13-2.16.17,0,.34-.1.34-.3v-3.78c2.16,2.38,4.17,4.88,5.93,7.61-1.41-.12-2.85-.15-4.32-.09ZM96.18,86.11v4.11c-.55-1.2-1.05-2.43-1.56-3.63-.62-1.47-1.32-2.91-2.12-4.29,1.25,1.25,2.48,2.52,3.68,3.81ZM82.3,96.62c-5.72.95-11.33,2.19-16.95,3.52.59-1.69,1.13-3.42,1.91-4.98,1.13-2.27,2.45-4.44,3.82-6.59.24,2.92.89,5.77,1.63,8.73.23.95,1.83.54,1.56-.4-.89-3.12-1.81-6.3-2.43-9.5.48-.74.96-1.48,1.43-2.23.54-.84,1.08-1.68,1.6-2.53.15,4.69,1.59,9.53,4.87,12.92.74.76,1.98-.21,1.48-1.07-2.78-4.74-4.91-8.95-4.95-14.18,1.91-3.3,3.51-6.67,4.36-10.35,2.26,2.72,4.72,5.26,7.23,7.75,0,.09.02.19.08.28,2.4,3.43,3.58,7.41,5.11,11.22.65,1.6,1.31,3.62,2.29,5.36-2.48.24-4.97.64-7.41,1.07.37-.25.56-.7.24-1.18-4.28-6.56-6.02-13.67-7.45-21.14-.07-.35-.7-.27-.66.08.87,7.61,1.75,15.48,6.37,22.01.15.21.34.33.55.39-1.6.28-3.17.57-4.69.82Z"/>
  <path class="st0" d="M40.3,159.19c.29,3.85,2.11,7.98,4.15,11.31,3.8,6.19,12.59,5.54,19.14,6.44,2.29.31,3.93-1.51,2.91-3.55-5.1-10.23,1.13-21.5.21-32.16-.14-1.7-1.97-2.88-3.67-1.97-5.66,3.02-12.29,3.7-18.3,1.14-2.58-1.1-4.86,2.19-2.8,3.57-.67,5.09-2.03,10.03-1.65,15.21ZM45.06,145.21c5.58,1.74,11.4,1.54,16.85-.43-.27,9.17-3.78,17.99-1.39,26.94-2.12-.25-4.25-.5-6.35-.84-2.28-.36-4.04-.91-5.36-2.76-5-7.02-3.7-14.99-3.75-22.91Z"/>
  <path class="st0" d="M115.22,165.97c-.63,1.32.06,3.51,2.02,3.29,7.68-.82,15.3-1.03,23.03-1.04,1.23,0,2.46-1.01,2.38-2.22-.51-7.63-.08-16.4-4.1-23.33-4.39-7.56-14.4-6.35-21.78-4.16-2.22.66-1.31,3.83.97,3.28.81-.2,1.66-.39,2.52-.56-1.96,2.17-2.21,5.82-2.56,8.45-.71,5.35-.09,11.25-2.47,16.29ZM121.67,140.97c5.46-.91,11.26-.69,13.69,4.83,2.41,5.46,2.21,12.01,2.42,17.97-5.79-.03-11.67-.05-17.41.64,1.39-7.71-1.42-16.03,1.3-23.44Z"/>
</svg>