<?xml version="1.0" encoding="UTF-8"?>
<svg id="Layer_1" xmlns="http://www.w3.org/2000/svg" version="1.1" viewBox="0 0 199.6 237.35">
  <!-- Generator: Adobe Illustrator 29.1.0, SVG Export Plug-In . SVG Version: 2.1.0 Build 142)  -->
  <defs>
    <style>
      .st0 {
        fill: #9c3a30;
      }
    </style>
  </defs>
  <path class="st0" d="M77.77,195.27c-3.65-5.58-8.55-10.21-13.05-15.1-3.4-3.7-7.91-8.3-9.55-13.35.11-.07.23-.14.34-.23,14.95-12.53,28.03-26.95,41.86-40.63.71.37,1.64.23,1.99-.78.23-.65.47-1.28.74-1.9.1-.1.21-.2.31-.31.13-.13.1-.29,0-.39.11-.23.23-.47.35-.69.63-.27,1.24-.56,1.83-.89.14-.08.05-.3-.1-.24-.46.2-.92.37-1.38.52,1.63-2.77,3.96-4.81,7.62-5.1,4.68-.37,9.71,1.85,13.93,3.57,10.1,4.11,20.5,10.05,31.79,8.93,7.35-.73,14.77-5.2,20.21-9.95,6.22-5.43,10.52-12.79,13.11-20.56,5.18-15.53,3.14-33.5-4.71-47.77-11.16-20.27-33.78-30.61-56.45-27.61-19.42,2.57-38.1,16.2-39.35,36.96-.56,9.38,2.63,18.57,7.17,26.66-1.31,1.74-2.66,3.44-4.03,5.13-.13.02-.26.05-.39.15-14.41,10.14-27.78,21.44-41.24,32.79-6.65,5.6-13.11,11.43-19.71,17.08-3.53,3.02-7.08,6.01-10.65,8.97-3.32,2.76-6.52,5.44-7.55,9.77-.04.17-.05.34-.05.49-.22.56-.41,1.12-.57,1.71-.26.93-1.26,1.57-1.23,2.62.04,1.85.22,3.61.67,5.42,1.04,4.19,3.65,7.99,6.3,11.32,2.63,3.32,5.81,6.23,9.09,8.89,1.81,1.47,3.72,2.96,5.78,3.49,2.71,3.01,5.65,5.72,8.54,8.59,3.03,3.01,5.64,7.13,9.17,9.51.4.27.84.36,1.25.31-.3,1.4.93,3.05,2.49,2.16,8.84-5.06,18.13-9.37,25.23-16.89.77-.81.87-1.7.25-2.65ZM134.84,119.61c2.13.84,4.28,1.63,6.45,2.38-2.17-.67-4.33-1.5-6.45-2.38ZM14.68,165.71c-.33-1.4-.95-2.36-1.15-3.61,3.43-.48,5.97-2.43,8.72-4.67,3.6-2.93,6.98-6.17,10.43-9.28,6.47-5.83,12.85-11.76,19.24-17.68,10.76-9.97,21.25-20.25,31.77-30.49-.15,1.27,1.3,2.7,2.56,1.94,5.52-3.37,9.34-8.75,13.13-13.88.47-.63.65-1.72.23-2.43-3.22-5.51-5.82-11.57-6.9-17.82.67-1.9,1.36-3.79,2.22-5.62,1.94-4.1,4.66-7.8,7.64-11.2,2.77-3.17,5.93-5.99,9.28-8.57-4.37,4.2-7.56,9.56-9.05,16.25-.1.43.63.59.75.17,1.87-6.4,4.41-12.07,9.22-16.81.61-.6,1.25-1.16,1.9-1.7,1.48-1.05,2.99-2.06,4.51-3.04,3.39-1.9,7.09-3.29,10.77-4.39.16-.05.12-.3-.04-.26-2.86.8-5.6,1.81-8.17,3.04.61-.38,1.23-.75,1.85-1.12.35-.21.1-.8-.27-.59-7.89,4.48-15.42,9.55-21.72,16.14-3.5,3.66-7.08,8.37-9.38,13.43-.19-3.56.18-7.15,1.25-10.72,2.77-9.15,9.97-16.07,18.34-20.28,19.24-9.69,44.16-5.64,59.06,9.92,6.51,6.79,10.79,15.28,12.88,24.32-.38-.06-.82.15-.87.61-.46,4.39-.55,8.69-1.46,13.04-1.11,5.33-3.08,10.5-5.68,15.27-4.62,8.5-12.09,15.69-21.86,17.4-.08.01-.06.14.02.13,9.91-1.13,17.39-7.57,22.46-15.83,4.57-7.45,8.23-17.8,8.11-26.96.8,4.81,1,9.73.6,14.6-1.39,17.14-12.17,34.16-29.76,38.17-1.19.27-2.4.41-3.61.46-4.64-1.63-9.43-2.9-14.08-4.41-6.62-2.15-13.11-4.65-19.4-7.63-.31-.14-.47.34-.18.49,2.12,1.08,4.29,2.13,6.49,3.15-.28-.11-.56-.22-.84-.33-5.17-1.98-11.36-3.86-16.65-2.74-4.88-1.13-10.06-1.1-14.66.87-.77.33-.23,1.53.53,1.19,3.73-1.68,7.91-1.98,11.97-1.4-2.18.88-4.14,2.4-5.73,4.81-.92,1.4-1.57,2.96-2.07,4.56-5.25.69-10.7-.2-15.95.51-.38.05-.44.63-.07.75,2.77.91,5.77.69,8.66.61,2.33-.07,4.74-.32,7.07-.86-.09.32-.18.65-.26.97-.09.35-.06.67.04.95-1.57,1.16-3.11,2.35-4.64,3.55-2.43.51-4.93.7-7.38.94-2.61.26-6.18-.2-8.52,1.03-.33.17-.38.72.03.84,2.59.76,6.05-.26,8.7-.6,2.05-.26,4.05-.66,6-1.29-5.09,4.05-9.98,8.3-14.86,12.74-7.7,7-15.36,14.06-23.39,20.67-.55.45-.79.99-.83,1.53-3.16,2.32-6.28,4.69-9.39,7.1-4.91,3.8-10.13,7.54-14.59,11.88-1.21-.97-2.4-1.97-3.54-3.03,1.66.31,3.34.56,4.98,1.07.13.04.26-.16.12-.23-2.16-1.15-4.46-1.85-6.78-2.49-2.46-2.55-4.58-5.39-6.12-8.58-.71-1.47-1.33-2.94-1.7-4.53ZM51.5,210.95c.03-.29-.02-.6-.16-.91-1.62-3.63-5.36-6.49-8.25-9.14-2.7-2.47-5.4-4.84-8.3-6.99.09-.04.18-.08.28-.12.59-.3.91-.87.83-1.53-.39-3.09-2.1-4.22-4.33-5.83,4.76-3.44,9.14-7.57,13.53-11.43,2.85-2.51,5.66-5.03,8.44-7.59.74,4.7,3.81,8.73,6.76,12.42,4.43,5.55,9.52,10.61,13.59,16.44-6.49,6.32-14.56,10.25-22.39,14.69Z"/>
  <path class="st0" d="M112.24,71.36c1.1-3.13,1.59-6.43,2.74-9.49-.1.28-.19.56-.27.83-1.74,5.57-1.57,11.8.04,17.37,1.96,6.76,6.98,12.2,12.37,16.53,10.9,8.75,25.33,9.03,34.75-1.85,7.43-8.6,11.87-22.12,7.02-32.91-5.85-13.04-22.45-18.06-35.65-16.88-6.57.59-13.29,3.09-17.99,7.82-4.65,4.69-7.81,12.41-4.45,18.63.31.58,1.2.64,1.44-.05ZM138.58,56.22c-3.59-2.81-7.76-5.1-12.25-4.82.49-.18.99-.34,1.48-.48,9.22-2.71,20.07-1.2,28.25,3.8,9.21,5.63,12.11,15.45,8.64,25.49-2.36,6.84-6.64,14.02-13.38,17.2-6.46,3.06-13.82.84-19.51-2.82-9.57-6.15-15.71-16.31-14.76-27.78.37-4.44,1.99-9.13,5.62-11.92,4.7-3.6,11.01-.47,15.15,2.39.69.48,1.4-.55.75-1.06Z"/>
  <path class="st0" d="M65.51,193.84c.67.64,1.6-.13,1.1-.91-2.23-3.51-5.37-6.59-8.08-9.76-3.05-3.57-6.1-7.13-9.15-10.7-.38-.45-1.07.12-.7.58,2.63,3.3,5.27,6.6,7.9,9.91,2.88,3.61,5.57,7.71,8.93,10.88Z"/>
  <path class="st0" d="M61.73,201.06c-4.61-7.86-11.54-13.69-14.67-22.54-.34-.96-1.73-.3-1.42.64,2.68,8.24,8.55,17.08,15.03,22.78.52.46,1.41-.28,1.06-.88Z"/>
  <path class="st0" d="M49.03,199.73c-1.62-2.45-4.05-4.29-5.8-6.71-1.72-2.37-3.33-5.61-3.57-8.55-.02-.23-.35-.19-.39.01-.94,5.83,3.75,13.89,9.03,16.27.65.29,1.04-.54.72-1.02Z"/>
  <path class="st0" d="M56.61,134.03c9.8-9.45,20.18-18.3,30.52-27.15.19-.16-.05-.46-.25-.3-10.65,8.48-21.28,16.97-31.44,26.03-5.28,4.7-10.32,9.65-15.18,14.78-4.2,4.43-9.41,9.17-12.02,14.75-.31.67.6,1.22,1.13.8,4.79-3.84,8.4-9.49,12.54-14.02,4.7-5.15,9.68-10.05,14.7-14.89Z"/>
  <path class="st0" d="M93.16,109.53c.13-.11-.03-.3-.17-.2-7.89,6.23-16.19,11.92-24.06,18.18-7.3,5.8-14.87,12.48-19.07,20.95-.24.47.5.82.8.42,11.53-15.9,27.73-26.76,42.5-39.34Z"/>
  <path class="st0" d="M31.37,157.06c.16-.19.11-.39-.03-.52-.1-.16-.29-.25-.5-.13-2.17,1.25-4.1,3.14-6.06,4.7-2.24,1.78-5.85,3.75-7.35,6.26-.27.45.14.95.64.77,2.75-1,5.37-4.16,7.54-6.03,1.89-1.63,4.12-3.16,5.76-5.06Z"/>
  <path class="st0" d="M110.42,97.17c-5.19-8.37-12.8-19.58-4.82-28.66.17-.19-.15-.41-.32-.22-8.21,9.12-.76,20.62,4.43,29.21.26.43.97.1.71-.32Z"/>
  <path class="st0" d="M135.11,108.11c-5.74-1.5-10.19-5.88-13.09-10.88-.25-.43-.94-.14-.71.32,2.79,5.73,7.04,10.23,13.2,12.21,5.84,1.88,13.32.91,18.38-2.55.72-.49-.04-1.43-.75-1.2-5.8,1.87-10.89,3.71-17.04,2.1Z"/>
  <path class="st0" d="M150.62,38.5c-.46-.12-.91.54-.42.8,4.49,2.38,9.03,4.21,13.03,7.44,4.72,3.8,7.55,9.18,7.72,15.25.02.66,1.05.77,1.03.1-.23-11.68-10.55-20.78-21.37-23.59Z"/>
  <path class="st0" d="M174.31,51.99c.24.34.74-.07.5-.41-8.69-12.61-26.08-17.61-40.64-18.82-.43-.04-.61.64-.17.75,14.66,3.65,30.8,5.1,40.32,18.48Z"/>
  <path class="st0" d="M150.05,43.24c.16,0,.19-.25.03-.26-14.54-.45-35.09-.74-41.92,15.02-.2.47.51.7.73.27,7.64-14.75,26.7-15.1,41.16-15.03Z"/>
  <path class="st0" d="M114.57,103.38c12.23,7.6,27.25,10.02,41.21,12.49.51.09.69-.73.2-.88-13.75-4.12-28.35-4.77-40.96-12.26-.43-.25-.88.37-.45.64Z"/>
  <path class="st0" d="M62.76,138.57c6.07,1.6,11.84-.16,17.28-2.92.04-.02.01-.08-.03-.06-5.58,2.29-11.32,1.73-17.18,2.23-.38.03-.45.65-.07.75Z"/>
  <path class="st0" d="M68.6,144.69c-4.71-.68-10.6-1.32-15.04.73-.33.15-.28.74.12.74,4.95.04,9.88-.83,14.84-.69.5.01.57-.7.07-.78Z"/>
  <path class="st0" d="M58.19,153.2c-3.91.82-7.91,1.09-11.82,1.91-.66.14-.48,1.18.17,1.02,3.89-.9,7.89-1.26,11.78-2.17.49-.11.37-.87-.13-.77Z"/>
  <path class="st0" d="M35.35,161.35c2.33.39,4.8-.08,7.14-.21,2.6-.15,5.2-.32,7.79-.68.34-.05.24-.53-.08-.51-2.86.15-5.71.08-8.58,0-2.15-.06-4.36-.23-6.4.53-.46.17-.27.8.14.87Z"/>
  <path class="st0" d="M36.73,168.95c-4.58-.42-10-.26-14.1,2-.37.2-.24.83.22.74,4.67-.93,8.95-2.05,13.78-1.71.67.05.77-.97.1-1.03Z"/>
</svg>