<?xml version="1.0" encoding="UTF-8"?>
<svg id="Layer_1" xmlns="http://www.w3.org/2000/svg" version="1.1" viewBox="0 0 244.78 247.68">
  <!-- Generator: Adobe Illustrator 29.1.0, SVG Export Plug-In . SVG Version: 2.1.0 Build 142)  -->
  <defs>
    <style>
      .st0 {
        font-family: Barrio-Regular, Barrio;
        font-size: 80px;
      }

      .st0, .st1 {
        fill: #9c3a30;
      }
    </style>
  </defs>
  <path class="st1" d="M226.88,77.44c-9.67-22.01-27.47-37.35-49.45-46.41-21.34-8.8-45.2-9.14-67.59-4.94-19.13,3.58-37.9,8.9-55.64,16.99-17.44,7.95-33.66,20.08-41,38.3-7.58,18.79.1,36.24,12.94,50.33,8.83,9.69,20.16,17.82,32.33,22.74,7.79,3.15,18.66,6.09,26.3,1.64-1.44,1.96-2.57,4.22-3.81,6.31-3.67,6.17-7.26,12.39-10.77,18.66-6.7,12.01-13.57,24.49-17.65,37.7-.01,0-.02.02-.03.02-2.8,2.28.84,6.88,3.82,4.96,12.39-7.99,24.57-16.31,37.04-24.19,12.15-7.68,24.84-14.25,37.24-21.45,4.61.96,9.7,0,14.21-.9,2.64-.53,5.24-1.22,7.82-1.97,1.08-.1,2.15-.2,3.22-.29,9.58-.83,19.11-2.95,28.27-5.84,17.17-5.4,33.92-15.42,43.38-31.14,11.16-18.56,7.68-41.6-.63-60.5ZM167.1,164.21c-5.71.2-11.22,1.97-16.91,3.11-6.22,1.24-12.76,1.74-19,3.04-1.13-.61-2.55-.77-4.03-.14-13.31,5.72-25.85,14.34-37.95,22.21-9.54,6.21-18.94,12.66-28.01,19.54,4.21-9.52,9.63-18.62,14.8-27.51,3.42-5.9,6.97-11.73,10.55-17.53.26-.41.52-.83.77-1.24.48-.16.93-.5,1.29-1.08,2.23-3.61,4.26-7.28,5.66-11.23.18-.3.34-.6.52-.89.28-.47.33-.97.21-1.43.12-.44.25-.88.36-1.33.29-1.25-.37-2.57-1.66-2.91-2.54-.69-4.95-.6-7.46.03-.33,0-.67.05-1.03.16-16.69,5.08-33.84-5.78-45.84-16.45-6.93-6.16-13.45-13.66-16.78-22.43-2.99-7.89-1.74-16.82,1.71-24.38,7.86-17.22,26.81-26.84,43.69-33.04,17.82-6.55,37.69-10.78,56.63-12.18,22.08-1.63,44.62,3.22,63.09,15.66,17.78,11.97,30.9,33.29,32.72,54.73,2.62,30.79-25.96,46.98-53.33,55.32Z"/>
  <text class="st0" transform="translate(63.9 132.59)"><tspan x="0" y="0">FAQ</tspan></text>
</svg>