<?xml version="1.0" encoding="UTF-8"?>
<svg id="Layer_1" xmlns="http://www.w3.org/2000/svg" version="1.1" viewBox="0 0 199.6 237.35">
  <!-- Generator: Adobe Illustrator 29.1.0, SVG Export Plug-In . SVG Version: 2.1.0 Build 142)  -->
  <defs>
    <style>
      .st0 {
        fill: #9c3a30;
      }
    </style>
  </defs>
  <path class="st0" d="M154.4,41.56c-6.28-7.5-14.24-13.2-23.67-16.89-7.16-2.8-15.67-5.63-23.83-5.72-23.81-5.68-47.43,8.44-62.08,25.01-4.87,5.51-8.61,11.64-11.4,18.15-.09.07-.18.14-.28.21-.06.04,0,.14.06.1.04-.03.08-.06.12-.09-4.42,10.44-6.38,21.82-6.49,33.16-.04.14-.05.28,0,.41-.04,5.72.39,11.42,1.2,16.97.93,6.37,2.38,12.54,4.26,18.56-.16.35,0,.67.28.87,4.49,14,11.41,27.1,20.13,39.49.03.12.11.23.22.31,1.16,1.63,2.33,3.26,3.55,4.87,2.46,3.26,5.07,6.44,7.82,9.52.04.09.1.16.19.22,4.87,5.41,10.2,10.46,16.1,14.87,1.17.88,2.38,1.7,3.6,2.49.03.04.06.09.1.13-.54.01-1.08.02-1.62.02-.97,0-1.18,1.34-.23,1.58,2.29.58,4.61.96,6.95,1.25,1.06.54,2.14,1.04,3.24,1.52-2.37-.19-4.74-.42-7.11-.56-2.11-.29-4.18-.65-6.21-1.05-.62-.12-1.2.41-1.01.96-3.2.17-6.36.67-9.44,1.81-.68.25-.67,1.36.19,1.29,3.82-.31,7.64-.41,11.47-.43,4.48,4.05,10.93,3.6,17.59,2.72-10.92,3.53-22.1,5.19-33.88,1.71-.95-.28-1.32,1.06-.41,1.37,17.36,5.91,37.22,3.18,54.19-2.64.61-.21.85-1.03.19-1.36-2.76-1.37-6.1-1.64-9.66-1.46,1.06-.43,2.11-.86,3.17-1.31.26-.11.36-.28.37-.46.07-.01.13-.02.2-.04.79-.17.83-1.37,0-1.52-2.67-.47-5.35-.75-8.05-.96.16-.41.03-.92-.55-1.07-.72-.19-1.44-.34-2.16-.48,5.57-5.16,12.29-9.48,18.01-14.35,8.96-7.65,16.99-16.87,24.61-25.67,15.16-17.5,25.71-39.63,28.21-62.04,2.29-20.5-4.18-45.05-17.95-61.47ZM76.08,209.34c.98-.13,1.97-.22,2.96-.29.06.08.12.16.18.23-1.05.01-2.1.03-3.15.06ZM102.26,199.49c-4.17,1.46-8.26,2.77-12.51,3.91-.61-.35-1.21-.69-1.82-1.04-.4-.24-.8-.49-1.19-.73,5.37-10.15,13.17-18.89,21.11-27.42,8.25-8.86,16.08-17.73,23.5-27.2,12.99-16.59,29.75-31.66,37.34-51.19,0,4.2-.31,8.35-.92,12.38-.2,1.29-.43,2.59-.69,3.87-10.29,12.53-19.97,25.41-29.37,38.54-11.11,15.51-23.34,30.92-33.2,47.14-.76.58-1.51,1.16-2.25,1.75ZM168.67,94.54c-8.61,20.06-26.22,35.98-39.74,53.18-13.92,17.71-33.02,33.17-43.53,53.03-1.38-.92-2.71-1.89-4-2.91,4.86-9.86,14.23-17.63,22.23-25.27,8.14-7.78,15.36-16.14,21.95-25.09,7.49-10.17,14.57-20.57,22.26-30.61,7.09-9.27,14.32-18.46,20.56-28.25.16,1.98.24,3.95.26,5.92ZM61.78,177.89c12.1-15.95,28.44-28.42,41.9-43.3,4.49-.17,8.89-.77,13.11-1.79-9.32,6.46-16.5,15.35-23.99,23.51-8.55,9.32-18,17.75-26.29,27.27-1.63-1.86-3.21-3.76-4.73-5.7ZM114.13,129.09c-14.06,2.93-30.89,1.84-43.29-5.36-10.69-6.21-14.19-18.56-17.23-29.15-4.35-15.14.1-28.91,11.21-40.51,6.2-6.48,14.49-8.96,23.18-10.17,11.69.12,23.35,1.42,34.03,6.11,11.44,5.02,20.44,15,25.23,25.77,4.78,10.72,3.59,22.96-2.08,33.13-6.31,11.31-18.07,17.47-31.03,20.18ZM54.61,168.15c-1.35-1.94-2.64-3.91-3.88-5.9,7.14-12.29,21.83-19.25,31.24-29.92,3.37.87,6.85,1.46,10.37,1.83-11.86,12.06-24.62,23.38-37.07,34.91-.21-.31-.43-.61-.65-.92ZM47.22,156.37c4.54-11.38,16.85-18.31,24.28-28,2.97,1.55,6.14,2.75,9.44,3.67-9.82,9.96-23.95,16.61-31.25,28.52-.85-1.39-1.67-2.79-2.47-4.2ZM42.9,148.11c4.49-9.54,14.27-16.89,22.5-23.71,1.83,1.46,3.78,2.73,5.85,3.83-8.09,8.92-19.86,15.44-25.02,26.35-1.17-2.14-2.28-4.29-3.33-6.47ZM38.89,138.96c5.78-7.74,13.13-14.31,20.51-20.74.39.52.78,1.03,1.19,1.51,1.42,1.69,2.98,3.19,4.65,4.54-8.78,6.11-18.16,13.06-23.03,22.39-1.19-2.54-2.3-5.1-3.32-7.7ZM35.74,129.93c5.77-6.94,13.44-12.26,19.05-19.34,1.27,2.6,2.71,5.05,4.31,7.24-7.4,6.1-14.77,12.35-20.75,19.7-.95-2.51-1.82-5.04-2.61-7.6ZM31.94,113.83c-.05-.31-.09-.62-.14-.93,7.09-4.46,12.94-11.01,17.74-17.7.61,2.85,1.42,5.76,2.42,8.6-4.38,3.4-8.79,6.78-13.07,10.3-1.62,1.34-4.26,3.07-5.94,5.05-.37-1.76-.72-3.53-1.01-5.31ZM32.18,78.88c4.64-3.31,8.93-7.33,13.32-10.88,6.03-4.86,11.67-10.28,16.4-16.26.04-.05-.05-.11-.09-.07-5.1,5.8-11.16,10.58-17.21,15.48-3.8,3.07-8.31,6.02-11.94,9.47.54-2.38,1.19-4.72,1.94-7.04,22.71-17.58,47.05-32.95,71.14-48.83,1.37.25,2.74.52,4.12.82-8.89,6.72-16.27,14.28-26.61,19.29-.17.08-.14.36.06.4,4.71.78,9.88-3.82,13.27-6.3,5.48-4,10.25-8.73,15.59-12.87,3.95.96,7.86,2.16,11.65,3.6-4.65,2.53-9.34,5-13.91,7.65-2.78,1.61-5.45,3.37-8.05,5.21-.71.5-1.94,1.82-3.06,2.7-.82-.06-1.64-.12-2.45-.16,0-.02,0-.03-.01-.05,0-.07-.11-.07-.12,0,0,.01,0,.03,0,.04-2.85-.16-5.7-.22-8.54-.23-.86,0-1.36.5-1.52,1.1-7.52.65-14.57,2.71-21.06,7.67-7.8,5.96-13.25,14.66-15.6,23.88,0,0-.02,0-.02.01-5.72,6.83-11.8,13.37-18.87,18.98.19-4.58.72-9.13,1.6-13.62ZM49.19,74.76c-.82,3.67-1.17,7.4-.96,11.06,0,.05,0,.11.01.16-5.7,6.06-10.51,13.04-17.45,17.95-.23-3.24-.32-6.49-.24-9.75,7.16-5.64,13.08-12.4,18.64-19.43ZM30.88,105.36c7.07-5.02,11.82-12.12,17.44-18.43.19,2.46.56,5.06,1.11,7.72-5.05,6.35-10.99,12.02-17.84,16.71-.28-1.99-.53-3.99-.7-6ZM40.59,114.29c3.78-3.39,7.7-6.64,11.59-9.92.72,1.99,1.52,3.94,2.42,5.82-.03.01-.05,0-.07.03-6.29,6.05-13.55,11.29-19.37,17.74-.64-2.21-1.22-4.43-1.74-6.68,2.41-2.29,4.68-4.74,7.18-6.98ZM158.25,54.46c-4.44,3.34-7.25,8.41-11.27,12.21-.84-1.21-1.73-2.38-2.68-3.52,4.25-3.75,7.3-8.59,12.02-11.95.67,1.07,1.32,2.16,1.93,3.26ZM162.37,63.07c-3.55,4.17-6.61,8.67-10.57,12.52-.4-1.01-.86-2.01-1.34-2.99,2.48-4.11,5.75-7.87,9.27-11.21.48-.45-.27-1.14-.74-.69-3.56,3.38-6.55,7.22-8.74,11.47-.83-1.65-1.76-3.25-2.79-4.8,2.15-1.81,4.03-3.84,5.87-5.93,1.77-2.01,3.69-3.85,5.59-5.74,1.28,2.39,2.43,4.86,3.45,7.38ZM154.31,85.8c4.01-4.36,6.82-9.56,11.15-13.74.43,1.54.82,3.1,1.16,4.67-5.46,6.94-7.68,15.69-13.25,22.54.47-1.99.82-4.04,1.01-6.18.22-2.48.18-4.91-.07-7.29ZM165.21,71.24c-.16-.04-.33-.02-.48.12-4.18,4.1-6.93,9.22-10.5,13.74-.37-3.01-1.1-5.93-2.15-8.74,4.12-3.51,7.52-7.64,10.92-11.76.83,2.18,1.56,4.39,2.21,6.63ZM152.9,101.07c6.28-5.99,10.67-14.6,14.13-22.28.53,2.71.94,5.44,1.21,8.17-6.01,9.62-13,18.65-19.94,27.7-8.14,10.61-15.7,21.56-23.56,32.36-7.59,10.43-16.32,19.73-25.75,28.72-6.87,6.54-13.97,13.41-17.75,21.97-1.62-1.28-3.19-2.63-4.73-4,19.97-22.97,38.57-47.04,59.42-69.34,8.1-5.66,14.19-13.54,16.97-23.3ZM155.73,50.24c-2.56,1.73-4.6,3.93-6.58,6.22-1.76,2.04-3.63,4.15-5.08,6.41-1.69-2-3.54-3.88-5.53-5.65,3.12-1.31,5.59-3.27,7.92-5.62,1.35-1.36,2.62-2.79,3.97-4.15.64-.64,1.34-1.22,2-1.82.27.35.57.68.83,1.04.86,1.16,1.68,2.36,2.47,3.57ZM131.58,29.1c-3.42,2.68-7.07,5.11-10.73,7.53,3.83-2.33,7.73-4.59,11.28-7.25,1.86.96,3.68,1.98,5.44,3.08-.02,0-.04,0-.07.02-6.3,3.05-11.19,8.52-17.09,12.19-.5.31-.04,1.05.47.75,6.06-3.5,11.86-7.82,17.47-11.91.15-.11.22-.25.23-.39,2.81,1.83,5.45,3.86,7.9,6.09-.09,0-.19.01-.29.07-2.36,1.4-4.27,3.93-6.36,5.7-2.6,2.22-5.33,4.31-8.01,6.45-.4.32.18.84.58.54,2.52-1.88,5.07-3.72,7.57-5.63,2.25-1.73,5.74-3.85,6.94-6.39.05-.1.06-.2.04-.3,1.59,1.49,3.09,3.06,4.49,4.74-1.89,1.38-3.38,3.49-4.81,5.13-2.52,2.88-5.18,5.47-8.84,7.06-3.58-3.06-7.57-5.73-11.82-7.94,5.99-2.68,11.91-6.96,16.43-11.37.27-.26-.09-.73-.42-.51-5.66,3.74-10,8.67-16.19,11.78-4.57-2.36-9.45-4.17-14.42-5.37.32-.26.63-.52.95-.77-.35.25-.69.5-1.04.75-.4-.1-.8-.2-1.21-.29-3.32-.72-6.7-1.19-10.11-1.5,8.05-5.75,16.8-10.1,25.49-15.03,2.09.84,4.13,1.77,6.13,2.77ZM93.13,20.62c-10.38,5.47-21.6,11.08-31.12,17.79-7.86,5.55-14.6,12.32-21.91,18.46,1.57-2.82,3.33-5.56,5.33-8.19,3.56-4.67,7.87-9.05,12.72-12.92,6.2-3.95,13.25-6.41,19.68-10.39.36-.23.13-.87-.32-.7-1.93.73-3.89,1.54-5.86,2.41,8.91-4.49,18.75-7.22,28.71-7.28.02.06.06.1.14.11,1.22.16,2.43.34,3.65.54-23.56,15.56-48.12,30.2-69.36,48.5,1.3-3.87,2.91-7.64,4.87-11.27,7.26-5.59,14.04-11.66,21.39-17.2,10-7.54,23.23-11.06,32.71-19.1.45-.38-.13-1.04-.64-.77ZM55.92,170c12.62-11.64,25.28-23.16,36.73-35.81,1.72.18,3.45.3,5.17.38,1.73.08,3.46.1,5.17.05-14.27,13.82-30.12,26.36-42.2,41.97-1.68-2.17-3.29-4.37-4.87-6.6ZM67.13,184.29c7.98-9.04,17-17.11,25.17-25.99,8.17-8.88,15.56-18.85,25.79-25.81,5.12-1.35,9.95-3.33,14.32-5.88-20.07,21.19-38.08,43.96-57.23,65.88-2.84-2.6-5.52-5.35-8.05-8.21ZM81.08,208.93c.12,0,.24-.01.36-.02.67.12,1.35.23,2.03.34-.69,0-1.39,0-2.08,0-.1-.1-.21-.22-.31-.32ZM83.08,210.58c7.87,0,15.74.23,23.58-.4-1.04.41-2.07.81-3.11,1.2-7.47.91-15.23,2.44-20.46-.81ZM115.59,212.96c-10.66,3.47-22.33,5.66-33.75,5.19,7.77-.63,15.35-2.87,22.84-5.72,3.89-.43,7.65-.52,10.91.53ZM106.68,208.43c-2.93.35-5.92.51-8.93.49.32-.37.67-.71,1.01-1.07,2.64.16,5.29.32,7.92.59ZM115.43,189.38c-2.15,1.81-4.45,3.54-6.76,5.26,9.97-12.65,18.48-26.61,27.72-39.67,9.93-14.05,20.02-28.05,30.45-41.8-1.13,5.3-2.74,10.52-4.77,15.62-4.47,6.91-8.66,13.96-12.92,20.98-3.67,6.06-8.09,11.85-12,17.81-6.86,7.5-13.88,15.18-21.71,21.8ZM159.75,134.13c-3.31,7.16-7.39,14.03-12.05,20.49.48-.84.96-1.67,1.45-2.49,3.55-5.99,7.01-12.04,10.6-18.01Z"/>
  <path class="st0" d="M120.84,36.63c-2.95,1.8-5.85,3.66-8.53,5.77,2.78-1.99,5.66-3.88,8.53-5.77Z"/>
</svg>