<?xml version="1.0" encoding="UTF-8"?>
<svg id="Layer_1" xmlns="http://www.w3.org/2000/svg" version="1.1" viewBox="0 0 244.78 247.68">
  <!-- Generator: Adobe Illustrator 29.1.0, SVG Export Plug-In . SVG Version: 2.1.0 Build 142)  -->
  <defs>
    <style>
      .st0 {
        fill: #9c3a30;
      }
    </style>
  </defs>
  <path class="st0" d="M80.82,217.72c-.09-.28-.17-.55-.27-.83.29-.45.54-.85.74-1.09.84-1.01,1.7-2.08,2.61-3.12.06.46.13.92.23,1.37.16.68,1.21.68,1.37,0,.26-1.12.36-2.29.38-3.47.85-.82,1.74-1.58,2.69-2.2.41-.27.15-1.03-.35-.82-.81.33-1.6.7-2.37,1.11-.05-1.39-.15-2.79-.18-4.14-.03-1.32-.05-2.63-.08-3.95.62-.48,1.26-.94,1.93-1.37.64-.42.23-1.6-.55-1.29-.47.18-.94.38-1.42.59-.03-1.54-.06-3.07-.09-4.61-.02-.83-1.27-.83-1.29,0-.04,1.77-.07,3.53-.11,5.3-1.63.83-3.17,1.87-4.24,3.29-.98,1.3-1.94,3.94-.09,4.99.43.24,1,.03,1.13-.46.38-1.44.76-2.29,1.7-3.5.44-.57.93-1.08,1.44-1.58-.02.86-.04,1.72-.05,2.59-.03,1.76-.19,3.59-.2,5.39-1.3.87-2.5,1.89-3.59,3.09-.13.14-.35.38-.61.67-1.44-4.96-2.51-10-3.3-15.08,1.98-.61,3.54-2.45,5-3.84,2.17-2.05,4.15-4.28,6.32-6.32.51-.47-.13-1.18-.7-.91-2.5,1.21-4.69,2.71-6.89,4.4-1.23.94-2.94,1.89-4.26,3.05-1.18-8.97-1.65-18.06-2.03-27.09-.13-3.21-.26-6.45-.42-9.69.19-.02.39-.07.6-.13,5.47-1.74,10.67-4.81,15.96-7.06.62-.26.27-1.19-.32-1.2-5.31-.05-11.65-.52-16.6,1.96-.16-2.34-.34-4.69-.57-7.02,1.99-.04,4.01-.33,5.86-.52,3.22-.33,6.31-1.35,9.25-2.67.61-.27.17-1.25-.45-1.06-3.27,1-6.56,1.36-9.96,1.58-1.63.1-3.31-.02-4.97-.01-.94-8.42-2.49-16.74-5.3-24.7-.27-.77-1.6-.71-1.52.21,1.51,17.15,1.47,34.36,2.2,51.55.71,16.9,1.81,34.14,7.28,50.28,1.3,3.83,7.39,2.18,6.08-1.68Z"/>
  <path class="st0" d="M134.45,222.14c-3.35-.6-7.23.89-10.57,1.43-5.32.86-10.75.94-16.13.92-6.8-.03-13.59-.63-20.37-.59.51-1.31.46-2.78.42-4.17-.02-.83-1.26-.83-1.29,0-.03,1.08-.07,2.14-.36,3.18-.11.38-.29.71-.53,1.01-2.72.07-5.43.25-8.15.63-1.05.15-1.05,1.95,0,2.11,10.39,1.56,20.71,2.65,31.23,3.06,5.54.22,11.22.29,16.71-.58,3.4-.54,8.8-1.7,9.84-5.58.15-.57-.18-1.31-.81-1.42Z"/>
  <path class="st0" d="M169.11,41.48c-.55.1-1.07.3-1.56.59.22-1.32,0-2.73-.04-4.06-.06-1.66-.11-3.33-.17-4.99-.02-.41-.63-.41-.64,0-.06,1.66-.11,3.33-.17,4.99-.05,1.48-.31,3.08.06,4.52.01.06.06.09.09.13-1.42,1.13-2.6,2.84-3.61,4.34-.01-.09-.03-.19-.08-.28-1.09-2.1-2.25-4.24-2.37-6.66-.04-.82-1.3-.83-1.29,0,.05,2.67,1.2,5.07,2.32,7.44.19.38.54.45.85.33-.09.14-.19.28-.29.41-.99,1.4-1.92,2.85-2.82,4.31.47-2.58.72-5.18.7-7.79,0-.14-.22-.18-.25-.03-.56,2.6-1.23,5.19-1.98,7.75-.21-.62-.49-1.22-.74-1.86-.7-1.88-1.1-3.86-1.22-5.85-.05-.82-1.27-.84-1.29,0-.03,1.94.21,3.8.64,5.69.34,1.47.74,3.12,1.94,4.12,0,0,.01,0,.02,0-.41,1.29-.83,2.57-1.28,3.83-.31.55-.62,1.09-.93,1.63-1.89,3.3-3.77,6.62-5.79,9.85-.79-1.16-1.5-2.19-1.91-3.56-.5-1.65-.55-3.42-.66-5.12-.06-.99-1.48-1-1.54,0-.21,3.32-.63,7.9,2.26,10.26.2.16.42.25.66.27-1.91,2.75-4.22,5.08-6.37,7.61-2.57-2.55-5.47-4.74-8.57-6.6,4.64-7.19,9.45-14.26,14.4-21.24,5.29-7.44,11.42-14.62,16.18-22.4.91-1.49-1.24-3.18-2.43-1.87-5.86,6.46-10.69,14.38-15.5,21.64-4.98,7.51-9.76,15.15-14.36,22.9-2.75-1.51-5.63-2.78-8.57-3.83-16.95-6.03-39.13-5.04-52.9,7.66-7.72,7.12-10.34,17.71-9.35,27.89.1.98,1.6,1.01,1.54,0-.17-3-.01-5.8.43-8.42.95.63,1.92,1.21,2.92,1.73-.3,2.31.07,4.64,1.42,6.89.22.37.84.13.7-.3-.64-2.05-.83-4.02-.67-5.92,3.11,1.4,6.44,2.32,9.87,2.91.1,1.08.29,2.16.56,3.23.13.52.84.36.88-.12.09-.96.16-1.92.22-2.86,6.68.93,13.65.73,20.03.53,7.79-.25,15.54-1.07,23.3-1.78,6.53-.6,13.35-.43,19.81-1.5,1.41-.23,1.42-2.63,0-2.85-5.77-.89-12.1.3-17.87.88-7.39.74-14.77,1.52-22.17,2.17-7.16.63-15.22,1.29-22.97.63.25-3.91.54-7.72,1.9-11.63,1.86-5.32,5.33-9.94,9.13-14.02.11-.12-.06-.3-.18-.18-6.66,6.45-12.84,15.92-12.75,25.63-3.33-.39-6.57-1.05-9.65-2.08,1.13-7.45,7.55-13.69,13.23-18.62.19-.17-.08-.43-.27-.27-4.92,4.02-12.89,11.06-14.39,18.39-1.02-.39-2.01-.83-2.98-1.32,6.11-33.46,59.59-35.48,79.51-10.23-.14.88.55,1.89,1.4,1.89.39.56.75,1.14,1.11,1.73-2.16-.57-4.3-.24-6.68.05-3.68.45-7.33,1.12-10.97,1.81-7.06,1.34-14.17,2.88-21.33,3.66-.69-2.94-1.08-5.76-.86-8.99.25-3.86.92-7.71,1.29-11.56.01-.14-.23-.17-.25-.03-1.26,6.16-3.78,14.28-1.68,20.73-.18.02-.36.04-.54.05-.49.04-.5.74,0,.77.29.02.57.02.86.04.3.74.65,1.47,1.1,2.15.27.42.97.16.82-.35-.16-.59-.32-1.17-.47-1.74,6.47.19,12.77-.54,19.21-1.44,3.83-.54,7.65-1.05,11.51-1.4,3.17-.3,6.39,0,9.3-1.38.35.7.68,1.4.98,2.13,2.09,5.05,2.19,10.11,2.43,15.36-7.52-.61-14.87-1.73-22.35-2.95-7.89-1.28-15.9-2.12-23.86-1.08-6.86.9-13.52,2.79-20.28,4.17-6.62,1.36-14.75,2.57-21.09-.52-.8-.39-1.8.7-1.01,1.31,4.83,3.76,10.46,4.2,16.4,3.85,7.62-.46,15.15-2.24,22.65-3.59,8.67-1.57,17.27-.9,25.91.53,6.62,1.09,13.36,2.63,20.12,3.21-.03.01-.06.04-.06.08-3.36,18.1-6.03,36.34-9.92,54.34-2.01,9.29-4.38,18.52-7.33,27.56-1.37,4.2-2.84,8.36-4.52,12.45-1.54,3.74-3.66,7.26-4.87,11.12-.28.9.98,1.67,1.61.94,5-5.75,7.47-14.64,9.85-21.76,3.11-9.32,5.28-18.98,7.22-28.6,3.75-18.53,6.13-37.24,8.21-56.01,0-.05-.02-.08-.05-.1,2.32.2,4.65.28,6.97.19.26-.01.49-.06.71-.13-2.74,16.17-4.7,32.5-7.52,48.66-3.3,18.95-7.24,37.79-11.56,56.53-.58,2.51,3.29,3.57,3.85,1.06,4.13-18.8,7.84-37.7,10.98-56.69,3.07-18.57,6.19-37.72,6.27-56.57,0-.43-.68-.54-.76-.1-.18.96-.34,1.92-.51,2.89-.37-.3-.86-.5-1.46-.53-.21-.01-.42-.03-.64-.04,1.39-8.07-1.76-17.12-6.37-23.66,1.36-1.6,2.39-3.57,3.41-5.34,1.98-3.43,3.61-7.06,5.13-10.71.63-1.52,1.24-3.06,1.81-4.62,2.33-3.85,4.6-7.74,7.1-11.49,1.3-1.95,2.7-3.82,4.22-5.6,1.06-1.24,2.29-2.33,2.72-3.96.2-.76-.48-1.31-1.19-1.19ZM147.46,76.37c-1.13,1.78-2.52,3.45-3.74,5.19-.52-.6-1.05-1.19-1.61-1.76,1.94-.59,3.72-1.83,5.34-3.43Z"/>
  <path class="st0" d="M183.46,17.83c-6.42.74-12.68,3.65-18.96,5.17-.82.2-.46,1.38.34,1.24,6.25-1.11,12.84-2.39,18.91-4.26,1.13-.35.98-2.29-.29-2.15Z"/>
  <path class="st0" d="M183.22,36.84c-.64.17-1.27.35-1.9.53-2.47-2.08-2.93-6-2.12-8.94.16-.56-.69-.79-.87-.24-.93,2.88-.93,7.67,1.93,9.5-2.79.85-5.53,1.72-8.54,1.92-.57.04-.58.89,0,.9,3.89.09,8.36-.49,11.99-1.93,1.05-.42.67-2.04-.48-1.74Z"/>
  <path class="st0" d="M222.1,42.52c-1.03-1.1-1.78-2.27-2.98-3.19-.46-.35-1.1.04-1.23.53-3.45-4.54-8.52-7.85-13.28-10.85-6.02-3.79-12.29-7.14-18.34-10.88-.91-.56-1.73.67-1.09,1.42,4.34,5.04,10.13,8.3,15.64,11.88,2.83,1.84,5.47,3.8,7.97,5.92-.11.14-.16.31-.11.52.45,2.15.49,4.14-.04,6.28-.45,1.84-1.93,3.33-2.18,5.16,0,.03,0,.06,0,.09-1.97-1.45-4.02-2.81-6.07-4.16.05-.05.1-.08.13-.14.48-.99.28-1.98.23-3.07-.07-1.45-.14-2.89-.2-4.34-.04-.83-1.25-.83-1.29,0-.06,1.27-.11,2.53-.17,3.79-.05.96-.23,1.95-.04,2.87-1.96-1.29-3.92-2.58-5.81-3.95,1.15-.34,2.05-1.55,2.51-2.59.69-1.58.41-3.36-.11-4.94-.18-.55-1.03-.32-.87.24.39,1.34.56,2.64.13,3.99-.42,1.32-1.57,1.67-2.37,2.62-.03.04-.05.07-.07.12-1.25-.92-2.46-1.89-3.63-2.91.13-.81.05-1.63.02-2.49-.04-1.26-.08-2.53-.12-3.79-.02-.75-1.13-.75-1.16,0-.04,1.27-.08,2.53-.12,3.79-.01.41-.04.8-.05,1.19-.32-.31-.65-.61-.97-.92-.83-.84-2,.39-1.27,1.27,7.78,9.43,19.88,14.06,27.26,23.76,1.39,1.82,3.78.33,3.23-1.44,2.48-3.39,4.47-6.97,5.88-10.97.43-1.23,1.66-3.64.55-4.82ZM207.15,49.92s.04-.01.06-.03c1.68-1.05,2.38-3.5,2.88-5.34.54-1.98.43-4.04.05-6.03,1.27,1.14,2.5,2.32,3.7,3.55-.09.04-.17.11-.21.23-1.29,3.38-2.83,7.11-2.6,10.8-1.24-1.12-2.53-2.18-3.87-3.19ZM212.17,54.16c.78-3.88,1.09-7.72,2.18-11.56.84.88,1.66,1.78,2.47,2.72.66.77,1.53.77,2.21.35-1,3.86-2.58,7.41-4.7,10.8-.69-.8-1.4-1.57-2.16-2.3Z"/>
  <path class="st0" d="M139.29,67.79c-.52-.44-1.47.16-1.01.78.99,1.32,1.5,2.96,2.32,4.39.6,1.04,1.53,2.98,2.94,3.04.39.02.7-.34.71-.71.03-1.27-1.27-2.75-1.91-3.77-.83-1.31-1.86-2.73-3.04-3.73Z"/>
  <path class="st0" d="M150.15,51.92c.55,1.3.97,2.63,1.31,4,.44,1.78.17,3.77.79,5.47.24.65,1.14.69,1.37,0,.53-1.65-.16-3.59-.64-5.19-.48-1.61-1.19-3.15-2-4.62-.24-.44-1.02-.13-.82.35Z"/>
  <path class="st0" d="M171.41,28.23c-1.18,3.08-1.02,8.22,2.36,9.98.54.28,1.03-.27.79-.79-.62-1.37-1.64-2.42-2.18-3.88-.63-1.69-.72-3.36-.35-5.13.09-.41-.47-.56-.62-.17Z"/>
  <path class="st0" d="M96.45,72.87c-3.12,6.02-7.07,15.11-2.57,21.4.24.33.87.14.71-.3-2.78-7.3-1.06-14.06,2.09-20.97.07-.15-.14-.28-.22-.13Z"/>
  <path class="st0" d="M89.78,127.4c.43-.23.26-1.02-.26-.96-2.92.34-5.73,1.19-8.67,1.45-3.41.29-6.76-.41-9.95-1.55-.79-.28-1.1.94-.35,1.24,5.96,2.34,13.42,2.97,19.22-.18Z"/>
  <path class="st0" d="M89.62,164.16c-4.51-.63-9-1.03-13.43.25-.79.23-1.13.85-1.23,1.61-.04.3-.27.51-.25.86.05.74.9.92,1.32.36-.58.79,3.67-.36,4.2-.47,3.11-.66,6.23-1.37,9.38-1.86.37-.06.37-.69,0-.75Z"/>
  <path class="st0" d="M88.18,168.96c-4.22,2.11-8.72,3.47-12.86,5.79-.41.23-.67.7-.67,1.16v.37c0,.25.14.56.38.67,1.98.88,4.62-1.7,6.32-2.64,2.53-1.4,4.97-3.02,7.22-4.84.3-.24-.08-.66-.39-.51Z"/>
  <path class="st0" d="M77.85,188.9c.12-.05.24-.1.36-.16.52.14,1.12-.05,1.5-.41,1.18-1.12,2.53-2.11,3.63-3.3,1.22-1.31,2.53-2.69,4.12-3.55.6-.33.17-1.19-.45-1.06-3.69.77-6.75,3.29-9.49,5.73-.37.33-.51.88-.42,1.37-.04.08-.08.17-.13.25,0,0,0,0,0,0-.29.53.2,1.41.87,1.13Z"/>
  <path class="st0" d="M116.52,214.54c6.21-10.72,8.11-23.78,9.91-35.86,1.98-13.27,3.02-26.74,5.67-39.89.08-.4-.5-.57-.62-.17-3.63,12.52-5.29,25.36-7.42,38.2-2.09,12.66-5.18,24.79-10.02,36.69-.59,1.45,1.72,2.33,2.47,1.04Z"/>
  <path class="st0" d="M117.19,152.79c-1.9,19.84-8.97,38.78-10.43,58.72-.14,1.98,2.98,1.98,3.09,0,1.14-19.81,7.67-38.83,8.37-58.72.02-.67-.97-.65-1.03,0Z"/>
  <path class="st0" d="M95.71,216.62c2.25-10.98,4.14-22.04,3.85-33.29-.02-.83-1.25-.83-1.29,0-.46,10.99-3.01,21.81-5.54,32.47-.46,1.94,2.58,2.76,2.98.82Z"/>
</svg>