<?xml version="1.0" encoding="UTF-8"?>
<svg id="Layer_1" xmlns="http://www.w3.org/2000/svg" version="1.1" viewBox="0 0 244.78 247.68">
  <!-- Generator: Adobe Illustrator 29.1.0, SVG Export Plug-In . SVG Version: 2.1.0 Build 142)  -->
  <defs>
    <style>
      .st0 {
        fill: #9c3a30;
      }
    </style>
  </defs>
  <path class="st0" d="M112.43,85.43c3.72-4.1,7.25-8.23,11.17-12.15.19-.19.3-.4.35-.62.34-.32.68-.65,1.02-.98,3.36,5.22,6.38,10.71,10.04,15.64-1.1.28-2.19.62-3.28.94-1.93.56-4.97.89-6.59,2.11-.29.22-.5.53-.63.87-.89-.08-1.38,1.32-.51,1.79,10.24,5.66,20.21,12.01,30.67,17.26,9.53,4.78,19.24,8.24,28.01,14.46.14.1.29.16.43.2.47,1.24,2.49,1.11,2.56-.45.72-17.71-3.3-35.57-4.72-53.2-.08-.94-1.13-1.82-2.05-1.18-3.15,2.2-6.43,3.44-9.94,4.78-8.72-10.56-13.93-24.02-23.68-33.76-4.08-4.08-8.44-4.44-13.94-4.71-7.46-.36-14.91-.47-22.32.64-3.53.53-6.49,1.71-9.07,3.33-.28-.07-.62.12-.68.42-6.09,4.11-10.01,10.82-14.12,17.66-3.23,5.38-6.51,10.61-9.49,16.15-3.07,5.71-6.04,12.3-11.1,16.55-.09.08.03.22.13.17.14-.07.27-.16.4-.24-.06.23,0,.5.23.61,5.06,2.41,11.92,1.4,17.41,1.38,7.27-.03,14.54.04,21.81-.19.37-.01.67-.12.91-.29.54.29,1.3.16,1.55-.61.12-.37.27-.72.4-1.07.2-.43.43-.82.65-1.23,1.77-1.37,3.41-3.22,4.38-4.29ZM106.08,40.45c8.43,1.5,12.13,7.23,16.08,14.62,3.05,5.7,5.85,12.45,11.29,16.34.1.07.22-.09.13-.17-7.34-5.95-12.1-28.75-23.2-31.66.62-.09,1.23-.17,1.85-.24.09.11.21.19.39.21,6.72.74,11.5,9.48,15.62,14.1,5.43,6.1,8.34,14.27,11.79,21.55.08.16.36.04.29-.12-3.42-8.5-6.41-16.65-12.6-23.61-3.61-4.05-7.23-10.36-12.64-12.39,2.24-.15,4.49-.19,6.74-.18,12.19,8.84,14.35,25.68,25.84,35.38.15.13.38-.08.23-.23-10.65-9.91-12.92-25.93-24.14-35.14.19,0,.38,0,.57.01-.01.36.2.74.66.79,15.6,1.58,19.44,23.07,27.46,33.56.08.11.26,0,.18-.11-7.16-10.66-10.32-29.88-24.08-34.1,1.73.07,3.46.15,5.19.24,11.9,6.16,15.2,20.74,22.5,31.12.08.11.25.01.18-.11-6.4-10.46-9.4-24.05-20.07-30.87.01,0,.02,0,.03,0,3.75.2,6.65,3.23,9,5.83,8.61,9.52,13.43,22.06,21.89,31.74.65.74,1.52.45,1.95-.17,3.24-.18,6.33-1.54,9.15-3.18.77,15.86,3.3,31.61,4.42,47.47-7.05-6.01-16.71-8.98-24.96-12.8-10.03-4.65-19-10.97-29.09-15.41,1.07-.53,2.12-1.17,3.08-1.65,1.61-.8,3.28-1.52,4.86-2.39.57.04,1.18-.34,1.46-.86.39-.26.37-.9,0-1.11-.03-.05-.05-.09-.09-.14-4.19-5.44-7.6-11.4-11.31-17.16.06-.65-.38-1.32-.97-1.51-1.43-2.17-2.91-4.3-4.52-6.35-5.74-7.33-14.9-11.55-19.99-19.43,1.13-.66,2.34-1.19,3.65-1.56.4-.11.8-.2,1.19-.3ZM82.23,89.41c2.27-3.67,5.2-6.95,7.81-10.37.19-.25-.21-.53-.42-.32-3.39,3.34-6.64,6.6-9.09,10.65-1.25-.04-2.54-.11-3.85-.14,1.38-1.88,4.13-4.73,4.6-5.31,1.89-2.31,3.7-4.67,5.76-6.83.1-.11-.04-.23-.15-.15-3.08,2.44-5.71,5.2-8.25,8.18-1.17,1.37-2.34,2.74-3.54,4.08-.86,0-1.72,0-2.57.05,3-5.06,7.02-9.49,10.75-14.02.13-.16-.08-.38-.23-.23-4.31,4.44-8.75,8.6-11.79,14.06-.05.1-.07.19-.08.28-1.7.16-3.34.46-4.85,1.03,7.53-5.02,11.37-15.27,15.71-22.75,2.58-4.45,5.56-8.71,8.29-13.08,2.62-4.2,5.6-8.64,9.7-11.47.37.85.78,1.66,1.25,2.45-7.57,8.53-16.21,16.74-20.33,27.6-.13.34.43.57.59.25,4.88-10.09,13.21-18.25,20.59-26.55.34.49.7.96,1.07,1.43-6.61,8.56-12.95,17.83-17.23,27.78-.03.06.05.11.09.05,5.88-9.01,11.87-17.85,18.27-26.5.91,1.02,1.88,2,2.89,2.95-5.33,7-8.07,15.6-13.95,22.23-.41.46.23,1.12.68.68,6.35-6.2,9.57-14.49,14.91-21.4,1.21,1.08,2.44,2.13,3.65,3.17-2.49,1.93-4.42,5.64-6.22,8.01-3.03,3.98-5.81,8.18-8.01,12.68-.06.12.11.23.18.11,2.63-4.23,5.88-8.01,9-11.87,1.81-2.24,5.08-5,6.24-7.89.82.72,1.63,1.45,2.39,2.18.23.22.45.46.68.69-5.9,5.9-11.63,11.98-16.6,18.69-.08.1.08.2.17.13,6.26-5.46,11.9-11.57,17.7-17.5.26.28.51.55.76.83-3.78,5.27-8.63,9.75-13.02,14.5-.23.25.12.61.38.38,4.81-4.37,9.8-8.4,13.75-13.56.47.57.92,1.16,1.37,1.74-2.61,2.43-4.96,5.24-7.42,7.83-2.56,2.71-5.04,5.34-7.04,8.49-.07.11.08.21.17.13,2.68-2.49,5.21-5.1,7.81-7.68,2.48-2.45,5.19-4.81,7.4-7.52.3.41.59.83.88,1.25-1.96.88-3.71,1.87-5.2,3.48-.54.58-.36,1.52.19,1.96-.52.54-1.03,1.09-1.52,1.67-2,1.9-3.94,3.85-5.69,5.98-.03.04-.04.07-.06.11-1.55,1.77-2.98,3.64-4.15,5.72-.69.68-1.5,1.21-2.16,1.86-.23,0-.46,0-.7-.01.17-.27.32-.53.47-.75,1.14-1.77,2.26-3.51,3.93-4.83.43-.34-.12-1.04-.58-.75-1.63,1.01-2.89,2.38-4.09,3.85-.53.65-1.51,1.52-2.17,2.44-.65-.01-1.31-.03-1.96-.04,1.14-2.77,3.26-5.12,4.89-7.6.17-.26-.21-.53-.42-.32-2.38,2.41-4.7,4.72-5.93,7.91-1.21-.01-2.42-.02-3.63-.03.37-1.02.63-2.14,1.02-2.93,1.11-2.29,2.52-4.59,4.07-6.6.08-.11-.08-.2-.17-.13-2.11,1.74-3.7,3.68-5.11,6.03-.54.9-1.48,2.3-1.87,3.62-1.67,0-3.34,0-5.02-.01,1.54-3.47,4.07-6.58,6.52-9.42.18-.21-.09-.48-.3-.3-3.18,2.8-6.12,5.83-7.91,9.72-.94,0-1.88,0-2.82,0-.16,0-.33,0-.5,0Z"/>
  <path class="st0" d="M226.01,155.12c-.45-2.38-1.48-4.69-3.23-6.18-.68-1.2-1.31-2.16-1.61-2.58-1.17-1.61-2.47-3.17-3.84-4.66-2.7-3.27-5.99-6.75-9.54-8.82-.01-.48-.25-.95-.79-1.21-5.71-2.75-12.52-2.32-18.7-2.28-6.56.05-13.52,3.48-19.98,2.25-.2-.04-.4.06-.52.21-.05-.05-.1-.11-.15-.16-.45-.47-1.33.17-.92.72,5.62,7.39,10.42,15.89,17.15,22.4.89,1.2,1.81,2.39,2.82,3.5-.25,0-.49.01-.74.02-6.71.1-14.1-.88-20.59,1.22.46-3.41.38-6.89.45-10.33.03-1.57-1.87-1.77-2.68-.72-6.27,8.12-15.99,12.03-25.11,15.98-9,3.9-17.61,9.67-27.17,12.06-.4.1-.65.33-.77.62-.39.12-.64.68-.27.98.2.16.4.33.6.49.06.06.12.11.19.15,7.9,6.4,16.36,13.53,25.33,18.23,3.83,2,7.81,3.71,11.66,5.67,3.19,1.62,8.92,4.04,10.09,7.75.42,1.33,2.63,1.56,2.92,0,.97-5.21.2-10.65.54-15.97.25.64.87,1.12,1.72.86,5.19-1.59,10.87-.93,16.22-.7,5.56.24,10.81-.67,16.32-.83,3.45-.1,8.16.69,11.31-1.2,2.99-1.8,4.52-4.56,6-7.5.36-.13.48-.47.4-.8.32-.64.64-1.27.97-1.91,1.91-3.6,5.03-7.25,7.62-11.11.24-.19.47-.38.7-.58.25-.22.29-.53.19-.8,2-3.2,3.51-6.54,3.59-10.12,0-.04.03-.06.03-.1.04-.34.06-.69.07-1.05,0-.01,0-.03,0-.04.02-.69-.02-1.41-.1-2.14.21-.46.09-.95-.19-1.3ZM173.89,134.36c.08,1.51,1,2.95,1.73,4.23.99,1.74,2.18,3.37,3.4,4.97.08.11.25.02.19-.11-.88-1.55-1.69-3.13-2.42-4.76-.61-1.38-.91-3.03-1.65-4.36,2.37-.14,4.8-.66,6.95-.99.13,1.48.49,2.89,1.11,4.24.31.66.74,1.25,1.23,1.78.38.41.79.34,1.29.5.15.05.27-.16.16-.27-.28-.25-.23-.53-.46-.78-.46-.52-.78-1.09-1.03-1.74-.49-1.25-.65-2.62-.62-3.96.72-.08,1.44-.17,2.17-.23.04,1.45.49,2.84,1.07,4.15.81,1.84,1.74,2.77,3.47,3.66.05.03.12-.05.07-.09-.67-.56-.99-1.48-1.47-2.19-.55-.83-.93-1.76-1.25-2.69-.28-.85-.44-1.74-.47-2.63,0-.11,0-.21,0-.3,1.21-.08,2.43-.13,3.65-.14.4,2.19,2.08,4.51,2.92,6.31.2.44.95.12.78-.33-.45-1.24-.96-2.44-1.44-3.67-.28-.73-.46-1.53-.69-2.3.76.02,1.52.04,2.28.08.43.91,1.34,1.73,1.91,2.48.7.92,1.37,1.83,2.15,2.68.13.14.32-.04.25-.19-.47-1.03-.97-2.02-1.52-3.01-.3-.54-.6-1.22-.96-1.82.36.03.72.07,1.08.11.14,1.02.68,1.98,1.13,2.91.75,1.54,2,2.86,3.31,3.95.17.14.49-.05.34-.26-.93-1.22-1.54-2.55-2.21-3.92-.38-.79-.69-1.68-1.1-2.49,1.05.15,2.09.33,3.11.55.58.93,1.23,1.82,1.78,2.78.84,1.48,1.6,2.98,2.56,4.38.35.5,1.15.05.83-.49-.97-1.61-1.72-3.34-2.55-5.03-.19-.39-.38-.78-.58-1.14.45.12.9.22,1.34.36.02,0,.04,0,.06.01,3.78,2.96,7.37,6.2,10.66,9.69,1.42,1.51,2.72,3.12,3.87,4.83-.02.2,0,.41.12.61.43.76.98,1.43,1.51,2.13.2.42.33.84.4,1.25-.6.44-1.09,1.01-1.63,1.53-.02-.06-.02-.12-.05-.18-1.62-3.36-3.97-6.32-6.25-9.26-.19-.24-.56.07-.42.32,1.81,3.23,3.45,6.54,5.19,9.8.06.12.14.21.22.27-.56.31-1.16.55-1.78.75-.88-2.18-2.68-4.14-4.02-5.96-1.98-2.69-4.07-5.55-4.78-8.87-.08-.35-.65-.27-.63.09.15,2.95,1.27,5.53,2.77,8.04,1.43,2.39,2.87,4.91,4.4,7.27-.28.06-.56.11-.84.17-.82.17-1.65.3-2.48.41-.81-2.71-2.74-5.12-4.38-7.36-2.05-2.8-3.92-5.62-5.53-8.7-.18-.34-.65-.09-.59.25.59,3.18,2.29,5.78,4.03,8.46,1.62,2.49,2.91,5.01,4.22,7.61-2.4.21-4.84.27-7.24.29-1.03-5.7-4.05-11.22-6.25-16.48-.06-.15-.34-.15-.31.04.74,5.56,2.9,11,4.44,16.45h-.28c-1.68,0-3.37.05-5.05.08-2.95-5.22-2.76-13.44-7.42-17.56-.07-.07-.22,0-.18.11,2.14,5.28,2.7,11.18,4.89,16.42-.21-.06-.42-.13-.63-.17-.04-.01-.08-.02-.11-.04,0,0,0,0,0,.01-.08-.01-.15-.04-.23-.05-.21-.02-.38.04-.52.15-.03-.02-.06-.04-.08-.05-1.65-2.85-3.12-5.67-4.33-8.85-1.27-3.33-2.47-6.44-4.34-9.49-.15-.25-.59-.09-.49.21,1.62,4.55,2.78,10.1,4.91,14.9-.81-.71-1.59-1.46-2.35-2.23-1.15-1.54-2.36-2.99-3.76-4.13-3.89-4.61-7.41-9.65-11.37-14.07,1.44.76,3.06,1.04,4.76,1.06ZM214.39,177.92c-10.98.89-21.88,2.24-32.91,1.36-.42-.03-.4.59,0,.64,10.66,1.36,21.06.62,31.67-.29-.95,1.36-1.81,2.7-2.47,4-.03.07-.07.14-.11.2-10.23,1.69-21.54,4.32-31.4.26-.28-.12-.48.35-.2.49,9.64,4.68,20.41,2.71,30.62,1.02-.67,1.1-1.39,2.03-2.19,2.81-9.45.12-18.85,1.12-28.29,1.42-.27,0-.27.43,0,.43,8.81.15,17.6-.35,26.4-.45-1.46.82-3.23,1.25-5.48,1.3-4.36.09-8.52.39-12.85.75-8.32.7-16.93-1.85-25.09.55-.38.11-.65.33-.82.59,0-.03,0-.07,0-.1.09-.77-.93-.83-1.29-.35-2.58,3.46-1.81,8.34-1.84,12.81-4.12-4.36-11.97-7.01-16.37-9.09-10.07-4.76-18.2-13.4-28.33-17.91,9.02-2.66,17.28-7.99,25.86-11.71,8.41-3.65,17.18-7.21,23.69-13.75.05,3.28.18,6.55.98,9.72.1.41.72.41.82,0,.09-.36.16-.72.23-1.08,4.69,1.19,33.44,3.13,49.51-.03,3.6-.22,7.1-.88,9.44-2.52.02.46.02.91-.02,1.36-5.27,5.06-10.81,9.3-18.36,9.45-4.79.1-10.53-.08-15.06-1.71-.12-.04-.18.13-.08.19,4.6,2.84,11.12,2.83,16.34,2.85,6.78.02,12.12-3.97,16.8-8.47-.66,2.64-2.05,5.23-3.73,7.76-10.14,6.04-20.86,2.82-32.2,4.15-.33.04-.35.54,0,.53,9.74-.03,20.73,2.84,29.76-1.23-1.02,1.37-2.05,2.71-3.02,4.03Z"/>
  <path class="st0" d="M34.24,191.9c-.07,0-.07.11,0,.11h.48c.07,0,.07-.11,0-.11h-.48Z"/>
  <path class="st0" d="M102.57,186.36c-.06-7.01.87-14,.07-21-.07-.6-.38-1.24-1.04-1.37-.11-.02-.2-.06-.3-.08.25-.65.11-1.42-.69-1.84-5.57-2.89-12.82-.52-18.71-.08-8.34.62-16.86-2.89-25.17-1.25,2.18-3.14,4.19-6.37,5.71-9.8,1.34,1.32,2.79,2.47,4.05,3.92,1.3,1.5,2.44,2.78,4.51,3.08.33.05.66-.04.93-.2.3.22.73.12.9-.3,1.34-3.23.8-7.22.96-10.69.23-5.1.59-10.19.92-15.28.66-10.38,1.2-20.78.75-31.18-.03-.78-.81-1.54-1.63-1.24-9.7,3.5-19.91,3.43-29.81,5.9-6.86,1.71-13.07,4.19-20.19,4.05-.22,0-.42.28-.27.48.2.27.42.5.68.7-.39-.17-.79-.33-1.19-.48-.64-.23-1.02.75-.45,1.08,6,3.36,10.04,9.6,15.43,13.81.2.15.4.25.59.32-8.09,9.44-16.9,20.3-19.66,32.61-2.55,11.36,6.82,22.27,14,31.11.1.27.19.54.31.82.13.29.37.37.6.32.78.97,1.53,1.91,2.21,2.83.36.48.9.6,1.37.49,2.05,2.39,6.15,2.53,9.16,2.65,3.44.13,6.72-.12,9.98-.6.74-.04,1.45-.07,2.1-.09,14.03-.42,28.05-1.14,42.09-1.25.38,0,.69-.11.94-.27.7-.18,1.28-.72,1.19-1.55-.14-1.29-.22-2.57-.26-3.85.64-.27.64-1.38-.04-1.74ZM79.16,165.15c5.99.62,13.65-3.09,19.36-.51.09.19.17.37.24.55-1.54.28-3.06.57-4.68.65-2.3.1-4.56.22-6.77.91-.66.2-.39,1.21.28,1.03,2.69-.72,5.45-.59,8.2-.63,1.11-.02,2.33-.05,3.46-.3.04.2.07.41.1.61-.07.55-.11,1.12-.14,1.69-4.72-.57-9.64,1.81-14.16,2.81-.05.01-.06.1,0,.11,4.7.71,9.39-.91,14.13-.99,0,1.25.03,2.47,0,3.54,0,.13,0,.26,0,.39-4.35-.15-8.74,3.15-12.93,1.38-.49-.21-.93.47-.43.74,4.44,2.38,8.75-.68,13.34-.52,0,.09,0,.19,0,.28-.04.97-.08,1.95-.11,2.91-5.57.69-11.14,4.94-16.72,2.52-.18-.08-.34.17-.16.28,4.82,2.81,11.56.55,16.84-.83-.02,1.48-.01,2.96.05,4.44-5.68.22-11.21,2.01-16.83,2.8-.13.02-.08.2.03.21,5.71.47,11.24-1.24,16.9-1.23.05.72.11,1.44.2,2.16-12.29,0-24.56.43-36.83.91-6.62.27-15.43,1.64-22.41-.07.45-.07.87-.46.84-.93-.02-.33-.02-.66-.02-.99,12.06.1,24.11-1.13,36.1-2.27.67-.06.69-1.11,0-1.07-11.98.76-23.97,1.25-35.97,1.51.13-.97.36-1.92.67-2.86,12.69.52,26.02-.36,38.63-1.71.27-.03.28-.4,0-.43-12.38-1.22-25.43-.49-37.89.15.32-.75.68-1.49,1.08-2.22,1.62.86,4,.59,5.74.62,3.79.07,7.58-.1,11.36-.34,6.36-.4,12.91-1.01,18.79-3.65.06-.03.02-.11-.04-.1-6.51,1.78-13.56,2.19-20.27,2.48-3.28.14-6.56.13-9.84.04-1.55-.04-3.48-.46-5.09-.22.49-.85,1.01-1.68,1.55-2.51,1.77,1.05,5.52.65,7.26.78,6.01.47,11.01-2.1,16.91-2.37.07,0,.07-.1,0-.11-5.4-.71-10.3,1.47-15.67,1.05-1.58-.12-5.18-1.19-7.42-.96.47-.7.95-1.38,1.41-2.06,4.26,1.09,9.71.39,13.96.55,6.4.24,12.72.43,19.12.06.62-.04.62-.92,0-.96-6.37-.42-12.74-.7-19.12-.96-3.78-.16-8.64-1.09-12.69-.55,1.05-1.56,2.16-3.11,3.28-4.67,9.64.34,18.82,3.82,28.53,2.97.14-.01.14-.21,0-.22-9.26-.49-18.09-3.67-27.29-4.46.59-.81,1.17-1.62,1.75-2.44,7.3,2.11,15.91,2.21,23.44,3ZM40.63,124.91c.27-.4.06-.84-.28-1.06.13-.51-.02-1.09-.63-1.54-4.84-3.54-8.59-8.39-13.81-11.28,4.36,1.27,11.85-1.56,14.94-2.46,10.53-3.06,21.62-3.09,32.06-6.51.32,9.15-.09,18.29-.62,27.43-.3,5.13-.64,10.27-.91,15.4-.14,2.72-.65,5.88-.46,8.81-.51-.72-1.08-1.42-1.6-2.11-1.36-1.83-2.81-3.76-5.06-4.44-1.49-.46-2.65.8-2.66,2.1-.22.04-.43.17-.59.45-1.95,3.47-4.73,6.5-7.17,9.62-3.54,4.53-6.75,9.41-9.86,14.25-.94,1.46-8.87,13.96-5.86,16.85-.29-.1-.58-.22-.86-.33-1.18-1.64-2.5-3.34-3.85-5.1-.38-7.05,5.5-14.91,8.9-20.23,3.72-5.83,8.36-11.75,10.61-18.35.07-.2-.24-.27-.31-.08-3.37,8.61-10.39,15.77-15.07,23.69-2.3,3.89-4.93,8.71-5.29,13.47-.98-1.28-1.97-2.58-2.92-3.91-1.44-14.41,13.59-26.69,19.72-38.85.06-.12-.11-.22-.18-.11-4.86,7.9-11.18,14.87-16.03,22.83-1.3,2.14-5.21,8.36-5.68,12.96-.68-1.04-1.32-2.1-1.92-3.17-2.18-6.41,4.7-15.24,7.85-20.1,3.3-5.07,7.58-10.36,9.37-16.23.06-.2-.24-.28-.31-.09-2.84,7.74-9.47,14.37-13.71,21.4-1.94,3.21-4.49,7.55-4.86,11.7-.65-1.5-1.18-3.02-1.54-4.55,0-11.87,9.38-24.83,19.37-30.32.12-.07.02-.24-.11-.18-8.76,4.23-16.89,13.54-19.65,23.54.06-.44.13-.89.23-1.34,2.56-11.76,12.13-22.41,18.74-32.16Z"/>
</svg>