<?xml version="1.0" encoding="UTF-8"?>
<svg id="Layer_1" xmlns="http://www.w3.org/2000/svg" version="1.1" viewBox="0 0 286.49 255.62">
  <!-- Generator: Adobe Illustrator 29.1.0, SVG Export Plug-In . SVG Version: 2.1.0 Build 142)  -->
  <defs>
    <style>
      .st0 {
        fill: #9c3a30;
      }
    </style>
  </defs>
  <g>
    <path class="st0" d="M163.22,144.18c.16-.3.14-.41,0,0h0Z"/>
    <path class="st0" d="M222.8,67.49c-2.98-4.27-6.27-8.3-9.69-12.04-8.83-9.66-19.56-17.68-32.73-19.71-14.42-2.21-29.56.52-43.36,4.74,0,0-.02,0-.02,0-3.09.81-6.11,1.72-9.02,2.67-13.86,4.53-28.05,11.7-37.25,23.34-2.66,3.37-4.7,7.05-6.1,10.92-3.56,6.71-5.48,14.15-4.37,21.49,1.25,8.25,7.06,15.01,13.24,20.25,4.17,4.61,9.34,8.35,15.04,10.28,2.81,1.58,5.68,3.04,8.58,4.39-19.29,9.58-31.58,29.28-51.28,38.2-1.18.53-.34,2.51.88,2.09.76-.26,1.51-.55,2.25-.85.02.02.02.04.04.06,1.31,1.15,3.55.89,5.14.8,3.7-.21,7.34-1.06,10.94-1.9,10.86-2.52,21.59-5.71,32.17-9.2,10.59-3.5,21.12-7.19,31.53-11.18,3.49-1.34,6.97-2.71,10.39-4.22,1.7-.75,3.4-1.47,4.02-3.38.01-.03.02-.05.02-.08-.02.05-.06.1-.09.16.37-.6-.12-1.16-.66-1.22.12-.04.24-.07.36-.11.68.27,1.38.52,2.08.74-.08.25.09.59.41.62.75.07,1.51.11,2.26.14,8.07,1.96,17.12,1.6,24.67.55,12.97-1.82,25.92-7.54,34.78-17.38,2.37-2.63,4.26-5.45,5.73-8.41.75-.88,1.47-1.79,2.14-2.74,12.05-17.03,1.61-35.37-12.1-49.03ZM235.15,93.44c-.26-1.05-.56-2.08-.87-3.12,1.17,3.14,1.89,6.41,1.98,9.72-.19-2.19-.55-4.39-1.1-6.61ZM183.12,40.06c9.2,1.98,17.16,7.67,23.93,14.4-.56-.39-1.12-.77-1.67-1.13-9.42-6.27-20.15-11.78-31.32-14.49,3.05.19,6.08.58,9.06,1.22ZM148.38,148.38c-9.89,3.84-19.9,7.37-29.94,10.76-4.15,1.4-8.3,2.8-12.47,4.18,17.13-6.07,34.01-13,51.3-18.56-2.92,1.31-5.91,2.47-8.89,3.63ZM161.7,143.51c.05-.08.09-.14.13-.19.02,0,.03,0,.04-.01-.06.05-.12.12-.17.2ZM72.12,172.65c-.12.04-.2.12-.24.21-.66.08-1.29.08-1.83-.05,18.96-8.16,30.96-27.13,49.71-35.91.69-.32.98-.85,1.01-1.41.2.08.39.17.59.26.74.32,1.32-.62.64-1.1-1.87-1.31-3.83-2.57-5.81-3.83,1.41-.23,1.46-2.37.06-2.85-7.53-2.59-14.14-5.56-19.73-11.41-5.21-5.47-8.5-12.55-9.88-19.93-1.23-6.64-.31-12.91,2.08-18.61,2.76-4.81,6.36-9.19,10.03-12.71,9.46-9.07,21.83-15.2,34.26-19.53,5.16-1.48,10.4-2.62,15.6-3.46,6.19-1,12.73-1.65,18.97-.77,6.44.91,12.74,3.11,18.68,5.7,12.32,5.37,23.94,13.01,33.56,22.47,7.16,10.2,13.07,22.45,13.11,34.78.02,4.83-1.31,9.36-3.53,13.45-6.28,7.13-15.83,12.02-24.03,15.43-6.53,2.72-13.34,4.75-20.21,6.39-3.61.86-7.3,1.34-10.96,1.91-1.15-.14-2.3-.31-3.43-.52-1.62-.3-3.22-.71-4.81-1.17-.17-.12-.38-.18-.61-.18-2.84-.86-5.64-1.91-8.41-2.92-1.48-.54-2.02,1.52-.98,2.32,1.11.86,2.3,1.61,3.54,2.28-29.58,8.99-57.96,21.62-87.37,31.17ZM186.36,142.06c5.62-1.18,11.17-2.69,16.6-4.55,4.87-1.67,9.78-3.68,14.4-6.17-2.04,1.5-4.17,2.83-6.34,3.97-7.5,3.96-16.05,6.21-24.66,6.75Z"/>
    <path class="st0" d="M125.68,84.92c-.56-5.16-3.87-9.74-8.99-9-4-.8-8.36.4-10.82,4.12-3.71,5.63-2.43,16.15,3.4,20.23.02.07.04.14.06.22.07.23.27.47.52.52.33.06.65.1.98.14.16.07.31.14.47.2,7.32,2.77,12.09-3.02,13.78-9.45.56-1.7.8-3.56.69-5.47,0-.51-.04-1.01-.09-1.5ZM120.63,83.13c.13,1.04.17,2.08.18,3.12.03,2.54-.69,5.41-2.48,6.91.32-2.97,1.21-5.89,1.33-8.88.03-.75-.9-1.12-1.43-.73.15-.47.3-.95.45-1.42.92.02,1.81-.03,1.94,1ZM115.62,87.14s-.02-.04-.04-.05c-.04-.06-.09-.12-.14-.18.18-.27.36-.55.54-.82-.12.35-.25.7-.37,1.06ZM115.69,91.62c.2.68.37,1.38.52,2.06-.27-.37-.55-.74-.82-1.12.1-.32.2-.63.3-.95ZM116.78,89.26c.18-.3.36-.61.55-.91-.1.51-.2,1.03-.3,1.54-.08-.21-.17-.42-.26-.63ZM114.83,86.13c-.48-.56-1-1.09-1.55-1.6,0-.51-.02-1.02-.02-1.53.33-.18.67-.34,1.03-.47.94-.34,1.93-.43,2.91-.44-.7,1.4-1.54,2.72-2.37,4.03ZM112.64,83.94c-.12-.11-.23-.21-.35-.32.12-.09.24-.17.36-.25,0,.19,0,.38,0,.57ZM111.63,90.43c-.3.18-.6.38-.87.59-.47-.77-.72-1.7-.71-2.79.52.75,1.04,1.48,1.58,2.2ZM112.23,91.21c.45.57.91,1.14,1.39,1.69,0,.04-.01.08-.02.11-.01.12,0,.21.03.3-.87-.35-1.64-.83-2.24-1.47.26-.22.55-.43.84-.63ZM117.48,78.45c.92.31,1.77.76,2.52,1.33-.22-.03-.45-.04-.67-.06-.15-.41-.81-.51-1.07-.06-1.76-.04-3.5.18-5.05.72,0-.12,0-.24,0-.35,1.4-.89,2.9-1.48,4.28-1.58ZM112.69,80.38c0,.07,0,.14,0,.21-.23.09-.46.19-.67.3.22-.18.45-.35.68-.5ZM110.7,78.69c-1.14.87-2.18,1.88-3.02,3.01.71-1.28,1.71-2.35,3.02-3.01ZM108.49,95.89c-.75-1.18-1.28-2.55-1.63-3.94.5.81,1.13,1.54,1.84,2.17-.15.58-.21,1.17-.2,1.77ZM122.92,90.33c-.24,1.43-.72,2.89-1.41,4.22-1.34,2.06-3.25,3.73-5.58,4.59-.33.12-.66.22-1,.3-.65.04-1.34-.02-2.06-.19-1.16-.27-2.14-.83-2.96-1.6-.18-.89-.19-1.9-.13-2.67,2.09,1.41,4.68,2.09,7.18,1.71,3.68-.55,5.37-3.4,6.02-6.72-.02.12-.03.25-.05.36Z"/>
    <path class="st0" d="M156.27,105.63c5.09,2.56,10.91,1.86,15.21-1.79,3.04-.96,4.38-3.83,4.73-7.09.6-1.94.74-3.91.48-5.82,1.19-4.72-1.1-8.94-6.42-10.88-.47-.17-.99-.33-1.55-.49-.35-.2-.71-.4-1.07-.58-3.65-1.77-7.35-1.8-10.43-.5-.83.08-1.65.21-2.43.39.25-.84-.44-1.95-1.42-1.56-5.75,2.32-9.8,7.18-9.98,13.52-.06,2.26.52,4.27,1.54,6.03-.12.77-.15,1.55-.08,2.33.5,5.45,5.63,6.56,10.74,6.24.22.08.46.14.69.2ZM147.98,96.27c.02.05.04.1.06.16.22.6.49,1.19.79,1.78-.37-.4-.71-.82-1.02-1.26.04-.22.1-.44.16-.67ZM172.62,98.98c-.49.87-1.06,1.63-1.67,2.3-.75.39-1.57.57-2.43.59,1.93-1.46,3.65-3.22,5.07-5.06,0,.01,0,.03,0,.04-.26.72-.57,1.44-.97,2.14ZM169.48,87.61c-.18.04-.37.13-.54.3-2.43,2.41-5.15,4.47-7.71,6.72,1.37-4,3.42-7.94,6.04-11.23,1.17.92,1.88,2.45,2.22,4.22ZM157.08,99.55c1.23.92,2.56,1.8,3.96,2.54-1.86.08-3.75-.38-5.36-1.28.48-.46.94-.88,1.4-1.26ZM155.67,98.43c.08.07.16.14.24.2-.07.05-.15.1-.22.16-.01-.12-.02-.24-.03-.36ZM159.58,98.2c.18-.01.37-.08.52-.23.02-.02.04-.03.06-.05.29-.07.58-.14.9-.18.36-.05.34-.53.08-.69,1.7-1.49,3.5-2.87,5.28-4.28-.67,1.36-1.34,2.71-2.02,4.07-.52,1.05.78,2.18,1.67,1.29.18-.18.57-.55,1.05-1.03,0,.66.06,1.3.14,1.92-.24.34-.5.64-.78.89-.52.49-1.1.88-1.71,1.2-1.8-.69-3.61-1.77-5.2-2.9ZM158.68,97.15s0,.08-.01.12c-.08.02-.17.05-.25.08-1.09-.84-2.04-1.66-2.76-2.32.45-4.73,2.85-8.43,7.15-11.8.21-.17.21-.41.11-.62,1.29-.27,2.38-.2,3.28.16-3.47,4.14-6.04,9.28-7.52,14.38ZM154.43,93.8c-.81-.86-1.66-1.89-2.39-2.98.35-.97.83-1.91,1.42-2.8,2.28-2.15,4.96-3.89,7.65-4.87-3.75,3.08-5.95,6.48-6.67,10.65ZM154.17,97.12c0,.9.06,1.83.18,2.8-.25-.2-.48-.41-.71-.64-1.47-1.49-2.13-3.2-2.19-4.96.92,1.07,1.87,2.02,2.72,2.8ZM165.47,103.82c.45.11.9.2,1.36.27-1.09.41-2.24.63-3.41.68.7-.27,1.38-.59,2.05-.95ZM172.45,88.07c.39,1.13.65,2.32.86,3.5.11.65.22,1.39.29,2.18-.51.89-1.12,1.74-1.8,2.55.89-2.61,1.12-5.51.65-8.22ZM157.4,80.99c-.69.33-1.37.72-2.01,1.15.4-.38.84-.73,1.32-1.03.23-.04.45-.08.69-.11ZM150.6,85.25c.13-.17.28-.34.43-.51-.31.72-.55,1.49-.73,2.29-.05-.23-.08-.46-.1-.69.12-.37.26-.74.41-1.1ZM145.8,90.83c-.06-2.3.68-4.43,1.93-6.24-.17.72-.21,1.45-.13,2.18-.37,1.45-.56,2.92-.54,4.39,0,.12,0,.25,0,.37-.34.54-.65,1.1-.93,1.67-.18-.75-.29-1.54-.32-2.37Z"/>
    <path class="st0" d="M200.86,113.08c2.08.39,4.27-.38,6.14-2.54.22-.26.43-.53.64-.81.86-.23,1.7-.49,2.48-.79,5.26-2.02,9.17-6.66,6.85-12.43-2.53-6.27-10.81-13.11-17.8-13.26-3.19-.07-5.18,1.83-6.33,4.32-.18.18-.36.37-.53.56-1.36,1.19-2.5,2.64-3.33,4.19-4.37,8.12,2.29,23.04,11.88,20.76ZM193.03,106.06c.34.12.69.23,1.05.33.09.2.19.4.28.59-.52-.28-.97-.58-1.33-.92ZM206.75,99.56c.03.13.04.26.06.4-.83.22-1.68.38-2.53.5-.13-.56-.33-1.11-.57-1.64.22-.56.44-1.11.69-1.67.04-.09.23-.09.53-.03.69.76,1.32,1.58,1.83,2.45ZM196.41,94.69c.25-.15.5-.29.74-.42.86.52,1.7,1.13,2.46,1.8-.06.38-.11.76-.14,1.14-.61,1.31-1.13,2.71-1.64,4.27-.03.08-.04.17-.04.25-1.19-2.06-1.63-4.87-1.38-7.04ZM196.64,104.3c-.19-.05-.38-.09-.56-.14-.18-.44-.34-.89-.5-1.35.31.54.67,1.03,1.06,1.49ZM203.34,95.55c-.2.17-.37.37-.5.61-.04-.23-.08-.46-.13-.69.06-.1.14-.19.2-.29.14.12.28.24.42.37ZM201.35,97.97c.19.25.36.52.52.79-.01.06-.02.13-.03.19-.08.23-.17.46-.26.69-.06-.02-.12-.03-.18-.05-.07-.51-.08-1.05-.04-1.61ZM198.78,102.73c.5,0,1-.01,1.5-.02-.18.38-.36.76-.55,1.14-.5-.32-.94-.72-1.32-1.19.12.05.24.08.37.08ZM202.37,104.54c-.39.02-.75-.02-1.1-.09.17-.29.33-.59.48-.89.32.16.66.26,1.02.32-.02.07-.02.14-.04.21-.04.16-.11.3-.18.44-.06,0-.12.02-.17.02ZM199.96,94.21c-.36-.29-.73-.57-1.11-.83.3-.14.58-.28.81-.38.17.08.35.17.51.26-.07.31-.15.62-.22.95ZM204.28,104.11c.01-.06.03-.11.04-.17.13-.01.27-.02.4-.03-.14.07-.29.14-.44.2ZM200.69,89.77c-.14-.38-.28-.76-.4-1.14-.03-.08-.14-.05-.12.03.09.4.18.79.29,1.19-.35.12-.7.24-1.02.37-.46-.12-.93-.2-1.4-.24-1.53-.13-2.51.42-3.14,1.31-.18-.07-.37-.14-.55-.2.11-.58.26-1.13.45-1.64.75-.65,1.61-1.21,2.64-1.59.43-.16.87-.27,1.31-.33,1.75-.08,3.5.48,5.09,1.45-1.09.18-2.16.46-3.14.79ZM194.11,92.8s.06.02.09.03c0,.01,0,.02-.01.04-.03.02-.06.04-.09.06,0-.04,0-.08.01-.13ZM206.96,91.81c.83,1.3,1.24,2.79,1.38,4.32-.28-.12-.55-.24-.83-.35-.65-1.39-1.29-2.79-1.82-4.24.39,0,.78.01,1.14.06.05.07.09.13.13.2ZM191.82,102.01c-.02.07-.05.14-.07.21-.08-.07-.15-.14-.22-.21.02-.2.04-.41.08-.61.07.2.14.41.21.61ZM194.84,109.28c.4.18.81.35,1.23.49.1.13.2.25.3.38-.05-.02-.1-.04-.16-.07-.49-.23-.94-.5-1.37-.8ZM214.76,97.53c1.77,4.25-1.25,7.36-4.83,9.03,1.88-1.69,2.92-4.15,2.65-7.1.27-.31.28-.72.1-1.05.28-1.28.42-2.63.27-3.92.73.95,1.37,1.96,1.82,3.04Z"/>
  </g>
  <g>
    <path class="st0" d="M69.57,217.37c1.45-1.45-.41-3.65-1.21-4.86-1.33-2.02-2.39-4.19-3.47-6.35,3.08.13,6.12-.15,8.78-1.82.7-.44.49-1.35-.21-1.62-2.69-1.07-5.6-1.34-8.53-1.47,1.91-2.19,3.89-4.32,5.65-6.64,1.61-2.12,3.95-4.87,2.96-7.68-.13-.36-.44-.54-.82-.47-2.62.54-4.25,3.33-5.88,5.26-1.99,2.34-4.08,4.58-6.08,6.91-2.5-4.08-5.55-8.01-9.7-10.26-.37-.2-.86.22-.61.61,2.46,3.75,4.31,7.75,6.18,11.76-4.38-.47-9.07-1-13.04.95-.44.22-.43.93,0,1.15,3.45,1.79,7.63,2.2,11.63,2.5-.98,1.26-1.92,2.55-2.78,3.86-.85,1.03-1.66,2.09-2.4,3.21-.45.67-.43,1.33-.15,1.86.04.2.15.38.34.46.85.88,2.5,1.11,3.39-.23.25-.37.5-.74.76-1.1,2.15-1.37,3.97-3.56,5.61-5.78,1.16,2.21,6.58,12.77,9.6,9.76Z"/>
    <path class="st0" d="M159.07,211.46c.71-1.01.64-2.71-.83-3.37-.41-.18-.81-.38-1.22-.57-1.73-1.93-4.21-3.37-6.67-4.63,1.97-1.55,11.35-8.85,7.86-11.35-1.68-1.21-3.5,1.05-4.55,2.06-1.82,1.76-3.85,3.26-5.86,4.79-.46-5.09-1.09-10.35-4.11-14.3-.58-.75-1.42-.34-1.55.54-.66,4.63.24,9.52.93,14.31-2.44-1.52-4.84-3.1-7.38-4.44-2.37-1.25-5.48-3.12-8.06-1.63-.33.19-.45.54-.31.9,1,2.54,4.03,3.69,6.21,4.99,2.65,1.59,5.23,3.3,7.87,4.91-3.55,3.23-6.87,6.98-8.33,11.54-.13.41.37.83.7.5,3.18-3.07,6.7-5.59,10.23-8.12.44,4.5,1.14,9.07,3.45,12.74.31.49,1,.35,1.13-.2.88-3.77.65-8,.23-12.15,1.46.79,2.95,1.55,4.44,2.2,1.16.67,2.35,1.3,3.59,1.86.74.33,1.38.2,1.85-.18.19-.08.34-.22.39-.42Z"/>
    <path class="st0" d="M106.08,217.66c.88-2.9.47-6.02-.09-9.12,4.2,2.12,8.69,3.16,13.38,2.1.58-.13.72-.84.16-1.1-3.94-1.86-7.75-4.69-11.63-7.49,3.96-2.64,7.86-5.45,10.71-9.27.29-.38-.13-.93-.58-.73-4.42,1.97-8.79,4.26-13.03,6.7.31-4.37,1.33-8.9-.6-12.92-.26-.55-1.13-.51-1.41,0-1.83,3.41-2.71,7.16-3,11.02-3.73-2.1-7.63-3.61-11.88-3.75-.45-.02-.64.44-.33.73,2.94,2.75,6.3,6.14,10,9.19-4.01,2.45-8.65,5.77-8.92,9.84-.05.67.49,1.25,1.18,1.15,2.56-.37,3.98-1.97,5.89-3.6,1.43-1.22,2.96-2.32,4.51-3.38.52,3.68,1.34,7.29,2.2,10.64.45,1.75,2.93,1.64,3.42,0Z"/>
    <path class="st0" d="M234.73,203.05c3.89-2.64,6.99-6.05,8.35-10.66.17-.58-.38-1.04-.88-.68-3.54,2.54-7.87,4.48-12.2,6.52-.38-4.75-.93-9.52-2.88-13.87-.19-.44-.88-.34-.92.14-.43,4.82-.56,9.75-.5,14.64-3.67-2.4-7.13-5.5-11.58-5.77-.61-.04-1,.74-.68,1.23,2.09,3.26,4.93,5.86,8.16,7.98-3.65,2.23-6.87,4.91-9.06,8.55-.23.38.08.77.48.64,3.83-1.22,8.43-2.51,12.9-4.26.18,4.7.83,10.37,4.25,12.58.56.37,1.33.18,1.58-.47.93-2.42.22-4.44-.28-6.89-.37-1.85-.59-3.71-.76-5.59,3.47,1.34,7.02,2.38,10.37,3.26,1.75.46,2.86-1.75,1.67-2.99-2.11-2.18-5.03-3.34-8.01-4.36Z"/>
    <path class="st0" d="M195.01,190.91c-3.31,2.33-6.47,4.86-9.66,7.36-.03.03-.07.05-.1.08-.09-.49-.17-.98-.23-1.48-.47-3.51-.08-9.75-4.34-11.1-.12-.04-.28.08-.23.22,1.34,4.16.62,8.29,1.14,12.55.02.17.05.34.07.5-3.21-1.43-6.46-2.77-9.98-2.92-.99-.04-1.2,1.48-.54,2.01,2.42,1.96,5.27,3.51,8.17,4.87-1.62,1.28-3.24,2.58-4.83,3.91-1.62,1.36-3.76,3.97-5.71,4.79-.15.06-.23.23-.17.38,1.14,3,12.03-5,13.12-5.82.32-.24.64-.49.96-.73.81,4.25,1.95,8.56,3.51,12.23.61,1.43,2.97.84,2.93-.68-.11-3.62-.99-7.18-1.94-10.74,1.5.53,3.04.97,4.54,1.51,1.85.66,3.15,1.93,5.21,1.18.36-.13.61-.51.63-.93.29-4.53-6.18-5.42-8.95-6.26-.25-.07-.5-.16-.75-.24,1.68-1.3,3.37-2.59,5.05-3.9,1.71-1.33,6.33-3.69,6.17-6.3-.13-2.04-3.02-1.23-4.06-.5Z"/>
  </g>
</svg>