<?xml version="1.0" encoding="UTF-8"?>
<svg id="Layer_1" xmlns="http://www.w3.org/2000/svg" version="1.1" viewBox="0 0 244.78 247.68">
  <!-- Generator: Adobe Illustrator 29.1.0, SVG Export Plug-In . SVG Version: 2.1.0 Build 142)  -->
  <defs>
    <style>
      .st0 {
        fill: #9c3a30;
      }
    </style>
  </defs>
  <path class="st0" d="M207.66,45.94c-7.18-4.64-14.88-9.48-22.84-12.65-6.34-2.52-13.94-3.49-18.65-8.77-.21-.23-.51.02-.47.27,0,.05.02.09.03.13-3.67,5.49-7.11,11.15-10.4,16.91-.14.04-.28.06-.41.1-.83.23-.92,1.11-.6,1.69-1.44,2.55-2.85,5.12-4.24,7.71-20.35,1.13-40.49-3.09-60.88-2-17.34.93-35.35-3.16-52.24,1.98-.22-.07-.47.01-.47.32-.02,55.94-.16,111.91-.05,167.85,0,.28.08.5.18.7-.3.19-.28.75.11.83,20.43,3.77,42.85.29,63.61,1.2,10.41.45,20.78,1,31.2,1.05,10.73.05,21.19-2.41,31.86-.08,1.24.27,2.03-.8,1.98-1.76.13-.24.22-.51.22-.85-.17-14.94-.8-29.88-.19-44.82.52-12.85,2.06-25.37-.07-38.16-.02-.12-.09-.2-.17-.26,3.16-7.7,6.23-15.35,9.51-22.6.6-1.33,1.23-2.65,1.88-3.97.4.13.91-.15.71-.63-.06-.14-.12-.28-.18-.42,4.61-9.24,10.05-18.12,14.69-27.32,2.7-5.36,5.22-10.82,7.75-16.27.26-.09.45-.32.34-.64,0-.02-.02-.03-.02-.05,1.08-2.33,2.18-4.65,3.28-6.96.06.12.12.23.18.35.21.43.87.05.65-.38-.14-.27-.29-.54-.43-.81,1.47-3.07,2.98-6.12,4.57-9.12.04-.08,0-.16-.04-.22.48-.69.52-1.74-.39-2.33ZM166.34,126.42c-1.34-2.63-2.18-5.5-3.44-8.18-.09-.19-.41-.05-.34.14,1.14,3.18,1.72,6.54,3.1,9.62-1.3,3.09-2.57,6.21-3.84,9.33-1.85-2.74-3.48-5.63-5.45-8.29-.07-.1-.21-.02-.17.1,1.55,3.51,2.3,7.24,4.77,10.26-1.22,2.99-2.45,5.98-3.71,8.95-1.41-4.26-3.37-8.45-4.11-12.83-.02-.12-.23-.07-.19.05,1.41,4.65,2.68,9.5,3.67,14.28-.76,1.76-1.53,3.52-2.32,5.26-.86-3.72-2.56-7.21-3.22-11-.03-.21-.39-.16-.37.05.47,4.39,2.39,8.48,2.7,12.87-.86,1.85-1.75,3.69-2.66,5.51-1.23-3.54-2.54-7.05-2.8-10.84-.02-.36-.56-.36-.56,0-.05,4.41,1.32,8.55,2.36,12.79-.34.64-.69,1.28-1.03,1.92-.09.03-.16.05-.22.05-.21-.03-.3.14-.28.3-.01.12.06.22.17.26-.37.68-.75,1.34-1.13,2.01-1.61-3.49-2.38-7.33-3.8-10.91-.04-.11-.22-.07-.18.05,1.25,3.94,1.77,8.1,3.36,11.93-1.23,2.11-2.51,4.19-3.87,6.21-1.65-1.09-2.53-3.72-3.19-5.33-.87-2.14-1.58-4.34-2.5-6.47-.09-.2-.4-.06-.34.14.95,3.2,1.48,6.51,2.62,9.66.46,1.27,1.15,2.82,2.29,3.58-.34.48-.67.96-1.02,1.44-.14-1.38-1.04-2.56-2.91-3.31-1.93-.77-4.56-.54-6.9.12.57-1.48,1.19-2.93,1.85-4.36.41-.05.77-.43.67-.91-.02-.11-.05-.21-.07-.32,4.34-9,10.15-17.23,14.32-26.34,5.49-11.98,11.13-23.74,17.16-35.47.17-.32.33-.63.49-.94.77,2.35,1.27,4.78,1.84,7.19.43,1.81.86,3.73,2.04,5.14-.95,2.09-1.87,4.19-2.77,6.31ZM102.29,154.32c4.33-1.04,8.67-1.2,13.11-1.47.12,0,.12-.18,0-.19-2.8-.2-5.58-.5-8.38-.59-1.25-.04-2.53-.07-3.74.19.58-1.22,1.02-2.19,1.06-2.28.22-.45.44-.9.67-1.35,1.25-.23,2.5-.5,3.72-.64,2.57-.29,5.16-.39,7.74-.52.12,0,.12-.18,0-.19-3.16-.16-7.05-.68-10.6-.4.69-1.4,1.38-2.79,2.07-4.19,4.25.06,8.75-2.02,12.86-2.76.1-.02.08-.19-.03-.18-2.06.15-4.08.44-6.13.76-1.97.31-3.95.4-5.92.59.3-.61.6-1.21.9-1.82.64-.48,1.03-1.26.98-1.98.27-.55.54-1.09.81-1.64,2.2-.5,4.34-.97,6.68-1.16,2.55-.2,5.09-.35,7.58-.94.24-.06.14-.4-.1-.36-3.14.48-6.33.3-9.5.34-1.14.01-2.44.02-3.71.17.2-.39.39-.78.58-1.17.79-1.59,1.57-3.18,2.35-4.78,3.92.2,8.09-.39,11.93-.55.36-.01.36-.55,0-.56-3.57-.15-7.42-.67-11.1-.58.65-1.33,1.31-2.66,1.96-3.99,3.83-.68,7.81-.59,11.47-2.05.77-.31.45-1.56-.35-1.26-3.28,1.21-6.8,1.18-10.26,1.56.76-1.55,1.53-3.11,2.29-4.66.33-.15.67-.29,1.02-.4,1.58-.49,3.28-.59,4.92-.73,2.61-.22,5.2-.35,7.71-1.15.57-.18.34-1.06-.25-.9-3.28.88-6.73.65-10.1.9-.68.05-1.49.13-2.3.27.91-1.84,1.82-3.68,2.73-5.53,1.4-.06,2.76-.49,4.15-.79,2.54-.56,5.2-1.09,7.81-.75.12.02.13-.19,0-.2-3.41-.22-7.59-.68-11.14.08,1.12-2.27,2.24-4.53,3.35-6.8,1.56-.01,3.15-.17,4.62-.26,2.54-.15,5.15-.45,7.51-1.46.1-.04.03-.21-.07-.17-2.65.89-5.49.88-8.26.82-1.02-.02-2.09-.15-3.15-.24.71-1.43,1.41-2.87,2.12-4.3.4-.81.82-1.61,1.22-2.42,1.2,0,2.55-.4,3.54-.57,3.28-.56,6.6-1.34,9.94-1.16.87.05.81-1.2,0-1.31-2.89-.39-5.83-.03-8.72.25-1.02.1-2.23.07-3.41.12.74-1.46,1.48-2.92,2.23-4.38,4.87-.71,9.73-1.71,14.33-3.49.55-.21.33-1.1-.25-.9-4.26,1.41-8.71,2.16-13.18,2.64,1.03-1.99,2.06-3.99,3.1-5.98.55-.16,1.1-.35,1.69-.49,1.52-.36,3.14-.39,4.7-.54,2.21-.2,4.28-.63,6.11-1.94.29-.21.04-.66-.28-.48-2.59,1.41-5.47,1.11-8.31,1.03-.8-.02-1.73-.06-2.64,0,.84-1.62,1.69-3.24,2.53-4.86.18-.06.37-.12.58-.2,1.34-.48,2.85-.58,4.25-.73,2.63-.3,5.29-.5,7.73-1.59.48-.22.14-1.01-.36-.85-3.04.96-6.34.6-9.48.67-.37,0-.84,0-1.33.04.43-.82.85-1.64,1.28-2.46,4.2-.2,8.47-1.7,12.39-2.99.23-.08.14-.4-.1-.36-3.73.63-7.42.87-11.14,1.12.97-1.87,1.93-3.75,2.88-5.63,1.61-.24,3.2-.67,4.81-.87,2.05-.25,4.12-.33,6.19-.42.6-.03.6-.91,0-.94-3.08-.14-6.66-.53-9.87,0,.88-1.75,1.76-3.51,2.63-5.26,1.1-.2,2.19-.5,3.3-.69,2.54-.44,5.14-.57,7.71-.74.48-.03.48-.72,0-.75-2.95-.19-6.57-.71-9.8-.32.54-1.11,1.09-2.22,1.62-3.33,3.79-1.15,7.79-1.52,11.7-2.12.01.03.03.06.05.09-1.31,2.4-2.53,4.87-3.62,7.47-.36.86-.75,1.75-1.14,2.65-4.49,9.61-7.7,19.78-12.27,29.4-.7,1.48-1.42,2.96-2.13,4.44-.31.2-.51.54-.46.96-1.38,2.89-2.77,5.77-4.16,8.66-.59-.16-1.23.47-1.11,1.13.05.26.13.51.19.77-.21.44-.42.87-.63,1.31-.43.16-.78.61-.7,1.17.01.07.03.14.04.21-2.52,5.22-5.06,10.44-7.6,15.65-.69-.03-1.44.65-1.16,1.39.02.06.04.12.06.18-.06.18-.13.37-.19.55.07,0,.15.02.24.05-.24.48-.47.97-.71,1.46,0-.07-.02-.15-.02-.22-.19.46-.39.9-.59,1.34,0,.03.02.06.02.09-.44.91-.88,1.81-1.32,2.72-.46.14-.85.53-.81,1.07.01.16.04.31.06.47-.71,1.44-1.41,2.89-2.12,4.33-.73,0-1.46.59-1.15,1.43.06.17.14.33.21.5-.3.62-.61,1.24-.91,1.85-.84-.2-1.88.44-1.48,1.42.04.09.08.19.12.28h0s.01.02.02.03c.08.18.16.36.24.53-5.09,10.44-10.19,20.88-15.23,31.35-.3-3.47-2.75-6.77-5.76-8.21,1.95-.05,3.88-.16,5.78-.63.7-.17.4-1.23-.3-1.08-2.08.45-4.18.45-6.31.42-.47,0-.67.41-.61.77-1.1-.29-2.23-.33-3.32-.03.44-.65,1.02-1.71,1.58-2.83ZM166.37,100.17c.13.16.29.24.46.27-.18.33-.37.67-.55,1-.14-.21-.28-.42-.42-.63.15-.24.29-.48.45-.72.02.03.04.05.06.08ZM124.24,166.69c-.8-2.58-1.65-5.14-2.56-7.7.01.04-.64-1.45-1.27-2.99.07-.09.12-.19.15-.31.06-.25.12-.44.17-.66,2.8,5.2,3.94,10.95,7.42,15.9.5.71,1.79.3,1.48-.62-.36-1.11-.7-2.12-1.07-3.13.66,1.05,1.43,2.05,2.27,3.01-.85,1.72-1.65,3.47-2.35,5.28-.5-3.35-1.58-6.6-4.24-8.78ZM175.82,34.4c.12.18.22.38.34.57-.2.15-.39.33-.59.49-.2.02-.38.09-.53.2,0-.02.01-.04.02-.06.23-.46.46-.92.69-1.39.02.07.04.13.07.2ZM184.95,38.81c.38.3.72.63,1.04.99,2.31,5.52,1.28,4.33-.39,1.72-.38-1.26-.63-2.21-.64-2.71ZM188.92,41.9c.26.3.51.62.75.94,0,.35,0,.69,0,1.04-.06-.03-.13-.05-.2-.08-.18-.63-.35-1.29-.55-1.91ZM192.79,43.81c-.07-.24-.14-.42-.22-.6.2.19.45.39.76.62-.53.7-1.03,1.42-1.49,2.15.02-.3.03-.61.04-.92.58-.04,1.11-.53.91-1.26ZM169.97,92.06c-.28-.66-.61-1.29-.91-1.94.43.64.87,1.29,1.3,1.93-.12.22-.23.45-.35.67.06-.2.06-.43-.04-.66ZM161.6,91.16c-.05-.57-.11-1.16-.18-1.74.56.97,1.11,1.94,1.66,2.93.63,1.13,1.14,2.01,1.55,2.7-.11-.15-.23-.29-.35-.45-.94-1.15-1.83-2.29-2.67-3.44ZM138.6,140.19c-.9-2.43-1.87-4.84-2.71-7.28,1.27,2.6,2.51,5.21,3.64,7.87-.03.19-.04.37-.09.56-.27-.39-.56-.77-.84-1.15ZM135.96,125.25c-.37-.96-.73-2.05-1.04-3.12.04-.08.08-.17.12-.25,1.52,4.04,2.99,8.09,4.24,12.2-.98-2.95-2.18-5.84-3.32-8.83ZM139.59,124.5c-.16-.55-.31-1.09-.47-1.64.87,1.52,1.66,3.08,2.39,4.67-.64-1.01-1.28-2.02-1.92-3.03ZM145.32,110.87c.04-.08.05-.16.09-.24.17.27.33.53.49.8.18.4.36.8.56,1.19-.38-.58-.75-1.16-1.14-1.75ZM151.29,105c.61.95,1.18,1.93,1.74,2.92-.21.15-.37.36-.4.62-1.02-1.55-2.03-3.12-2.98-4.73-.46-.78-.85-1.59-1.24-2.4.37.31.88.88,1.62,1.86.47.63.8,1.07,1.07,1.44.06.1.13.2.19.3ZM147.22,98.56c-.14-.39-.32-.77-.45-1.17.15.43.36.89.61,1.37-.06-.07-.11-.13-.16-.2ZM150.97,125.33c.68,1.01,1.21,1.67,1.49,1.75-1.4-.39-3.03-2.26-4.67-4.62.99,1.04,2.03,2.01,3.19,2.87ZM152.47,117.04c.04-.21.09-.42.13-.63-.62-.89-1.22-1.8-1.82-2.7-.02-.12-.04-.23-.06-.34.5.64,1,1.29,1.49,1.95,0,.02.02.03.03.05.06.13.35.51.73.97.12.16.24.33.36.49-.3-.08-.61,0-.86.22ZM152.67,112.08c.86,1.17,1.73,2.32,2.6,3.45.45,1.61.05,1.43-1.2-.56-.45-.98-.93-1.93-1.4-2.89ZM151.61,102.33c.07.04.15.08.23.08.54.77,1.07,1.54,1.6,2.32-.06.11-.14.18-.22.24-.52-.89-1.05-1.77-1.61-2.64ZM154.02,82.56c-.04-.09-.09-.16-.14-.24.08-.16.15-.32.23-.48.67,1.69,1.32,3.37,2.01,5.02-.78-1.38-1.5-2.8-2.09-4.3ZM153.8,101.89c0,.18,0,.31,0,.48-.1-.16-.2-.32-.3-.47-.57-.85-1.1-1.6-1.59-2.25-.72-1.77.52-.05,1.76,1.69.05.19.09.37.13.56ZM153.79,92.58c.1.15.2.29.29.44-.01.11-.02.21-.03.32-.08-.25-.18-.5-.26-.75ZM157.21,92.12c.97,1.4,1.95,2.79,2.97,4.16-.13.18-.21.36-.36.54-.97-1.52-1.81-3.09-2.61-4.7ZM159.81,97.79c-1-1.51-2.03-3.01-3.06-4.51-.06-.18-.11-.38-.17-.56,1.07,1.14,2.34,3.41,3.23,5.07ZM178.9,39.94c.32.66.63,1.32.94,1.99,0,0,0,0,0,0-.38-.72-1.15-.65-1.62-.23-.37-.93-.68-1.89-.93-2.88.56.36,1.08.75,1.62,1.13ZM182.88,42.8c.49.6.98,1.2,1.48,1.8.54,1.6,1.2,3.01,2.13,4.37.24.77.46,1.54.62,2.35-.39-.4-.77-.8-1.15-1.2-1.28-2.53-2.41-5.12-3.58-7.7.17.12.34.25.5.37ZM186.36,58.83c-.04-.55-.11-1.1-.23-1.68.45-.42.83-.84,1.23-1.27-.34.98-.68,1.96-1,2.95ZM181.08,70.67c-.35-.74-.69-1.48-1.07-2.2.15-.03.33,0,.55.1.59.26,1.2,0,1.35-.61.16-.17.26-.42.23-.74-.03-.39-.1-.78-.15-1.16,0-.03,0-.06,0-.09.12.22.23.44.36.67.12.21.3.35.49.41-.59,1.21-1.18,2.42-1.77,3.63ZM173.53,79.61c-.1-.53-.23-1.06-.38-1.59.51.89,1.01,1.79,1.5,2.7.26.49.78.61,1.25.5-.26.52-.52,1.03-.78,1.55-.5-1.08-1.03-2.14-1.59-3.17ZM173.82,85.35c-.05.1-.1.21-.15.31.02-.13.04-.26.06-.39,0,0,0,0,0,.01.03.03.06.04.09.07ZM176.7,79.63s-.03-.05-.04-.08h0s0-.02-.01-.02c-2.12-5-5.29-9.63-7.41-14.62,2.83,4.14,5.97,8.07,8.61,12.37-.39.79-.77,1.57-1.15,2.36ZM167.63,70.28c-1.29-1.9-2.58-3.81-3.81-5.77.18-.63.35-1.26.52-1.89.82,2.59,2.06,5.12,3.29,7.66ZM185.66,53.99c.36.42.84.4,1.21.17.01,0,.02.02.03.03-.42.66-.84,1.11-1.25,1.23-.21-.36-.6-.51-.98-.47-.03-.03-.05-.04-.07-.08-.26-.39-.71-.5-1.1-.43-.13-.85-.26-1.7-.44-2.55-.15-.74-.87-.84-1.38-.55-.38-.81-.77-1.62-1.16-2.43.09.08.17.18.27.26.36.3.75.35,1.08.25,1.25,1.53,2.51,3.05,3.79,4.56ZM181.93,58.47c.05.66.09,1.33.13,2-.13-.25-.26-.5-.39-.75-.18-.73-.32-1.48-.43-2.24.23.33.46.66.7.99ZM174.65,37.21c.06.33.13.66.2.98-.17-.05-.35-.05-.51,0,.11-.33.22-.65.31-.99ZM173.54,38.76c-.26.84-.62,1.65-1,2.44-.04-.04-.07-.08-.11-.12.38-.8.75-1.6,1.13-2.4,0,.03-.01.06-.02.08ZM173.7,39.88c1.34,2.95,2.82,5.81,4.27,8.69-1.57-2.41-3.2-4.78-5.07-6.98.31-.55.56-1.14.8-1.72ZM179.02,54.19s-.02.08-.02.12c0,.14.03.27.04.4-.47-.9-.94-1.8-1.41-2.7.46.72.93,1.44,1.39,2.17ZM178.26,65.21c.26.39.55.77.82,1.16-.07,0-.11,0-.19.01-.21-.39-.41-.79-.63-1.17ZM178.33,70.93l.04.55c-.22-.47-.41-.95-.65-1.42.2.29.4.58.61.87ZM178.84,72.5c.17.02.33-.07.42-.24.09.13.18.25.26.37.12.18.27.29.42.38-.15.3-.3.6-.44.9-.2-.48-.44-.95-.65-1.42ZM170.35,45.7c2.05,3.23,4.2,6.39,6.24,9.62,1.09,2.32,1.95,4.72,2.54,7.18-3.17-4.89-6-9.96-9.82-14.41.33-.8.69-1.59,1.04-2.39ZM168.29,51.62c-.13-.01-.27,0-.4.02.06-.17.13-.33.19-.5.07.16.13.32.2.47ZM160.79,72.64c.91,1.92,1.84,3.8,2.9,5.61.02.14.05.29.06.44-1.11-1.79-2.21-3.58-3.31-5.37.12-.22.24-.44.35-.67ZM161.88,83.76c.44.9.88,1.81,1.32,2.71,0,.07,0,.12,0,.19-.6-.91-1.21-1.81-1.81-2.72.08-.19.19-.37.29-.56.07.13.14.25.21.37ZM164.84,80.4c-.04-.17-.08-.34-.12-.52.62.93,1.27,1.84,2.01,2.72.36.43.91.44,1.35.21.68,1.69,1.33,3.4,1.93,5.15,2.47,7.22-1.68-2.08-2.8-3.81-.8-1.24-1.58-2.5-2.37-3.76ZM171.11,86.09c.09.19.2.37.29.56.28.58,1,.7,1.55.45-.31.6-.63,1.2-.94,1.8-.29-.94-.58-1.89-.9-2.81ZM183.33,37.81c.16.08.34.14.49.22.01.23.04.46.06.69-.19-.31-.37-.62-.55-.92ZM176.22,35.59s-.09-.03-.14-.05c.09-.08.18-.16.28-.23.12.19.22.37.33.56-.16-.09-.31-.19-.47-.28ZM158.77,71.78s-.05.02-.07.02c.02-.05.05-.11.07-.16v.14ZM158.2,72.97s0,.05.02.08c.51,1.1,1.06,2.18,1.61,3.26-.2-.31-.41-.62-.6-.93-.62-.99-2.17-.1-1.56.91,1.02,1.73,1.99,3.48,2.96,5.24-.03.37-.08.74-.1,1.1-1.21-1.84-2.38-3.7-3.43-5.66-.12-.22-.31-.35-.52-.41.55-1.2,1.09-2.4,1.62-3.6ZM155.72,78.42c1.42,3.35,3.16,6.51,4.95,9.66.06.66.13,1.34.21,2.02-2.11-2.99-3.93-6.1-5.27-9.69-.12-.29-.32-.47-.56-.57.22-.47.45-.95.67-1.42ZM152.55,85.11c.2.92.4,1.86.62,2.75-.37-.59-.72-1.2-1.07-1.8.15-.31.3-.63.45-.95ZM150.83,89.59c-.12-.07-.24-.09-.37-.1.07-.15.14-.31.22-.46.05.18.1.37.15.55ZM149.45,91.61c.04,1.2.26,2.27.62,3.32-.21-.3-.42-.59-.62-.91-.13-.2-.44-.02-.32.19.23.41.52.89.84,1.39-.27-.05-.55.03-.72.22-.41-.46-.81-.9-1.18-1.31.42-.88.84-1.77,1.26-2.65.04-.09.08-.17.12-.26ZM147.29,96.17c1.17,1.53,2.31,3.06,3.42,4.61.11.24.25.51.37.77-1.19-1.8-2.48-3.54-3.87-5.21.03-.06.05-.12.08-.18ZM145.24,105.05c-.15.06-.28.16-.39.29-.39-.51-.77-1.02-1.17-1.52.2-.42.4-.84.6-1.27.28.87.6,1.69.97,2.5ZM142.64,106c.39.68.77,1.36,1.17,2.02-.02.13-.05.27-.08.41-.18-.28-.36-.55-.54-.84-.27-.44-.7-.54-1.09-.45.18-.38.36-.76.54-1.14ZM141.38,108.65c.1.4.22.79.35,1.19-.62.03-1.22.54-.95,1.24.18.46.39.91.59,1.37-.36-.5-.7-.95-1.02-1.3-.03-.04-.07-.05-.11-.08.38-.8.76-1.6,1.14-2.4ZM138.39,114.9c.61,2.03,1.31,4.02,2.06,5.99-.87-1.45-1.85-2.86-2.9-4.24.28-.58.56-1.16.84-1.75ZM134.37,123.29c.37,1.35.81,2.7,1.31,4.06-.55-1.11-1.1-2.23-1.65-3.35.11-.24.23-.47.34-.71ZM134.03,134.23c-.69-.9-1.36-1.8-2-2.74-.1-.15-.24-.22-.39-.25-.19-.35-.39-.7-.59-1.05.36-.75.72-1.5,1.08-2.25.48,2.14,1.15,4.23,1.9,6.28ZM136.74,141.48c-.75-1.54-1.49-3.09-2.24-4.63.06.07.09.12.15.2.29.38.55.71.83,1.06.43,1.12.86,2.24,1.26,3.37ZM123.3,153.74c.17.18.36.3.61.34.14.55.29,1.12.46,1.68-.34-.68-.7-1.35-1.07-2.02ZM125.87,145.42c.89,3.29,3.19,8.97,5.49,13.83-.02,1.18-.04,2.36-.09,3.53-1.72-5.8-3.81-11.5-5.4-17.37ZM126.37,157.15c1.28,3.69,2.68,7.23,4.45,10.71-.76-.5-3.01-4.88-3.53-5.94-.75-1.55-1.44-3.09-2.16-4.62.4.22.93.15,1.24-.15ZM134.27,152.27c-.23.11-.43.29-.55.54-.02-.04-.04-.08-.06-.12-.35-.63-1.02-.7-1.54-.45-1.1-3.36-2.4-6.67-3.46-10.11-2.22-7.22.62,1.05,1.34,2.47.9,1.77,2.05,3.29,3.31,4.73.36.97.69,1.95.96,2.94ZM131.12,144.18c.31.66.61,1.31.91,1.97-.35-.35-.65-1.01-.91-1.97ZM132.28,139.17c-1.04-1.66-2.1-3.33-3.15-5,.16-.33.32-.65.47-.98.86,2.01,1.76,4,2.68,5.98ZM126.87,138.88c.78,5.17,2.75,9.91,4.52,14.89.09.25.31.86.56,1.58.09.38.19.76.27,1.14-.24.06-.45.2-.59.41-.03-.07-.06-.12-.1-.2-2.31-4.68-4.29-9.54-6.3-14.35,0,0-.01,0-.02-.02.56-1.15,1.11-2.3,1.67-3.46ZM124.47,143.86c-.04.27-.05.54-.13.8.28,1.16.6,2.3.92,3.45-.43-1.05-.86-2.1-1.33-3.14.18-.37.36-.74.54-1.12ZM118.84,155.61c0,.05,0,.11.03.16-.07.08-.15.16-.22.24.06-.14.13-.27.19-.4ZM117.76,157.87c.63,1.25,1.12,2.18,1.45,2.8-.39-.66-.94-1.55-1.59-2.5.05-.1.09-.2.14-.29ZM116.54,160.42c2.69,5.58,1.05,2.85-.21.45.07-.15.14-.3.21-.45ZM116.06,161.42c.4,1.11.78,2.23,1.16,3.35-1.04.12-2.08.37-3.09.69.64-1.35,1.29-2.7,1.93-4.05ZM118.72,162.97c.39.6.75,1.2,1.09,1.82-.38-.05-.77-.09-1.16-.09.03-.54.06-1.13.06-1.73ZM121.64,165.2c-.06-.02-.13-.03-.19-.05.04-.04.09-.07.12-.13.02.06.05.12.07.18ZM134.85,159.26c.33.12.71.08,1.03-.08.36.16.78.16,1.12-.01-.69,1.16-1.38,2.32-2.06,3.49.02-1.17,0-2.31-.09-3.4ZM136.51,151.48c.5,1.05.98,2.12,1.42,3.21.25.61.76.84,1.24.8-.53.91-1.06,1.81-1.6,2.71,0-.03.01-.04.01-.06-.06-2.29-.45-4.5-1.07-6.66ZM140.15,153.82c-.19-.97-.42-1.92-.68-2.85.73.46,1.97.15,1.83-.9-.28-2.08-.78-4.08-1.39-6.05.1.14.19.27.29.42.2.29.59.31.82.12.45,1.21.87,2.43,1.25,3.66.09.31.3.52.55.65-.85,1.67-1.74,3.32-2.68,4.95ZM144.24,146.02c-.33-2.41-.76-4.78-1.32-7.12.2.32.36.65.57.97.28.43.73.56,1.13.49.33.74.7,1.46,1.02,2.2.03.08.08.13.12.19-.51,1.09-1.02,2.18-1.52,3.27ZM148.2,137.52c-.47-2.38-1.12-4.69-1.88-6.96.1-.06.19-.14.21-.26.05-.23.08-.44.12-.67.57.9,1.12,1.8,1.72,2.69.53.78,2.11.6,1.97-.54-.22-1.79-.7-3.45-1.31-5.05.94.97,1.97,1.79,3.11,2.46-1.32,2.77-2.64,5.54-3.95,8.33ZM154.35,124.67c-.34-1.59-.8-3.11-1.39-4.56.38.29.95.31,1.31.05.1.64.29,1.33.64,1.9.13.21.32.34.53.4-.36.74-.72,1.47-1.08,2.21ZM157.53,118.21c-.03-.21-.06-.42-.09-.63.1,0,.2-.03.3-.07.01.04.03.08.05.12,0,.01.01.01.02.03-.09.18-.19.37-.28.55ZM158.68,115.95c-1.27-2.92-2.64-5.81-4.15-8.62,0-.29,0-.57.01-.86.36.59.71,1.19,1.07,1.78.77,2.03,1.79,3.98,3.32,5.83.17.2.37.27.57.27-.28.54-.54,1.07-.81,1.6ZM160.18,112.98c-1.19-2.24-2.47-4.41-3.8-6.56-.19-.67-.35-1.35-.59-2-.07-.24-.14-.48-.21-.73.12.05.24.04.35-.02.55,1.2,1.15,2.38,1.75,3.55.52,1.4.5,1.34,1.53,2.98.27.43.7.52,1.07.41.2.24.42.5.68.82-.26.52-.52,1.04-.78,1.55ZM162.11,109.27c-1.03-2.74-2.79-4.97-4.68-7.11-1.1-2.49-2.07-5.03-2.95-7.6.01-.32.03-.62.06-.88.15.23.3.45.46.68,1.63,4.79,3.96,9.15,7.98,13.27-.29.55-.59,1.1-.88,1.65ZM164.16,105.41c-.9-1.94-1.91-3.8-3.03-5.59.15,0,.3-.06.32-.23.07-.47.1-.93.15-1.4.19.26.38.52.58.78.88,1.4,1.82,2.78,2.86,4.12.03.04.06.08.08.12,0,0,0,0,0,0,.04.05.08.11.12.16-.37.67-.72,1.35-1.08,2.03ZM165.69,100.57c-.69-1.02-1.41-2.02-2.14-3.01-.63-1.01-1.22-2.04-1.79-3.08,0-.02,0-.03,0-.05,1.41,1.82,2.87,3.6,4.33,5.41-.14.24-.27.49-.41.73ZM167.25,97.36c-.25-.65-.47-1.32-.74-1.96.63.44,1.66-.12,1.42-.99-.45-1.65-.99-3.22-1.57-4.78.7,1.1,1.41,2.19,2.07,3.32.37.63,1.04.53,1.39.11-.01.03-.02.05-.04.07-.85,1.43-1.7,2.84-2.53,4.22ZM194.63,42.3c-.06-.06-.09-.12-.17-.17l-1.51-1.27c.66.36,1.32.71,1.98,1.08-.11.12-.2.24-.3.36ZM189.77,39.91c-.46-.49-.95-.97-1.46-1.45.65.32,1.3.66,1.95.98-.2.11-.39.25-.49.46ZM185.77,37.42c-.04-.06-.07-.11-.1-.17.07.03.13.06.2.09-.04.02-.07.05-.1.08ZM183.76,37.3c-.32-.17-.66-.32-1.01-.44-.26-.44-.5-.83-.69-1.16.55.22,1.09.45,1.63.68.02.31.05.61.07.92ZM180.01,36.02c-.48-.57-.98-1.12-1.47-1.68.7.25,1.4.5,2.09.77-.34.17-.62.5-.62.91ZM108.74,193.97s0-.09,0-.14c.1.06.2.12.3.18-.1-.02-.2-.02-.3-.04ZM99.64,189.3c0-.08,0-.15,0-.22.06.04.12.09.19.14-.06.03-.12.05-.18.08ZM115.31,195.32c-1.74-2.53-4.34-4.6-7.25-5.57-2.63-.87-5.66-2.14-8.49-2.59-.06-2.21-.06-4.42.02-6.65.23-6.16-1.09-12.29-.7-18.4,1.24-.2,2.11-1.51,1.76-2.55,4.07-2.5,10.08,4.3,10.36,8.26.01.1.17.13.18.02.03-.16.02-.32.04-.48.47.69,1.55.95,2.01,0,.11-.24.23-.49.35-.73,2.62-.18,5.46-.16,7.73.84.65.28,1.17.69,1.65,1.14.1.24.19.5.3.73.14.31.4.43.67.43,1.43,2.2,1.74,5.25,1.82,7.73.03.83.61,1.28,1.25,1.39.25.78,1.1,1.41,2.03.9,1.97-1.1,4.39-1.49,6.62-1.46.95.01,2.31.05,3.1.67.41.32.57.77.59,1.26-7.98,4.95-16.09,9.88-24.02,15.05ZM167.77,98.75c-.07-.21-.16-.41-.24-.62.98-1.59,1.96-3.19,2.9-4.8.13-.19.26-.38.39-.57.05.07.09.14.14.21-1.07,1.93-2.13,3.86-3.19,5.79ZM194.46,47.96c-.94,2.13-1.9,4.24-2.9,6.34.81-2.2,1.73-4.34,2.9-6.34ZM161.18,36c3.86-.22,7.46-.8,11.27-1.5.12-.02.07-.24-.05-.19-3.3,1.17-7.22.87-10.75.67,1.44-3.2,2.83-6.42,4.16-9.66.96,4.15,5.12,6.24,8.99,7.68-.16.22-.33.44-.49.65-.89,1.03-1.64,2.15-2.26,3.34-.49.76-.99,1.52-1.45,2.3-.78-.27-1.61.56-1.32,1.42-3.49.1-7.03.03-10.49.47.81-1.72,1.59-3.44,2.38-5.17ZM162.56,175.73c-1.02,14.61-.47,29.32-.52,43.96-8.02-1.35-16.02-.55-24.15.06-11.36.85-22.94-.06-34.29-.67-20.59-1.09-43.64-2.86-64.21.56,0-.06.03-.1.03-.17.11-55.54,4.56-112.34-2.17-167.6,17.4-1.35,34.55.35,51.94.17,19.79-.22,39.6,3.15,59.35,2.18-7.49,14.2-14.35,28.79-21.44,43.05-.14-.03-.25-.09-.41-.09-23.91-.48-48.24-2.48-72.09-.65-.36.03-.36.53,0,.56,23.39,2,47.27,3.84,70.78,3.65-2.33,4.67-4.65,9.34-6.97,14.02-.32-.34-.78-.57-1.4-.55-11.55.37-22.99-1.47-34.51-1.27-8.72.15-19.18,3-27.72.46-.76-.23-1.08.78-.5,1.2,6.26,4.53,16.39,2.84,23.59,2.74,12.97-.19,25.9,1.34,38.86.82-2.84,5.74-5.66,11.5-8.46,17.26-4.94-1.64-11.03-.75-16.05-.71-10.74.08-21.49-.43-32.23-.7-.57-.01-.58.73-.13.92,8.45,3.45,18.56,3.33,27.57,3.78,5.47.27,13.51-1.31,18.9.53-1.2,2.09-3.32,5.36-5.11,8.72-.03.01-.06.02-.09.03-.28.12-.33.39-.25.62-1.87,3.62-3.22,7.22-2.51,9.48-12.15-4.66-30.13-3.7-41.76,1.14-.67.28-.43,1.19.3,1.08,6.22-.94,12.84-.87,19.12-.83,6.89.04,15.01-.28,21.49,2.45-1.01,5.24-.77,10.71-.57,16.02v.03c-8.26-2.67-17.26-1.64-26.08-.58-3.36-.32-6.69-.29-8.99.94-.99.07-1.98.13-2.96.17-.1,0-.13.16-.02.19.7.17,1.39.31,2.09.43-.27.57-.1,1.29.5,1.69,2.01,1.33,4.59,1.11,6.92,1.22,4.36.2,8.71.48,13.06.71,2.04.11,5.8.38,9.03-.01,2.21.21,4.41.02,6.6-.52.18,4.68.34,9.35.5,14.04-14.11-.42-28.17-.27-41.94,1.64-.09.01-.09.17,0,.18,13.8,1.99,27.92,2.97,42.1,3.45.06,2.02.14,4.04.19,6.05-.03.1-.01.19.04.26.2,1.37,2.18,1.44,2.51.21.16-.01.32-.05.48-.13.22-.09.4-.23.55-.44.7-.72,1.4-1.45,2.09-2.19,2.19-1.11,4.37-2.27,6.53-3.45,13.5.23,26.98.14,40.22.17,2.41,0,2.41-3.74,0-3.74-10.55-.03-21.24-.57-31.98-1.11,6.86-4.03,13.58-8.33,20.07-12.78.18.15.39.28.65.35,1.55.47,3.37-.1,4.91-.43.06-.01.12-.03.18-.04.26.03.52.05.79.08.6.06.98-.26,1.18-.68.84-.35,1.62-.8,2.38-1.46.32-.28.05-.79-.33-.8-1.53-.02-3.07-.02-4.6-.1-.35-.02-.71-.06-1.07-.12,9.23-12.35,15.79-27.23,21.9-42.06.3,12.23-1.04,24.47-1.89,36.66ZM202.19,56.58c-1.27,2.15-2.46,4.35-3.6,6.58-.47-.68-.98-1.35-1.42-2.03-1.1-1.72-2.12-3.49-3.15-5.26-.06-.11-.21-.01-.16.09.71,1.68,1.44,3.36,2.2,5.01.53,1.16,1.06,2.5,1.78,3.64-1.25,2.51-2.46,5.06-3.69,7.62-.95-3.15-2.9-5.99-4.43-8.84-.06-.12-.25,0-.17.1,2.28,3.04,2.33,6.97,3.85,10.32-.21.44-.42.87-.63,1.31-.69,1.42-1.43,2.81-2.14,4.22-.99-2.8-2.07-5.58-3.05-8.39-.04-.11-.22-.07-.18.05.96,2.94,2.04,5.85,3.01,8.78-1.38,2.7-2.78,5.38-4.22,8.04-1.75-1.68-3.16-3.82-3.89-6.14-.07-.23-.42-.14-.36.1.58,2.49,1.91,4.84,3.61,6.74.06.07.14.07.21.09-1.73,3.17-3.47,6.34-5.22,9.49-1.45-2.49-2.67-5.11-3.71-7.79-.04-.11-.21-.07-.18.05.88,3,1.96,5.95,3.33,8.76-1.41,2.53-2.79,5.07-4.16,7.61-.74-1.69-1.42-3.4-1.76-5.24-.13-.71-1.22-.41-1.09.3.41,2.19,1.29,4.18,2.18,6.18-.38.71-.78,1.42-1.16,2.13-1.35,2.54-2.62,5.15-3.85,7.78-.68-1.7-1.66-3.37-2.29-5-.73-1.89-1.46-3.75-2.39-5.54,2.25-4.35,4.53-8.66,6.81-12.96.56.1,1.17-.34.99-1.04-.05-.19-.1-.37-.15-.55,2.34-4.39,4.65-8.77,6.94-13.17.65-.07,1.27-.65,1.02-1.42-.04-.11-.08-.21-.12-.32,1.35-2.6,2.66-5.21,3.96-7.83.21-.34.42-.68.63-1.02,1.51-2.4,2.59-5.02,3.56-7.69,2.31-4.97,4.49-10.02,6.51-15.17.5-.71,1.02-1.39,1.62-2.05.2-.22.31-.45.37-.68,2.86,1.67,5.68,3.42,8.46,5.24.48.31.93.31,1.32.14-.84,1.09-1.64,2.21-2.4,3.33,0-.05,0-.1-.03-.15-1.03-1.49-2.05-3.01-3.34-4.3-.17-.17-.43.09-.26.27,1.22,1.3,2.16,2.82,3.12,4.31.09.14.24.15.36.09-.77,1.15-1.5,2.31-2.21,3.48-1.12-2.11-2.21-4.22-3.01-6.48-.12-.34-.66-.2-.54.15.83,2.45,1.97,4.74,3.13,7.04Z"/>
  <path class="st0" d="M115.66,162.52c.12.54.58.78.8,1.24h0s.01.03.02.04c.12.13.36,0,.31-.18-.14-.42-.54-.69-.58-1.17-.02-.23-.21-.29-.37-.24-.01-.02-.02-.05-.04-.07,0,.03.02.05.03.08-.12.04-.21.14-.18.31Z"/>
  <path class="st0" d="M91.48,78.3c8.09-.07,16.18-.56,24.26-.93,6.72-.31,14.08.38,20.45-1.88,1.23-.44,1.26-2.1,0-2.53-12.01-4.07-28.72.08-41.26.65-14.12.63-27.91-.67-41.94-1.72-.19-.01-.25.26-.09.35,11.68,6.3,25.62,6.19,38.59,6.07Z"/>
</svg>