<?xml version="1.0" encoding="UTF-8"?>
<svg id="Layer_1" xmlns="http://www.w3.org/2000/svg" version="1.1" viewBox="0 0 244.78 247.68">
  <!-- Generator: Adobe Illustrator 29.1.0, SVG Export Plug-In . SVG Version: 2.1.0 Build 142)  -->
  <defs>
    <style>
      .st0 {
        fill: #9c3a30;
      }
    </style>
  </defs>
  <path class="st0" d="M115.59,52.68s-.08-.04-.12-.06c-1.49-5.86-4.43-11.52-6.67-16.96-.16-.38-.74-.24-.63.17.08.29.15.58.23.87-.39-.03-.76.15-.98.64-3.86,8.77-1.87,19.63-1.54,28.89.34,9.7.78,23.39-10.89,26.36-.31.08-.46.28-.52.5-.06-11.64,0-23.27-.71-34.89-.37-6.12-.77-12.4-2.26-18.37-.72-2.86-1.8-7.68-4.87-9.01-.67-.29-1.26.63-.59,1.01,3.06,1.68,3.38,7.78,3.75,10.75.75,6.02,1.3,12.01,1.55,18.07.03.73.05,1.45.08,2.18-.89,3.53-2.09,7-3.3,10.46-.19.55.7.8.87.24.9-2.84,1.78-5.68,2.5-8.55.25,9.45.07,18.91,0,28.37-.01,1.88,2.85,1.91,2.97.12.09.39.44.73.94.63,10.28-2.16,12.88-12.35,13.12-21.6.15-6.05-.41-12.1-.64-18.13-.18-4.81-.41-10.16,1.28-14.78,1.65,6.21,3.25,12.41,4.79,18.65.06.24.18.42.33.56.4,2.95,1.21,5.95,1.45,8.75.61,6.98.51,14.05-.21,21.03-.64,6.26-1.97,12.65-4.65,18.38-.09.2-.19.38-.28.57-.02.01-.04.02-.06.04-1.98,1.85-4.97,1.32-6.29-1.02-.12-.22-.45-.02-.33.19,1.26,2.32,3.99,3.02,6.13,1.81-.39.66-.81,1.27-1.26,1.81-.25-.11-.55-.09-.83.16-.79.72-1.56,1.6-2.35,2.5-1.67.91-3.63,1.38-5.96,1.44-.18,0-.33.04-.45.1-.06-.02-.11-.03-.17-.06.2-1.18.42-2.33.68-3.42.02-.08-.1-.12-.13-.04-.34,1.09-.63,2.2-.91,3.3-.13-.06-.27-.12-.4-.2-1.91-1.09-1.25-3.59-.65-5.25.09-.24-.28-.33-.37-.1-.75,1.82-1.34,4.09.3,5.61.28.26.62.47.97.64-.1.39-.19.79-.29,1.19-.14-.32-.29-.63-.45-.94-.2-.39-.85-.12-.71.3.27.8.44,1.64.56,2.49-.71-.07-1.45-.27-2.24-.66-.32-.15-.68.24-.39.51.76.71,1.59,1.25,2.46,1.61-.27,1.17-.56,2.33-.87,3.48-1.25,4.62-3.46,8.32-6.24,12.14-.38.51.39.97.81.63,4.24-3.49,5.77-8.87,6.75-14.36.02.42.04.83.06,1.24.1,1.95.25,3.91.4,5.86-.39,1.82-.89,3.63-1.5,5.43-1.18,3.49-3.51,6.68-4.43,10.18-.16.6.54.92.97.57,2.85-2.33,4.2-6.81,5.33-10.22h0s0,.11.01.17c.11,2.47.18,4.95.24,7.42-.56,3.4-1.81,6.59-3.07,9.83-1.04,2.65-2.18,5.22-1.15,8.02.17.47.88.41.89-.12.07-4.75,2.13-9.17,3.4-13.76.08,5.88.06,11.75.03,17.63-2.27,4.53-4.82,9.27-4.34,13.85.04.4.63.68.85.23,1.47-3.15,2.12-6.67,3.43-9.91.01-.03.02-.06.04-.09-.02,4.11-.08,8.22-.21,12.33-1.98,4.04-3.44,8.25-4.34,12.76-.18.91,1.23,1.27,1.37.38.58-3.7,1.56-7.23,2.88-10.64-.2,5.34-.52,10.68-1.04,16-.35,3.62-.81,7.25-1.65,10.78-.26,1.08-.55,2.18-1.02,3.19-.17.37-.21.77-.25,1.16-.27,0-.55,0-.84-.02-.61-.02-1.23-.09-1.84-.19.17-.52.08-1.15-.3-1.6-3.87-4.54-5.83-9.72-7.25-15.51,0-.02,0-.04-.01-.06.66.78,1.31,1.58,1.94,2.39,1.41,1.82,2.33,4.08,3.9,5.74.38.4.97-.02.87-.5-.42-2.08-2.02-3.81-3.37-5.38-1.13-1.32-2.37-2.52-3.66-3.68-.77-3.38-1.38-6.81-1.87-10.25,1.16,3.62,2.9,6.86,5.93,8.83.45.29.95-.27.71-.71-1.97-3.52-3.93-6.78-5.22-10.65-.5-1.51-.97-3.02-1.46-4.53.1-1.51.21-3.02.33-4.53.9,1.86,1.98,3.55,3.22,4.92.43.47,1.29-.02,1.08-.63-.98-2.89-2.76-5.52-3.97-8.35.15-1.74.29-3.48.43-5.22.03-.39.05-.78.08-1.18,1.05,2.42,2.53,4.6,4.73,6.38.37.3,1.04-.1.71-.55-2.44-3.4-3.99-6.99-5.22-10.69.06-2.78.02-5.54-.09-8.31.37.26.92.1,1.18-.28.92,1.64,2.01,3.15,3.28,4.46.43.44,1.33,0,1.08-.63-1.29-3.26-3.14-6.22-4.45-9.47-.04-.09-.07-.19-.11-.29-.2-1.69-.44-3.39-.65-5.09.27.08.6-.03.65-.35.64-3.63-.11-7.44-1.42-11.05-.09-1.83-.16-3.65-.22-5.48.24.06.48.12.73.17,1.95.45,2.78-2.55.83-3-.54-.12-1.08-.25-1.61-.38.24-1.62.64-3.21,1.26-4.74.03-.07-.08-.11-.12-.05-.5.77-.93,1.57-1.33,2.39.08-.48-.33-1.02-.83-.99-1.78.11-3.42.91-5.11,1.57-4.06-1.49-7.82-3.61-10.7-7.01-4.31-5.08-5.51-12.48-6.74-18.8-.75-3.82-1.42-7.67-1.96-11.55-.22-6.29-.08-12.6.21-18.74,0-.09-.12-.08-.13,0-.44,3.31-.8,6.64-1.04,9.98-.13-1.6-.23-3.19-.29-4.79-.31-7.96.49-17.14,5.45-23.7,1.43,5.15,1.01,11.1,1.18,16.38.25,7.75.5,15.53,1.63,23.21.74,5.04,2.12,11.71,6.23,15.19,3.45,2.92,10.46,1.62,11.96-2.84.19-.58-.39-.94-.88-.88-.15.02-.29.05-.43.08,4.32-18.7,3.81-37.91,3.35-56.98-.01-.67-1.02-.67-1.04,0-.46,19.05-.7,38.62-5.29,57.21-.1.41-.03.76.14,1.05-.97.54-1.96,1.06-3.14,1.16-1.96.16-3.39-1.25-4.39-2.76-3.16-4.79-3.8-11.45-4.63-16.98-1.02-6.8-1.49-13.67-2.05-20.52-.37-4.47-.37-9.45-1.84-13.74-.05-.15-.15-.23-.26-.28.08-.1.15-.2.23-.3.49-.56-.27-1.35-.82-.82-6.53,6.16-7.99,14.93-8.11,23.53-.13,9.31,1.36,18.78,2.96,27.92.09.55.19,1.1.3,1.64.31,2.73.71,5.45,1.26,8.15,1.15,5.76,3.2,12.65,8.15,16.32,2.52,1.87,6.65,2.68,10.31,2.07.68.23,1.37.45,2.06.66-1.48,5.86-1.81,12-2.16,18.01-.62,10.61-.52,21.16.2,31.77.38,5.64.9,11.33,1.72,16.96-.03,6.36.4,12.71,1.74,19.01.55,2.56,1.13,5.84,2.47,8.12.95,1.62,4.46,2.22,6.09,2.67,2.79.77,8.08,2.22,9.88-.85.29-.49.16-1.06-.21-1.42,2.23-3.15,2.48-10.03,2.77-12.36,1.33-10.67,1.58-21.49,1.69-32.23.12-11.51-.38-23-1.32-34.46-.34-4.1-.47-8.77-1.33-13.13h0c0-.06-.02-.09-.03-.13-.14-.68-.29-1.36-.46-2.02.91.04,1.84-.11,2.79-.5,1.64-.67,3.2-1.78,4.44-3.16,2.25-.97,4.26-2.68,5.79-4.67,4.31-5.57,5.84-12.8,6.82-19.62,1.1-7.66,1.27-15.46.75-23.18-.33-4.83-.13-13.07-4.51-16.19ZM80,153.8c-.11-2.88-.2-5.77-.26-8.66.12.57.23,1.14.33,1.72,0,2.32-.02,4.63-.07,6.93ZM79.81,144.24s-.05-.07-.08-.08c-.04-2.26-.07-4.53-.08-6.79-.03-5.3-.2-10.83.21-16.19.24.62.45,1.23.64,1.85-.8,4.9-.63,10.06-.52,14.86.05,2.41.09,4.8.1,7.18-.09-.28-.17-.56-.26-.84ZM82.54,116.01c-.26.57-.49,1.16-.7,1.75-.28-.07-.55-.14-.82-.22.58-.44,1.09-.95,1.52-1.53ZM66.21,114.35c-1.01-.98-1.86-2.1-2.6-3.32.09.12.18.25.28.37,1.28,1.61,2.81,2.96,4.48,4.1,0,.1.04.21.18.23.08.01.15.03.23.04.59.39,1.19.75,1.81,1.1-1.63-.42-3.11-1.31-4.37-2.52ZM98.92,118.04c-.11-.31-.22-.61-.34-.91.06-.4.12-.79.19-1.19.12.23.31.42.58.54.68.29,1.35.47,2.03.58-.76.49-1.58.84-2.46.98Z"/>
  <path class="st0" d="M86.71,60.21c2.34-6.41,3.13-13.36,2.09-20.11-.05-.33-.54-.19-.5.14.93,6.9-.5,13.16-2.34,19.76-.13.49.58.67.75.21Z"/>
  <path class="st0" d="M86.61,96.82c2.32-5.26,3.21-11.14,4.21-16.76.02-.08-.1-.12-.12-.04-1.25,5.65-2.85,11.06-4.68,16.54-.11.34.45.59.59.25Z"/>
  <path class="st0" d="M189,46.18c-3.9-12.82-16.63-20.7-29.92-17.38-12.59,3.15-19.05,17.2-20.8,28.9-.8,5.32-.37,10.49.28,15.8.95,7.71,2.58,15.37,5.27,22.67,1.99,5.4,4.58,10.35,8.97,14.14,1.7,1.47,3.52,2.83,4.82,4.67.25.36.47.73.65,1.11-1.27,18.64-4.31,37.04-4.22,55.79.08,15.54.92,38.7,16.4,47.44.88.5,2.03.38,2.75-.36.05-.05.09-.09.14-.14.54-.02,1.02-.18,1.38-.56,3.67-3.75,5.58-8.61,6.62-13.68,2.9-14.17-.12-29.47-2.69-43.46-1.4-7.62-3-15.19-4.41-22.81-1-5.43-1.56-10.88-2.25-16.33.18-1.66.43-3.32.88-4.94,1.01-3.68,2.99-7.03,5.05-10.21,3.9-6.05,8.27-11.65,10.75-18.5,2.33-6.46,2.38-14.19,2.6-20.99.24-7.1-.21-14.35-2.28-21.17ZM163.12,201.77c.05.65.11,1.29.21,1.93-.65-1.61-1.2-3.28-1.67-4.94,0-.03-.02-.06-.02-.09.38,1.07.87,2.1,1.48,3.1ZM160.5,192.26c-.35-2.54-.58-5.09-.76-7.63.31.6.69,1.15,1.14,1.66-.29,2.02-.45,4.02-.39,5.97ZM186.38,83.85c-3.11,15.07-23.51,28.33-16.8,45.01.38,2.67.92,5.32,1.36,7.85,1.25,7.21,2.77,14.38,4.15,21.57,2.74,14.28,5.87,29.58,3.82,44.16-.22,1.56-1.15,6.14-2.58,9.54-.33-.11-.72-.06-1.03.23-.55.52-1.18.95-1.83,1.35-.05-3.17-.24-6.3-.5-9.47-.03-.33-.49-.33-.52,0-.23,2.82-.41,5.6-.48,8.41-1.41-2.64-2.44-5.15-2.5-8.47-.07-3.65.91-7.29,1.97-10.75.37-1.21-1.47-1.69-1.87-.52-1.51,4.36-3.45,11.55-2.06,16.93-1.83-4.61-2.78-9.12-2.31-14.34.55-6.12,2.78-12.28,5.42-17.77.07-.15-.13-.27-.22-.13-3.23,5.27-6.28,12.18-7.11,18.99-.31-1.46-.56-2.93-.63-4.49-.15-3.51.28-7.04.85-10.48.96-5.76,2.37-11.4,2.76-17.25.02-.25-.36-.24-.39,0-.74,5.88-3.22,12.71-4.54,19.47-2.69-10.02.26-22.85,7-30.5.06-.06-.03-.15-.09-.09-4.56,4.41-7.39,10.87-8.82,16.96-.1.43-.2.89-.3,1.35-.12-4.14-.14-8.27-.11-12.41,0-.07,0-.13.01-.2,1.72-5.76,4.34-11.4,7.1-16.7.04-.08-.06-.13-.11-.07-2.06,2.85-3.88,5.8-5.45,8.88.22-3.29.17-6.65.65-9.9.74-5.03,1.97-10.21,4.92-14.42.04-.06-.05-.13-.1-.08-2.9,3.28-4.65,7.27-5.71,11.47.08-1.33.14-2.66.2-3.99.71-3.69,1.07-7.42,2.03-11.1,1.05-4.01,1.69-7.67,1.37-11.83,0-.09-.12-.08-.13,0-.51,4.22-1.78,8.32-3.03,12.38,0-2.65-.07-5.3-.23-7.95-.05-.94-.95-1.25-1.58-.95-.81-1.68-2.03-3.26-3.73-4.78-6.61-5.89-9.38-13.89-11.42-22.36-3.68-15.27-5.38-32.09,3.53-45.9,3.79-5.87,9.74-9.97,16.81-10.31,7.57-.37,14.99,3.34,19.01,9.72,3.87,6.16,4.65,13.98,4.83,21.08.18,7.15-.15,14.86-1.6,21.87Z"/>
  <path class="st0" d="M151.02,56.78c.39-10.18,7.56-18.4,17.28-20.98.08-.02.05-.14-.03-.13-9.99,2.27-18.02,10.6-18.16,21.11,0,.59.89.58.91,0Z"/>
  <path class="st0" d="M168.32,40.19s-.04-.08-.06-.04c-6.54,11-17.67,19.44-18.08,33.24-.01.43.7.54.76.1,1.06-6.67,3.36-12.5,7.03-18.18,3.31-5.14,7.08-9.95,10.35-15.13Z"/>
  <path class="st0" d="M157.29,70.73c-3.87,7.04-7.26,16.5-2.69,23.93.26.43,1,.15.83-.35-2.65-7.98.12-16.43,3.91-23.52,3.84-7.19,9.34-14.31,15.77-19.37.23-.18-.07-.57-.31-.41-7.49,4.89-13.23,11.93-17.51,19.71Z"/>
  <path class="st0" d="M181.53,57.85c-6.53,6.84-13.35,13.46-18.6,21.38-4.49,6.78-8.65,17.1-6.16,25.3.15.52.84.38.89-.12.48-4.64.18-9.02,1.41-13.61,1.13-4.2,3.16-8.15,5.41-11.85,4.71-7.72,11.17-14.27,17.14-21.01.05-.06-.03-.15-.09-.09Z"/>
  <path class="st0" d="M179.32,75.57c-4.08,4.65-8.39,9.09-11.96,14.17-2.92,4.16-6.01,9.65-4,14.81.24.61,1.17.38,1-.28-1.47-5.59,1.86-11.19,4.84-15.67,3.05-4.58,6.77-8.67,10.21-12.95.05-.06-.04-.15-.09-.09Z"/>
  <path class="st0" d="M177.01,88.77c-4.88,4.73-10.89,10.62-11.33,17.86-.03.45.64.51.76.1.99-3.45,1.97-6.55,3.94-9.61,1.92-2.98,4.45-5.54,6.9-8.08.17-.18-.09-.45-.27-.27Z"/>
  <path class="st0" d="M146.33,55.73c.05-.24-.32-.35-.38-.1-4.32,18.83-1.7,38.04,12.18,52.29.24.24.6-.13.37-.37-13.81-14.1-16.42-33.14-12.18-51.82Z"/>
</svg>