<?xml version="1.0" encoding="UTF-8"?>
<svg id="Layer_1" xmlns="http://www.w3.org/2000/svg" version="1.1" viewBox="0 0 244.78 247.68">
  <!-- Generator: Adobe Illustrator 29.1.0, SVG Export Plug-In . SVG Version: 2.1.0 Build 142)  -->
  <defs>
    <style>
      .st0 {
        fill: #9c3a30;
      }
    </style>
  </defs>
  <path class="st0" d="M155.73,133.29c-.04-2.89-.73-5.62-1.82-8.19-1.22-7.24-4.73-14.09-9.78-19.51-.61-.65-1.24-1.28-1.9-1.89.1-.54.2-1.08.27-1.63.02-.14-.2-.15-.23-.03-.12.44-.26.88-.41,1.32-5.02-4.53-11.35-7.75-17.99-8.98,2.69-2.83,2.67-9.59,3.09-12.54.93-6.51,1.66-13,2.17-19.56.89-11.57.89-23.52-.58-35.1-.21-2.28-.54-4.56-1.03-6.82-.04-.2-.34-.15-.35.05-.02.56-.04,1.12-.06,1.68-.14.06-.25.16-.28.33-2.17,12.87-4.02,25.84-5.91,38.76-.95,6.49-1.92,12.97-2.75,19.48-.31,2.43-2.12,9.74-.33,13.18-3,.01-6,.46-8.91,1.41-5.3,1.74-9.82,4.98-13.42,9.1-.05-.09-.1-.18-.16-.27-.19-.34-.66-.04-.51.3.07.16.15.33.23.49-4.33,5.14-7.26,11.56-8.51,18.06-2.43,12.67,2.17,26.35,11.61,35.12,5.54,5.15,12.67,8.19,20.06,8.91.02.02.04.04.06.06.28.25.64.21.88.01,3.98.28,8.02-.1,11.91-1.22,13.61-3.9,24.85-18.23,24.67-32.51ZM146.14,139.37c-1.68-2.65-3.16-5.38-4.51-8.17.2-.35.39-.7.59-1.04.2.28.4.56.6.84,1.33,1.8,2.76,3.97,4.63,5.31-.42,1.03-.85,2.05-1.31,3.06ZM130.46,159.44c1.05-3.11,1.14-6.63,2.13-9.79.03-.11.07-.22.11-.33,1.81,2.1,3.75,4.06,5.85,5.76-2.45,1.86-5.17,3.34-8.09,4.36ZM130.26,149.01c-.91,2.49-2,5.68-1.94,8.58-2.81-2.79-5.88-5.39-8.88-8.04.69-2.14,1.54-4.24,2.5-6.3,1.51,1.63,3.08,3.19,4.76,4.56.89.72,1.97-.36,1.25-1.25-1.53-1.89-3.26-3.64-5.01-5.38.53-1.05,1.07-2.09,1.63-3.12,1.95,3.07,4.06,6.2,6.38,9.14-.24.6-.48,1.19-.7,1.8ZM115.06,158.61c-.22-.12-.44-.22-.66-.35-2.99-1.72-5.56-4.08-7.88-6.62.05-3.66,1-7.35,2.37-10.92.97,1.21,1.97,2.4,3.04,3.56,1.55,1.7,3.18,3.33,4.84,4.93-.43,1.32-.81,2.66-1.1,4.02-.37,1.72-.62,3.56-.61,5.38ZM103.27,132.51c1.11,1.94,2.32,3.81,3.64,5.62-1.47,3.3-2.66,6.76-3.19,10.25-.71-.88-1.41-1.77-2.08-2.68-.33-4.47.38-8.89,1.63-13.19ZM129.84,102.39c2,3.59,4.87,6.72,7.85,9.8-.64,1.11-1.3,2.2-1.96,3.28-1.34-3.02-2.49-6.13-3.49-9.28-.25-.79-1.49-.46-1.25.34.66,2.23,1.39,4.42,2.21,6.58-1.47-2.47-3.18-4.76-5.26-6.77.66-1.3,1.3-2.61,1.89-3.95ZM127.73,106.75c3,3.11,5.07,6.78,6.81,10.67-.09.15-.18.29-.27.43-1.39,2.27-2.83,4.52-4.26,6.76-.86-1.22-1.72-2.43-2.54-3.63-1.42-2.08-2.85-4.15-4.29-6.21,1.59-2.63,3.14-5.29,4.56-8.02ZM125.71,122.01c1.02,1.52,2.01,3.08,2.99,4.65-1.62,2.53-3.22,5.06-4.76,7.64-2.19-3.45-4.29-7-6.23-10.62,1.43-2.38,2.91-4.73,4.36-7.1,1.2,1.81,2.42,3.62,3.64,5.43ZM121.08,139.33c-.78-.78-1.55-1.57-2.3-2.38-1.8-1.94-3.54-3.93-5.24-5.96.36-.67.72-1.32,1.07-1.96.8-1.45,1.63-2.87,2.47-4.29,1.81,3.76,3.82,7.41,6.02,10.97-.02.03-.04.06-.06.09-.68,1.15-1.33,2.33-1.97,3.52ZM116.47,121.32c-1.45-2.82-2.8-5.69-4.04-8.6-.08-.18-.39-.05-.32.14,1.13,3.18,2.39,6.29,3.78,9.35-1.42,2.19-2.8,4.41-4.12,6.67-.57-.7-1.14-1.41-1.7-2.12-1.05-1.34-2.07-2.7-3.06-4.08,2.46-5.46,5.38-10.85,8.78-15.87,1.64,2.67,3.34,5.31,5.06,7.93-1.47,2.19-2.94,4.38-4.38,6.59ZM108.81,127.72c.68.9,1.37,1.79,2.07,2.67-1.17,2.07-2.35,4.26-3.43,6.54-1.37-1.8-2.65-3.66-3.83-5.6.76-2.41,1.68-4.77,2.68-7.08.82,1.16,1.65,2.32,2.51,3.46ZM114.26,144.72c-1.69-1.71-3.31-3.48-4.84-5.32.97-2.35,2.1-4.63,3.25-6.8,1.35,1.64,2.73,3.24,4.12,4.84,1.09,1.24,2.18,2.52,3.3,3.78-1.05,2.09-1.99,4.22-2.79,6.41-1.04-.95-2.07-1.92-3.05-2.91ZM125.41,136.55c.57-1.04,1.15-2.06,1.73-3.08.91-1.62,1.85-3.22,2.8-4.82,1.86,3.01,3.71,6.04,5.68,8.96-.11.2-.23.39-.34.59-1.28,2.26-2.43,4.59-3.46,6.96-2.24-2.77-4.39-5.61-6.4-8.61ZM131.27,126.4c1.38-2.33,2.76-4.65,4.11-7,1.55,3.72,2.9,7.57,4.55,11.24-.98,1.49-1.94,2.99-2.87,4.52-1.77-3-3.78-5.91-5.8-8.76ZM138.73,124.84c.78,1.32,1.61,2.61,2.48,3.87-.15.22-.29.44-.44.67-.7-1.5-1.37-3.01-2.04-4.54ZM144.99,130.73c-.62-.75-1.21-1.53-1.79-2.31,1.16-2.06,2.3-4.12,3.39-6.22,1.47,2.13,2.66,4.4,3.38,6.9-.52,1.78-1.1,3.53-1.75,5.26-.98-1.27-2.21-2.41-3.22-3.63ZM145.99,121.36c-1.21,1.93-2.46,3.84-3.72,5.74-.98-1.42-1.91-2.88-2.79-4.37-1.06-1.77-2.01-3.59-2.89-5.44.23-.41.47-.81.7-1.23.51-.93,1-1.86,1.48-2.8,2.57,2.63,5.14,5.24,7.24,8.09ZM142.99,110.17c-.66-.69-1.33-1.35-2.01-2.02.02-.04.03-.09.05-.13.68.69,1.34,1.4,1.96,2.15ZM140.28,107.27s-.04.08-.06.13c-.85-.81-1.7-1.61-2.58-2.39.92.71,1.8,1.47,2.64,2.27ZM98.8,107.16c8.13-9.44,19.99-11.04,30.67-6.78-.19.37-.23.82-.05,1.22-.13,0-.26.07-.35.23-.69,1.2-1.41,2.4-2.14,3.58-.53-.47-1.08-.92-1.66-1.34-.16-.12-.37.15-.21.28.58.45,1.13.93,1.66,1.41-1.53,2.46-3.12,4.89-4.73,7.3-1.76-2.53-3.53-5.05-5.28-7.58,1.34-1.9,2.75-3.75,4.23-5.51.05-.06-.03-.14-.08-.08-1.56,1.66-3.03,3.39-4.44,5.18-1.24-1.79-2.48-3.58-3.71-5.37-.34-.5-1.11-.06-.81.47,1.15,2.07,2.35,4.11,3.59,6.13-3.6,4.75-6.69,9.9-9.28,15.26-1.52-2.15-2.97-4.35-4.38-6.57,2.84-5,6.06-9.72,8.64-14.87.2-.41-.36-.74-.61-.36-2.91,4.59-6.16,8.96-9.08,13.55-1-1.63-1.98-3.27-2.94-4.92.32-.41.65-.82.99-1.21ZM97.18,109.2c.91,1.78,1.86,3.53,2.85,5.26-.12.19-.24.38-.36.57-2.46,4.06-5.99,10.04-5.46,14.97.11.99,1.38,1.2,1.73.24.81-2.21,1.05-4.62,1.81-6.87.84-2.48,2.05-4.83,3.32-7.11,1.38,2.31,2.85,4.57,4.39,6.79-.07.16-.15.32-.23.48-.86,1.9-1.76,3.98-2.57,6.17-1.13-2-2.15-4.06-3.04-6.2-.11-.27-.56-.17-.45.13.89,2.47,1.94,4.82,3.13,7.09-1.42,4.05-2.48,8.39-2.42,12.54-1.65-2.35-3.23-4.75-4.8-7.15.32-1.34.73-2.65,1.21-3.91.05-.13-.15-.2-.22-.09-.62,1.04-1.13,2.09-1.56,3.15-1.17-1.79-2.35-3.57-3.56-5.33-.13-.18-.43-.02-.31.18,1.23,1.93,2.41,3.89,3.59,5.86-.77,2.12-1.18,4.27-1.21,6.38-4.45-10.95-2.84-23.6,4.16-33.13ZM95.2,146.76c-1.03-3.11-.99-6.48-.34-9.74,1.65,2.74,3.32,5.48,5.11,8.12.15,1.5.47,2.97.99,4.37.26.71,1.29.44,1.14-.31-.09-.46-.16-.92-.23-1.38.54.73,1.09,1.44,1.66,2.14-.19,2.13-.12,4.26.31,6.37-3.44-2.55-6.4-5.8-8.64-9.57ZM107.31,158.43c.09-.26.1-.56,0-.89-.4-1.35-.64-2.71-.74-4.09,2.43,2.51,5.36,4.96,8.57,6.7.02.15.03.31.05.46-2.7-.41-5.38-1.13-7.88-2.18ZM121.58,161c-1.15-.29-2.27-.61-3.38-1.01-.26-2.81-.1-5.6.73-8.66,0-.02,0-.03.01-.04.74.69,1.47,1.39,2.21,2.08,2.34,2.19,4.61,4.56,6.98,6.77-.7.18-1.41.33-2.13.45-1.43.24-2.91.38-4.43.42ZM139.54,154.29c-2.05-2.38-4.09-4.73-6.08-7.12,1-2.6,2.23-5.12,3.53-7.59.91,1.27,1.83,2.53,2.81,3.73.37.45,1.19-.03.98-.57-.71-1.88-1.58-3.71-2.54-5.5.85-1.57,1.72-3.12,2.6-4.67,1.34,2.71,2.91,5.29,4.91,7.6-1.84,3.84-4.52,7.25-6.16,11.15-.27.64.65,1.03,1.08.63,3.23-2.98,5.22-7.71,6.89-11.71.45-1.06.85-2.14,1.23-3.22.42.01.73-.42.53-.87-.05-.1-.1-.19-.15-.28.5-1.57.92-3.17,1.24-4.78.07.42.13.84.18,1.27-.05,1.13-.16,2.26-.34,3.39-1.16,7.29-5.12,13.91-10.71,18.54Z"/>
  <path class="st0" d="M69.36,130.1c4.41.22,10.35,2.09,13.92-1.16.48-.43.62-1.32.24-1.86-2.64-3.79-7.64-3.1-11.79-3.26-5.16-.2-10.33-.24-15.49-.2-9.92.07-20.03.25-29.92-.36-.28-.02-.42.43-.15.55,4.27,1.86,8.35,3.12,12.98,4.06,4.84.98,9.79,1.22,14.71,1.52,5.17.31,10.34.46,15.51.71Z"/>
  <path class="st0" d="M217.6,128.83c-16.15-.14-32.54.38-48.59-1.7-1.07-.14-2.03.69-2.59,1.49-.52.73-.58,1.47-.3,2.32.3.91,1.07,1.95,2.1,2.1,16.43,2.33,33.39.74,49.7-1.89,1.34-.22.98-2.3-.31-2.31Z"/>
  <path class="st0" d="M69.35,75.95c2.79,5.37,5.96,10.34,9.65,15.14,1.53,1.99,3.04,4.19,4.99,5.79.96.79,1.99,1.8,3.22,2.14,1.13.31,2.13-.14,3.21.05.9.15,2.08-.6,1.67-1.67-.66-1.71-.17-3.19-1.4-4.87-1.49-2.03-3.13-3.89-4.74-5.82-3.59-4.33-6.87-8.95-10.27-13.43-3.47-4.58-6.81-9.25-9.95-14.07-2.37-3.63-4.37-7.53-6.89-11.05-.18-.26-.69-.2-.66.18.36,4.04,2.17,7.94,3.71,11.65,2.26,5.42,4.73,10.76,7.44,15.97Z"/>
  <path class="st0" d="M178.95,181.57c-3.03-4-6.26-7.77-9.74-11.38-3.33-3.46-6.76-7.65-11.8-8.15-1.47-.15-2.76,1.63-2.27,2.98,1.48,4.14,5.23,6.48,8.3,9.42,3.66,3.5,7.09,7.26,10.58,10.93,6.41,6.77,12.5,14.12,19.6,20.19.4.34,1.01-.08.74-.57-4.49-8.14-9.8-16-15.41-23.42Z"/>
  <path class="st0" d="M89.66,155.51c-.09-.59-.79-.86-1.3-.74-3.53.83-5.59,4.3-7.6,7.03-2.84,3.85-5.51,7.83-8.35,11.68-4.73,6.41-9.67,12.62-14.31,19.08-.26.31-.49.64-.7.98-.59.83-1.18,1.67-1.76,2.51-.72.86.53,2.02,1.43,1.26,7.31-6.16,13.45-13.25,19.55-20.57,2.98-3.58,6.09-7.17,8.78-10.98,2.14-3.02,4.86-6.31,4.25-10.24Z"/>
  <path class="st0" d="M151.8,102.83c.27.61,1.13.88,1.73.7,2.71-.79,3.73-2.57,5.02-4.92,1.54-2.8,3.35-5.44,5.27-8,3.8-5.07,8.16-9.71,12.63-14.19,8.9-8.91,19.85-17.05,26.67-27.77.42-.67-.48-1.22-1.02-.79-4.93,4.01-9.55,8.44-14.39,12.57-5.17,4.4-10.44,8.66-15.54,13.14-4.94,4.33-9.71,8.9-13.82,14.04-3.13,3.92-8.9,9.91-6.54,15.22Z"/>
  <path class="st0" d="M121.84,174.5c.33-1.84,1.16-4.5.21-6.27-.36-.68-1.09-.82-1.78-.72-4.34.63-4.31,8.99-4.47,12.04-.33,6.18.26,12.33.96,18.47.13,1.17.28,2.35.43,3.52.26,8.4.52,16.79.77,25.19.03.99,1.5.99,1.53,0,.08-2.65.16-5.3.24-7.95.13.91.24,1.83.33,2.75.05.54.91,2.72.78,3.05-.01.03.02.05.05.04,2.09-1.44,1.53-4.2,1.5-6.49-.07-5.73-.45-11.44-.77-17.16-.36-6.25-.55-12.54-.44-18.8.05-2.56.2-5.13.66-7.66Z"/>
  <path class="st0" d="M101.03,172.12c-.99.75-2.02,1.41-2.91,2.27-1.06,1.02-1.56,3.18-2.08,4.52-1.32,3.37-2.21,6.88-3.11,10.38-1.9,7.4-3.74,15.03-7.5,21.76-.66,1.19,1.03,2.62,1.94,1.5,4.55-5.64,6.82-12.34,9.02-19.15,1.13-3.49,2.29-6.97,3.45-10.46.63-1.89,1.35-3.74,2.17-5.55.62-1.36.34-2.95.54-4.4.09-.72-.94-1.3-1.51-.86Z"/>
  <path class="st0" d="M74.46,143.4c.27-.52.07-1.36-.6-1.47-4.55-.73-9.13,2.85-13.03,4.82-4.72,2.38-9.28,5-13.71,7.87-1.48.95-.2,3.1,1.37,2.34,4.41-2.15,8.94-4.03,13.39-6.08,4.03-1.86,10.39-3.32,12.58-7.48Z"/>
  <path class="st0" d="M61.79,103.04c2.59,1.08,5.22,2.06,7.76,3.28,2.6,1.25,4.93,3.88,7.72,4.46,1.56.33,3.63-1.1,2.9-2.9-1.9-4.65-8.68-6.02-13.1-7.12-6.08-1.51-12.39-2.79-16.86-7.55-.27-.29-.79.1-.55.43,3.18,4.48,7.1,7.3,12.14,9.4Z"/>
  <path class="st0" d="M101.01,78.09c.03,2.75-.41,5.38.7,7.94.65,1.5,3.32,1.51,3.96,0,1.1-2.58.61-5.18.4-7.94-.22-2.89-.58-5.76-.97-8.62-.81-5.85-2.44-11.9-5.15-17.16-.36-.71-1.29-.17-1.18.5.87,5.76,1.51,11.45,1.95,17.26.2,2.67.27,5.35.3,8.03Z"/>
  <path class="st0" d="M141.77,89.63c1.86-2.17,2.49-5.03,3.43-7.69,1.09-3.1,2.11-6.22,3.08-9.36,1.77-5.71,3.01-11.82,3.11-17.81,0-.5-.64-.51-.81-.11-2.26,5.53-4.38,11.16-6.43,16.78-.99,2.71-2.05,5.4-3.13,8.07-1.12,2.78-2.83,5.55-2.98,8.57-.09,1.83,2.49,2.98,3.72,1.54Z"/>
  <path class="st0" d="M198.15,93.07c-5.82,1.36-10.88,3.81-16.15,6.58-5.71,3-11.74,5.53-17.38,8.63-2.76,1.52-.88,5.93,2.13,5.06,5.96-1.72,11.35-6.08,16.36-9.59,4.91-3.44,9.92-7.34,15.35-9.92.44-.21.12-.86-.32-.75Z"/>
  <path class="st0" d="M194.4,163.63c-4.83-2.93-9.93-5.31-14.66-8.45-2.3-1.53-4.58-3.09-6.86-4.65-2.38-1.64-4.47-3.76-7.4-4.24-1.81-.3-3.16,1.31-2.33,3.03,1.25,2.58,3.63,3.81,5.96,5.33,2.65,1.72,5.36,3.28,8.2,4.68,5.19,2.55,10.86,5.27,16.63,5.95.92.11,1.14-1.22.45-1.64Z"/>
  <path class="st0" d="M144.19,185.74c-.75-3.4-1.36-6.86-1.93-10.3-.3-1.81-.48-3.63-.81-5.43-.32-1.72-1.31-2.74-2.25-4.12-.5-.72-1.8-.96-2.24,0-.48,1.05-1.21,2.03-1.34,3.19-.23,2.12.01,4.08.31,6.19.61,4.43,1.46,8.7,2.83,12.96,2.22,6.91,5.62,13.72,11.56,18.13,1.24.92,2.5-1,1.57-2.03-4.48-5.03-6.28-12.15-7.7-18.58Z"/>
</svg>