<?xml version="1.0" encoding="UTF-8"?>
<svg id="Layer_1" xmlns="http://www.w3.org/2000/svg" version="1.1" viewBox="0 0 244.78 247.68">
  <!-- Generator: Adobe Illustrator 29.1.0, SVG Export Plug-In . SVG Version: 2.1.0 Build 142)  -->
  <defs>
    <style>
      .st0 {
        fill: #9c3a30;
      }
    </style>
  </defs>
  <path class="st0" d="M222.98,75.89c-.16.62-.32,1.23-.48,1.85-.02,0-.03,0-.04.02-3.14,2.25-6.72,4.53-9.52,7.39.54-2.13,1.11-4.25,1.68-6.37,1.02-.1,2.04-.23,3.02-.47.87-.2,1.38-.88,1.53-1.64.86-.05,1.71-.1,2.57-.15.42-.02.42-.63,0-.65-.86-.05-1.71-.1-2.57-.15-.15-.76-.65-1.44-1.52-1.65-4.7-1.11-9.92-.55-14.74-.65-5.26-.11-10.51-.3-15.76-.51-10.42-.42-20.83-1.02-31.23-1.61-20.93-1.2-41.95-2.54-62.88-.92-1.47.11-1.47,2.16,0,2.28,5.41.43,10.82.82,16.23,1.18-.01.12.11.26.23.17.06-.05.12-.09.19-.14,1.54.1,3.08.2,4.62.29.12.08.24.14.35.24,1.59,1.33,2.08,3.66,3.75,4.78.48.32,1.09-.11,1.1-.63.02-.64-.18-1.3-.5-1.95,1.48.31,2.74,1.06,3.8,2.16.24.25.44.53.63.83-6.32-.22-12.62-.02-18.82.9-.47.07-.33.79.11.8,6.74.21,13.43.72,20.1,1.4.14.33.31.65.56.93.28.31.87.16.95-.25.04-.17.04-.34.04-.51,8.06.86,16.09,1.95,24.15,3.07-.42,6.38-.37,12.77-.18,19.16-7.68.13-15.67,1.48-23.53,1.92-.42-2.57-.83-5.15-1.17-7.73-.72-5.4-.77-10.84-1.58-16.22-.1-.65-1.12-.59-1.26,0-1.82,7.63-1.07,16.02-.09,24.08-6.11.04-12.1-.7-17.76-3.27-.47-.21-1.03.37-.59.77,5.21,4.71,12.01,5.62,18.77,5.91.21,1.69.42,3.35.59,4.98.51,4.71,1.08,9.42,1.51,14.12-5.11-1.07-10.14-2.56-15.05-4.59-.08-.2-.15-.41-.23-.61-1.83-5.09-3.39-10.28-4.94-15.45-2.74-9.13-5.23-18.43-9.3-27.08-.62-1.32-1.29-2.63-1.98-3.94-1.99-8.79-6.6-16.83-11.28-24.84.2-.68-.23-1.35-.88-1.51-.63-1.08-1.26-2.15-1.88-3.23-.36-5.48-1.6-10.88-3.96-15.86-.44-.94-1.63-1.52-2.63-1.51-8.77.11-17.6.53-26.33,1.43-8.63.89-18.21.68-26.57,3.09-.72.21-.83,1.12-.33,1.55.87,6.78,1.63,13.53,1.47,20.38-.02.85.67,1.36,1.44,1.44,10.96,1.21,21.84,2.5,32.89,2.42,5.44-.04,13.69.04,19.84-2.41,5.35,15.66,10.89,31.47,17.56,46.73,1.12,3.18,2.2,6.37,3,9.65,1.07,4.36,2.15,8.72,3.3,13.06.47,1.78.82,5.39,2.64,6.47.16.1.32.11.47.1.35,2.41.81,4.8,1.66,6.95.22.57,1.13.53,1.12-.15-.06-4.17-1.44-8.51-2.22-12.61-.28-1.49-.57-2.98-.85-4.47.84,1.59,1.7,3.16,2.58,4.73.49,1.85.98,3.7,1.47,5.55.21.79,1.14.71,1.47.16.81,1.25,1.83,2.38,3.22,3.3,1.09.72,2.19-.27,2.33-1.33.44-3.3-.74-6.3-1.99-9.3,4.07,3.04,9.42,4.85,14.29,5.91.24,3.34.37,6.68.33,10.04-3.13-.66-6.22-1.55-9.27-2.75-.86-.34-1.46,1.09-.63,1.49,3.23,1.54,6.51,2.75,9.84,3.68-.05,1.24-.12,2.48-.23,3.72-6.35-.17-12.83-1.21-17.79-4.76-1.45-1.04-3.11,1.23-1.87,2.43,3.65,3.52,8.16,5.24,12.93,6.16,1.9,6.69,1.99,13.82,3.21,20.64.48,2.65,1.17,6.99,2.77,10.34-1.17.72-2.23,1.67-3.13,2.91-.44.61-.33,1.42.06,2.04-.07.14-.13.28-.2.42-.04-.09-.08-.18-.12-.28-1.64-4.07-2.57-8.43-3.44-12.72-1.61-8.02-2.74-16.09-5.94-23.69-.2-.47-.93-.31-.79.22,2.28,8.33,2.51,17.16,3.78,25.68.65,4.33,1.57,8.6,3.01,12.75.46,1.33.97,2.95,1.75,4.31-.03.34-.05.68-.05,1.02-.1,6.94,4.67,13.22,10.28,16.79,5.89,3.75,13.04,3.41,18.4-.99,4.02-3.3,5.65-8.37,5.06-13.22,2.42.4,4.86.63,7.27,1.04,2.56,5.87,9.4,10.64,14.93,12.31,10.84,3.28,21.23-7.65,22.48-17.66,1.07-8.5-5-14.93-12.51-17.26,1.66-6.55,2.62-13.65,3.46-20.21.04-.27-.43-.34-.48-.06-1.16,6.48-3.87,13.19-4.74,19.81-.22-.05-.43-.09-.65-.13,1.24-7.21,3.51-14.21,5.36-21.29,2.73.06,5.46,0,8.19-.25,2.94-.28,7.91-.66,9.61-3.57.94-1.61-.01-2.77-1.36-3.17,2.97-3.4,4.33-9.62,5.76-13.63,2.31-6.46,4.25-13.05,6.09-19.66,3.61-13.02,5.9-26.36,8.17-39.67.24-1.42-1.83-2.05-2.2-.61ZM94.86,103.9c-3.63-10.28-8.03-20.31-10.41-30.97,2.59,5.8,5.02,11.68,7,17.73.32.96,1.16,1.28,1.9,1.1,2.54,6.65,4.14,13.73,5.52,20.66-1.37-2.82-2.71-5.66-4.01-8.52ZM80.57,55.74c.18-.18.36-.37.52-.56,1.69,3.18,3.35,6.36,4.85,9.59-1.84-2.98-3.67-5.98-5.37-9.03ZM93.8,91.58c1.14,3.4,2.15,6.85,3.12,10.31-1.04-3.43-2.23-6.8-3.55-10.13.15-.04.3-.1.43-.18ZM53.18,56.84c-9.67.27-19.37-.38-29.03-.76-.43-6.25-1.55-12.39-2.79-18.53,1.34.31,2.7.54,4.09.69-.93.88-2.05,1.47-2.72,2.8-.04.08.07.18.13.1.94-1.21,2.16-1.65,3.27-2.33-.13,1.47.05,2.98.25,4.49.41,3.08,1.08,7.26,2.74,9.89.33.53,1.38.55,1.49-.19.34-2.46-.68-4.77-1.33-7.13-.69-2.51-.73-4.91-.88-7.39,2.48.12,4.99.08,7.5-.02-.07,2.82-.06,5.63.18,8.45.23,2.68.6,4.76,2.79,6.44.52.4,1.03-.26.96-.74-.7-4.79-1.45-9.45-1.87-14.24,1.74-.08,3.47-.18,5.15-.25-.4,5.98-.41,11.6,1.7,17.39.64,1.77,3.5.98,2.83-.78-2.03-5.29-2.55-11.03-2.98-16.66.13,0,.26,0,.39-.01,3.16-.08,6.31-.21,9.46-.36-1.04,6.13-.7,14.17,3.57,18.93-1.63.09-3.26.16-4.88.2ZM60.8,56.44c-1.18-2.96-2.81-5.64-3.64-8.79-.85-3.21-1.03-6.7-.86-10.03,4-.19,8-.37,12-.46-.52,2.91-.65,5.87-.17,8.81.44,2.69.72,6.64,3.55,7.75.51.2,1.05-.22,1.2-.68.67-2.06-.71-3.74-1.36-5.7-.44-1.32-.73-2.68-.9-4.06.86,2.15,1.81,4.27,2.8,6.38,0,.26.02.52.02.77.01,1.34.71,2.23,1.64,2.69.03.07.07.14.1.21-2,.67-3.99,1.33-6.06,1.82-2.73.65-5.53,1.03-8.34,1.27ZM77.48,58.01c.7,1.42,1.39,2.85,2.06,4.27,1.54,3.28,3.07,6.56,4.55,9.86.78,4.55,1.72,9.03,2.83,13.48-3.74-8.95-7.35-17.95-11.05-26.84.56-.23,1.1-.49,1.62-.77ZM101.31,126.33c-.67-2.4-1.31-4.81-1.94-7.23.38.75.75,1.51,1.13,2.26.28,1.65.55,3.31.81,4.97ZM99.85,113.09c-.34-1.52-.7-3.03-1.08-4.53.33,1.19.67,2.39,1.01,3.57.51,1.77,1.04,3.53,1.57,5.3-.33-.65-.67-1.3-.99-1.96-.17-.79-.34-1.59-.51-2.38ZM213.97,109.21c-2.24,2.11-4.48,4.21-6.73,6.32-.55.51-1.11,1.02-1.68,1.53.16-.74.32-1.48.48-2.22,1.11-.77,2-1.75,2.56-3.01.28-.62.08-1.35-.63-1.55-.3-.09-.6-.15-.9-.2.05-.22.1-.44.15-.67.11.14.27.22.47.2,2.01-.24,4.35-2.45,5.77-3.84.76-.74,1.48-1.54,2.13-2.39-.54,1.94-1.08,3.89-1.62,5.83ZM207.11,131.82c-.22.65-.46,1.28-.69,1.93-1.44,2.01-2.94,4-4.55,5.86-.43.49-.87.97-1.32,1.44.46-2.18.91-4.36,1.36-6.54,1.37-1.04,2.37-2.69,3.38-4.03,1.88-2.48,3.48-5.17,4.86-7.96-.96,3.12-1.97,6.22-3.03,9.31ZM156.28,144.45c0-2.84-.09-5.68-.22-8.52,6.43-.08,12.85-.41,19.26-.9-.07,2.23-.11,4.46-.09,6.7,0,.26.05.49.13.7-5.72.52-11.43,1.25-17.15,1.84-.64.06-1.29.13-1.93.19ZM154.67,115.98c-.14-1.92-.27-3.84-.39-5.76,7.59.27,14.99,2.54,22.41,4.37-.44,5.34-.89,10.68-1.17,16.02-6.54.62-13.12,1.13-19.67,1.32-.33-5.33-.78-10.65-1.17-15.96ZM209.49,90.56c-1.91,6.45-3.62,12.94-5.21,19.46-2.55.26-5.16,1.18-7.67,1.54.71-7.94,1.88-16.01,3.94-23.7,3.04.31,6.05.85,9,1.76.02,0,.04,0,.06.01-.05.09-.1.18-.14.27-.12.24-.09.48.02.66ZM193.63,111.76c-4.31.06-8.63-.68-12.83-1.52-.17-.04-.34-.07-.52-.11.37-7.42.8-14.9.12-22.29.91-.03,1.82-.06,2.74-.09,5.34-.21,10.74-.45,16.07-.02-3.1,7.71-4.52,15.76-5.58,24.03ZM183.63,116.1c2.29.4,5.72.94,9.33,1.12-.45,3.86-.84,7.78-1.08,11.69-4.08.43-8.19.88-12.33,1.3.13-4.94.29-9.89.5-14.83,1.19.26,2.39.51,3.58.72ZM179.3,141.72c.04-2.34.09-4.69.14-7.03,4.08-.36,8.16-.76,12.24-1.2-.07,2.75-.06,5.48.1,8.17-4.02-.54-8.55.17-12.25.42-.09,0-.17.02-.26.02.02-.12.04-.24.04-.38ZM195.52,141.72c.18-2.89.26-5.79.31-8.69,1.11-.12,2.22-.25,3.34-.38-.77,3.6-1.53,7.21-2.29,10.83-.08-.13-.19-.24-.35-.33-.4-.23-.81-.41-1.23-.59.12-.24.21-.52.23-.84ZM200.15,128.08c-1.41.13-2.84.27-4.26.42.04-3.74.1-7.49.3-11.23,2.32-.05,4.59-.32,6.58-.92-.33,1.43-.66,2.87-.99,4.31-.6.64-1.17,1.31-1.68,2.02-.38.52.37,1.27.89.89.06-.04.12-.09.17-.13-.34,1.55-.68,3.1-1.02,4.65ZM216.75,99.19s-.08.09-.11.15c-1,2.23-2.86,3.87-4.77,5.32-.95.72-1.85,1.51-2.8,2.23-.55.41-1.11.72-1.54,1.19.45-2.02.89-4.03,1.35-6.05,2.24-1.36,3.97-3.83,5.72-5.7,1.38-1.48,2.77-2.95,4.15-4.43-.66,2.43-1.33,4.85-2,7.28ZM221.75,80.62c-.75,2.88-1.51,5.75-2.28,8.62-1.79,1.68-3.59,3.37-5.38,5.05-1.29,1.21-2.9,2.44-4.29,3.8.67-2.87,1.36-5.72,2.06-8.58,3.33-2.94,6.48-6.03,9.9-8.89ZM212.13,82.05c-.55-.99-.79-2.16-1.4-3.13.82,0,1.64,0,2.45-.05-.36,1.06-.71,2.12-1.06,3.17ZM164.12,76.97c.96.76,1.89,1.59,2.78,2.4.65.59,1.22,1.27,1.71,1.99.49.71.69,1.57,1.28,2.2.31.33.81.06.83-.34.1-1.73-1.82-3.6-3-4.68-.67-.62-1.4-1.09-2.18-1.49,3.95.22,7.9.43,11.85.62.68.51,1.26,1.18,1.75,1.94.89,1.36,1.13,2.97,2.21,4.18.51.57,1.35.08,1.39-.58.12-1.98-1.42-3.88-2.72-5.27-.05-.05-.1-.1-.15-.15,2.42.11,4.83.23,7.25.33.7.03,1.39.05,2.09.08.37.58.78,1.13,1.28,1.63.9.92,1.98,1.82,3.31,1.59.39-.07.49-.54.34-.84-.5-1.02-1.55-1.31-2.4-2-.12-.09-.22-.2-.33-.31,3.82.14,7.65.26,11.47.35.03.03.07.06.12.06,2.28.16,3.39,1.64,4.26,3.59.25.57,1.17.06.84-.49-.82-1.42-1.78-2.55-3.12-3.09,1.62.07,3.27.17,4.92.2.96,1.25.99,2.96,1.86,4.27-.33,1.03-.66,2.06-.98,3.1-.09-.04-.18-.09-.28-.12-7.84-2.43-16.05-2.37-24.17-2.11-9.09.29-17.9.47-26.9-.53-.86-.77-1.68-1.56-2.42-2.52-1.05-1.38-1.84-2.95-2.46-4.57.44.02.89.05,1.33.07,2.74.16,5.48.31,8.22.46ZM123.94,77.6c-1.33-1.52-3.24-1.96-5.18-1.73-.05,0-.09.04-.13.07-.36-.56-.79-1.1-1.26-1.6,11.98.73,23.97,1.35,35.96,2.02.81,2.36,2.1,4.88,3.85,6.89-.09-.01-.18-.02-.26-.03-1.66-.23-3.34-.46-5.02-.7-.16-.08-.33-.1-.5-.07-1.65-.23-3.31-.46-4.97-.68-2.24-3.01-4.94-5.46-8.93-5.62-.06,0-.06.09,0,.09,2.94.17,5.63,2.85,7.58,5.35-3.32-.44-6.66-.85-10.01-1.19-2.17-1.62-4.55-3.01-6.77-4.49-.27-.18-.64.18-.45.45.96,1.35,2.14,2.59,3.44,3.69-1.96-.16-3.91-.29-5.87-.39-.45-.79-.99-1.51-1.46-2.06ZM157.45,86.88c7.14.98,14.17,1.16,21.31,1.01-.83,7.15-1.18,14.36-1.68,21.55-7.27-1.68-14.46-3.79-21.95-4.26-.4-.02-.8-.04-1.19-.06-.4-6.31-.81-12.61-1.35-18.91,1.62.23,3.24.45,4.87.67ZM128.72,118.15c-.43-2.5-.87-5-1.3-7.5,7.69.11,15.39-.5,23.08-.49.07,1.94.14,3.88.21,5.82.18,5.34.28,10.69.38,16.03-6.96.03-13.87-.37-20.66-1.42-.42-4.17-1.01-8.32-1.72-12.43ZM130.79,134.58c6.74,1.02,13.59,1.32,20.4,1.37.06,2.97.13,5.94.21,8.91-6.82.49-13.64.57-20.35-.3.06-3.32-.03-6.65-.26-9.98ZM146.83,148.72c-4.07.33-8.14.74-12.2.94-1.24.06-2.52.12-3.83.16.06-.83.12-1.66.16-2.49,5.2,1.01,10.49,1.42,15.86,1.4ZM120.66,153.95c2.17.33,4.37.52,6.55.65,9.41.58,18.87-.36,28.27-.65,8.93-.28,17.89,1.39,26.76,2.13.47.04.93.07,1.4.11-4.2,5.25-5.25,14.02-5.36,21.23-1.59.1-3.16.39-4.67.9-3.91,1.31-6.89,4.36-8.43,8.04-1.47,1.19-2.73,2.56-3.67,4.11-.09-.16-.23-.28-.43-.31-1.63-.24-3.2.59-4.77,1.03-1.3.36-2.63.66-3.96.87-2.55-7.59-11.33-13.62-19.58-11.68-1.67.39-3.24,1.11-4.66,2.05-.05-.1-.1-.19-.15-.29-1.65-3.4-2.35-7.34-3.08-11.01-1.13-5.7-2.16-11.67-4.22-17.17ZM160.67,192.12c-.06-.02-.12-.05-.19-.07.09-.05.19-.1.28-.16-.03.08-.06.15-.1.23ZM140.33,204.84c-4.03,1.45-9.22-.1-11.8-3.2-.65-1.18-1.09-2.4-1.21-3.58-.16-1.54.11-3,.68-4.33.09-.15.17-.3.26-.45.03-.05.03-.1,0-.14.49-.96,1.15-1.83,1.92-2.61,5.52.54,11.74,2.29,14.62,6.01-.32.23-.63.46-.94.7-.81.63.24,1.95,1.09,1.41.27-.17.54-.33.81-.49.24.53.43,1.08.54,1.67-1,2.26-3.18,4-5.97,5ZM153.06,196.08c0-.22-.01-.45-.03-.68.21-.04.41-.09.63-.13,2-.39,4.32-.12,6.29-.7-.1.6-.14,1.19-.13,1.78-2.23-.25-4.48-.34-6.75-.28ZM169.89,202.57c-1.71-1.52-2.69-2.96-3.1-4.31.55.55,1.16,1.02,1.83,1.38,3.63,4.72,8.6,7.5,13.47,7.76-4.38.94-8.51-1.55-12.2-4.82ZM189.72,188.41c3.41,2.05.31,7.59-1.35,10.02-4.1,6.01-11.57,1.75-14.94-2.65-1.08-1.41-2.26-3.29-2.52-5.18,2.21-1.39,4.94-2.42,7.5-3.01,3.56-.82,8.05-1.13,11.31.82ZM181.13,177.43s-.07,0-.1,0c.15-7.14.26-14.82,3.32-21.19,1.03.07,2.05.12,3.08.16-2.43,6.92-4.91,13.8-6.29,21.03ZM191.09,150.9c-9.96.07-19.83-1.8-29.74-2.5-1.67-.12-3.34-.15-5.01-.14,6.64-.55,13.25-1.39,19.89-1.96,3.29-.28,6.58-.44,9.87-.52,3.4-.08,6.85.53,10.08-.67-.27.3-.51.63-.69,1.01-.23.46.14.94.64.84.92-.19,1.79-.71,2.61-1.39.46-.08.86-.39,1.03-.96,1.23-1.27,2.31-2.77,3.2-3.86.56-.69,1.09-1.38,1.6-2.09-.3.77-.59,1.54-.89,2.3-1.03,2.57-2.62,5-2.72,7.8-.01.33.05.63.17.88-.02.02-.05.04-.07.06-3.31.51-6.52,1.19-9.99,1.21ZM210.39,121.68c-.12-.27-.52-.39-.71-.06-1.39,2.54-2.99,4.92-4.78,7.2-.27-.57-.8-.98-1.61-1,.55-2.65,1.11-5.3,1.67-7.95.81-.88,1.61-1.78,2.42-2.64,2.06-2.19,4.12-4.39,6.18-6.58-.26.93-.52,1.86-.77,2.79-.76,2.76-1.57,5.51-2.41,8.24Z"/>
  <path class="st0" d="M103.92,75.43c1.5.82,1.67,2.38,2.73,3.51.36.39.94.07.97-.4.11-1.48-1.3-3.22-2.45-4.03-1.55-1.1-3.3-1.12-5.14-.9-.25.03-.36.43-.06.48,1.42.21,2.69.65,3.95,1.34Z"/>
</svg>