<?xml version="1.0" encoding="UTF-8"?>
<svg id="Layer_1" xmlns="http://www.w3.org/2000/svg" version="1.1" viewBox="0 0 286.49 255.62">
  <!-- Generator: Adobe Illustrator 29.1.0, SVG Export Plug-In . SVG Version: 2.1.0 Build 142)  -->
  <defs>
    <style>
      .st0 {
        fill: #9c3a30;
      }
    </style>
  </defs>
  <path class="st0" d="M255.02,125.72c-13.18-22.28-38.07-35.59-62.75-22.96-2.99,1.53-5.62,3.35-7.96,5.41-3.95-5.68-8.29-11.11-12.86-16.29-1-1.13-2.08-2.28-3.23-3.37.1,0,.19,0,.29,0,2.91-.05,6.66.37,9.37-.8,1.89-.81,2.8-4.07.38-4.98-2.36-.88-5.03-.76-7.55-.89.54-.21,1.02-.59,1.36-1.19.21-.38.45-.73.69-1.08.05-.02.1-.02.15-.04,1.77-.62,3.3-1.59,4.86-2.49,4.01-.58,8.01-1.31,11.91-2.28,3.05-.76,8.88-1.42,11.52-3.97,1.2-.52,2.24-1.24,2.99-2.31.94-1.34.9-2.7-.21-3.93-1.64-1.79-3.74-2.19-5.96-2.1-.55-.02-1.11.04-1.67.14-1.11.13-2.21.32-3.28.46-5.5.72-10.96,1.72-16.44,2.57-9.59,1.49-20.44,3.82-30.21,3.19-.02,0-.04-.02-.07-.02-.98-.44-1.82.57-1.33,1.48,2.46,4.57,7.81,6.62,13.47,7.42-.52.95-.99,1.95-1.38,3-8.88-.85-17.69-1.2-26.63-1.12-8.7.07-17.44.79-25.97,2.54-2.75.56-5.44,1.31-7.93,2.52,1.1-5.33,1.47-10.82,1.2-16.26.2-.23.34-.55.33-.98,0-.11-.02-.2-.02-.3,4.59,2.58,9.25,5.02,14.09,7.13.39.17.77.25,1.14.3.27.11.59.18.96.14.38-.05.75-.11,1.12-.19.1-.02.21-.04.31-.07,1.96-.45,3.83-1.25,5.83-1.47,1.33-.15,1.87-1.33,1.69-2.35.16-.09.32-.19.47-.28.97-.55,1.14-1.61.8-2.49.07-.05.14-.09.22-.13,2.28-1.29.05-4.56-2.22-3.37-2.31,1.22-4.83,1.98-7.25,2.97-7.19-2.74-14.34-5.94-21.36-9.34-1.2-1.04-2.61-1.9-4.12-2.68.06-.15.12-.48.14-.64.1-1.06-.25-2.3-1.32-2.78-.14-.06-.27-.11-.4-.15.28-.76.14-1.5-.28-2.09.02-.03.04-.07.05-.09.85-1.69-.87-4.18-2.82-3.29-2.35,1.08-5.92,2.64-6.93,5.22-.16.4-.23.78-.25,1.15-.54,1.04-.39,2.44.97,3.22.31.18.62.37.93.55.12.6.54,1.13,1.19,1.24.42.07.84.15,1.27.22,4.08,2.42,8.15,4.87,12.25,7.25.13.29.24.6.35.92-2.87,15.37-10.81,29.12-15.72,43.89-12.3-1.35-24.47,3.51-34.58,10.97-9.97,4.63-17.08,14.99-21.98,24.49-4.36,8.43-6.21,18.11-5,27.53,2.3,17.85,15.94,32.11,31.9,39.18,17.61,7.8,38.27,6.02,54.32-4.51,19.4-12.73,26.59-35.13,20.18-57.04-1.15-3.94-2.76-7.73-4.73-11.31,2.24,3.24,4.61,6.38,7.03,9.52.72,1.66,1.39,3.34,2.02,5.08-.08.02-.15.07-.17.17-.14.68-.27,1.4-.37,2.13-.51,1-.93,2.06-1.22,3.17-2.39,9.22,9.04,21.21,17.02,15.56,1.63,3.19,2.95,6.54,4.44,9.78,1.68,3.64,3.4,7.66,5.64,11.26-1.51.59-2.62,1.64-2.52,3.52.13,2.34,1.98,3.19,4.1,3.44.13.04.27.05.42.05,1.4.12,2.86.02,4.01-.07.88.68,1.81,1.29,2.82,1.8.67.35,1.7-.18,1.57-1.02-.05-.36-.14-.71-.2-1.06,4.58-.29,9.15-.57,13.72-.95.89-.08,1.59-.38,2.11-.82.24.2.48.4.72.6,12.86,10.2,30.01,12.49,45.66,8.7,15.45-3.74,29.2-14.52,35.85-29.02,8.38-18.28,2.87-38.78-6.9-55.3ZM258.25,174.09c-10.83-8.18-22.86-14.23-35.48-19.03-.04-.2-.09-.41-.13-.61,12.27-.54,24.11-4.07,36.21-6.19,2.11,8.73,2.02,17.61-.6,25.83ZM226.71,203.58c-3.15-11.98-5.37-24.19-8.38-36.21,1.02-.68,1.82-1.63,2.36-2.75.25-.22.51-.44.76-.66.57-.51.99-1.13,1.31-1.81,3.37,5.1,6.52,10.36,9.62,15.6,3.47,5.86,6.56,12.2,10.29,17.97-4.77,3.55-10.21,6.2-15.96,7.86ZM198.93,203.94c-8.31-2.38-15.76-7.28-21.31-13.93-.11-.13-.2-.27-.31-.4,9.76-8.97,21.55-16.06,32.99-22.75.53.46,1.13.82,1.78,1.1-6.16,10.98-9.63,24.06-13.14,35.92,0,.02,0,.04,0,.06ZM150.07,161.77s0-.02,0-.03c-.92-4.9-4.45-8.21-8.7-10.5-.32-.17-.63-.34-.94-.49,3.63-10.91,7.14-21.86,10.74-32.78,2.59-7.85,5.33-15.71,8.51-23.35.25-.6.59-1.58,1-2.72,1.85,2.14,3.73,4.27,5.51,6.43,4.34,5.27,8.15,10.95,11.98,16.59-6.33,8.66-9.75,19.53-12.84,30.29-.35-.29-.89-.35-1.28.05-4.77,4.87-6.22,10.44-5.82,16.17-2.72.07-5.44.16-8.15.32ZM104.32,130.12c-1.25,1.22-2.45,2.49-3.61,3.8-1.97.7-3.93,1.45-5.87,2.28-2.38,1.02-2.15,3.89.02,4.85-1.73,2.22-3.43,4.46-5.18,6.65-3.98,4.98-8.27,9.19-13.07,13.1-.19-.66-.53-1.24-.98-1.73,1.82-3.97,3-8.28,4.15-12.53,2.46-9.13,3.87-18.52,5.89-27.75.16-.72.35-1.43.53-2.15,8.04,2.89,15.22,8.37,20.84,14.88-.7.22-1.39.49-2.08.8.27-.3.54-.59.82-.89.87-.93-.56-2.18-1.46-1.31ZM59.32,164.43c.56-.19,1.12-.39,1.68-.56,0,.02.01.04.02.06-.06.17-.11.34-.15.52-.03.15-.06.31-.1.47-.48-.16-.97-.33-1.46-.49ZM34.09,138.03c2.1,4.86,8.25,7.91,12.61,10.29,5.71,3.11,11.57,5.8,16.38,10.17-1.57.82-2.44,2.56-2.29,4.32-1.21.28-2.42.59-3.62.93-3.46-1.1-6.94-2.16-10.24-3.37-7.08-2.59-14.04-5.53-20.78-8.89,1.92-4.97,4.73-9.34,7.94-13.44ZM181.2,119.38c4.4,6.39,8.78,12.79,13.28,19.11.31.44.62.87.93,1.3,3.1,5.66,6.67,11.17,11.22,15.69-.08.12-.16.24-.24.36-12.59-2.69-21.79-14.49-33.91-18.92,2.38-6.23,5.04-12.25,8.72-17.54ZM206.42,152.76c-1.05-1.13-2.03-2.33-2.97-3.54.6.54,1.22,1.07,1.86,1.57.38.66.75,1.31,1.12,1.97ZM163.69,159.61c3.1-6.56,5.43-13.64,7.99-20.55,11.66,4.37,21.8,16.8,34.19,18.33.07.4.33.75.77.86-1.86.14-3.72.28-5.58.43-2.5.1-5,.3-7.5.62-5.55.48-11.11.96-16.67,1.41-4.28.34-8.6.48-12.92.59-.11-.56-.2-1.13-.28-1.7ZM175.29,167.81c11.35-.27,22.65-1.31,33.96-2.05.13.17.26.33.4.48-11.85,5.82-23.91,12.78-33.56,21.82-3.4-4.61-5.86-9.88-8.21-15.06-.74-1.62-1.44-3.32-2.06-5.05,3.22.02,6.41-.06,9.47-.13ZM258.39,146.51c-12.02,2.22-23.8,5.68-35.97,6.86-.07-.37-.15-.75-.22-1.12-.05-.24-.14-.48-.25-.73,10.61-5.62,20.3-12.9,31.36-17.68,1.05,2.02,2,4.06,2.83,6.09.89,2.17,1.64,4.36,2.25,6.57ZM252.6,132.51c-10.85,4.9-20.34,12.19-30.73,17.91,4.94-11.04,12.24-20.94,17.94-31.6.38-.71-.72-1.26-1.1-.57-5.84,10.78-12.98,20.75-17.53,32.09-.88-1.01-2.15-1.82-3.26-1.93-1.8-.17-3.43-.2-4.87.13,1.46-5.76,1.58-11.86,1.48-17.86-.09-5.54-.58-11.08-1.05-16.61-.33-3.84-.34-7.96-1.2-11.77,17.09.33,31.8,14.53,40.32,30.21ZM194.95,106.81c5.33-2.92,10.55-4.3,15.59-4.48-.93,8.01,1.59,17.24,2.15,25.11.45,6.39.65,13.22-.45,19.72-.12-.19-.24-.38-.36-.57-.63-13.31-7.17-27.87-14.51-38.24-.27-.37-.9-.09-.74.36,2.37,6.52,6.2,12.55,9.01,18.9,2.42,5.48,3.97,11.08,4.93,16.87-5.8-9.21-12.61-17.76-19.64-26.07-1.23-2-2.48-4-3.75-5.97,2.26-2.11,4.83-4.01,7.78-5.63ZM167.65,81.61c.09-.08.17-.16.25-.25.14.12.29.21.46.3-.24-.02-.47-.03-.71-.05ZM107.34,90.22c8.27-1.24,16.73-1.34,25.07-1.45,6.91-.09,13.81.05,20.71,0-5.83,9.48-9.69,20.48-13.46,30.75-2.86,7.8-5.8,15.84-7.95,24.01-2.38-8.83-7.8-17.15-12.79-24.34-4.36-6.29-8.83-12.51-12.97-18.96-1.65-2.58-2.86-6.84-5.11-8.86-.01-.01-.03-.02-.04-.03,2.18-.35,4.37-.79,6.54-1.12ZM93.53,94.84c.49.66,1,1.32,1.33,2.21,2.54,6.79,6.75,12.97,10.97,18.8,3.06,4.24,6.08,8.37,8.92,12.55-.45.65-.69,1.45-.55,2.3-.2,0-.4,0-.6,0-6.6-8.26-15.36-14.81-25.25-18.59-.27-.1-.53-.19-.8-.29,1.77-5.72,3.99-11.33,5.98-16.97ZM47.15,122.91c9.34-5.45,19.37-9.44,30.52-8.26,0,0,.02,0,.03,0-.07.26-.15.51-.22.76-3.4,12.73-5.42,25.5-9.41,37.91-1.18-4.1-2.59-8.13-4.01-12.21-2.59-7.45-4.16-14.93-5.87-22.61-.11-.5-.77-.27-.8.15-.48,7.21,2.12,14.39,4.48,21.08,1.81,5.14,3.8,10.22,5.62,15.36-.32.94-.65,1.88-.99,2.82l-1.64.09c-.29.02-.56.07-.83.13-2.96-3.78-7.29-6.15-11.47-8.48-2.96-1.65-5.94-3.24-8.82-5.04-3.45-2.15-5.78-5.09-8.79-7.65,3.87-4.8,8.22-9.29,12.22-14.07ZM24.83,155.48c.32-1.19.7-2.33,1.11-3.45,6.58,3.61,13.38,6.77,20.3,9.68,2.35.99,4.81,2.06,7.34,3.1-1.59.51-3.18,1.04-4.77,1.59-5.85,2.02-11.77,3.12-17.68,4.79-.38.11-.37.75.04.79,8.26.94,16.55-3.11,24.66-6.27,1.58.62,3.16,1.22,4.76,1.77.03.22.05.46.12.65.05.14.12.28.19.41-11.05,4.66-18.1,16.18-26.51,24.59-8.99-9.5-13.57-22.57-9.56-37.65ZM35.58,194.35c8.3-8.46,15.15-19.83,25.78-25.22.24.25.53.47.83.67.03.24.06.48.11.72.1.52.32,1.02.6,1.49-2.56,11.4-6.63,22.02-11.99,32.6-5.74-2.54-10.98-6-15.32-10.26ZM119.87,172.37c-1.68,12.06-9.32,21.53-18.92,28.51-14.03,10.19-32.69,10.72-48.19,4.51,3.55-5.34,5.61-12.02,7.49-17.98,1.46-4.63,2.62-9.36,3.55-14.14.02.02.03.05.05.07.92,1.11,2.18,1,3.52.99,1.09,0,2.17-.32,3.13-.85.69.18,1.41.17,2.1.02.2,11.31.54,22.59,6.43,32.68.54.92,1.92,0,1.38-.91-5.77-9.68-6.27-21.02-6.99-32.03.83-.37,1.56-1,1.99-1.9,1.16-2.37,1.8-4.61,1.63-7.09,4.68-.74,8.95-2.47,13.38-4.66,7.76-3.83,15.19-7.93,23.17-11.31.98-.42.51-1.81-.52-1.57-13.05,3.14-23.21,12.93-36.14,16.55-.03-.2-.05-.39-.09-.6,0,0,0-.01,0-.02,4.6-2.93,8.47-7.24,11.98-11.23,3.16-3.59,6.14-7.31,9.18-10.99,4.01-1.84,8.12-3.4,12.3-4.83.52.71,1.01,1.43,1.49,2.16,6.64,10.08,9.78,22.65,8.11,34.63ZM138.46,170.35c-2.4-.32-4.43-2.87-5.31-4.88-.59-1.35-.74-2.63-.58-3.82,1.88.36,3.99-.46,5.03-2.68,1.05.32,2.09.92,3.09,1.87.43.41.81.99,1.11,1.65-.23.03-.46.05-.69.08-.39.05-.63.47-.5.79-.37-.16-.74-.31-1.1-.45-1.17-.45-2.06.35-3.19.18-.34-.05-.53.4-.21.58.77.41,1.43,2.09,2.1,2.76.85.86,1.55,1.94,2.21,3.03-.69.43-1.35.72-1.97.89ZM161.99,194.93c-1.98-6.24-4.91-12.18-8.37-17.75-1.6-2.57-3.31-5.07-5.24-7.4.63-1.02,1.12-2.13,1.44-3.26,3.1.65,6.3,1.02,9.53,1.22,1.03,3.76,2.62,7.5,4.38,11.07,2.41,4.87,4.95,9.45,8.08,13.61-.08.09-.18.18-.26.27-.8.89.56,2.11,1.38,1.24.01-.01.02-.02.03-.04.14.17.28.34.43.51-.48.03-.95.04-1.42.08-3.32.13-6.65.29-9.97.44ZM202.71,204.84c-.71-.14-1.41-.29-2.11-.46,4.46-12.01,7.41-24.35,12.49-36.09.6.14,1.24.2,1.91.16.92-.05,1.74-.27,2.48-.61,2.71,12.02,4.66,24.2,7.74,36.13-7.37,1.91-15.15,2.25-22.52.87ZM247.89,191.2c-1.05,1.07-2.17,2.06-3.32,3.02-3.32-5.94-7.2-11.68-10.71-17.43-3.34-5.47-6.81-10.82-10.65-15.93.31-1.3.27-2.71-.03-3.95-.03-.11-.05-.23-.07-.34,12.2,5.11,24.03,11.33,34.51,19.37-2.03,5.51-5.24,10.69-9.72,15.27Z"/>
  <path class="st0" d="M77.69,168.69c-.35.06-.41.49-.21.65,3.58,11.55,15.6,20.45,26,25.54.31.15.63-.28.35-.51-9.19-7.39-21.38-13.22-25.67-25.01,6.35-.66,12.73-.81,19.08-.05,7.57.9,13.31,4.42,19.9,7.79.49.25.87-.39.52-.76-9.56-10.3-27.38-9.79-39.99-7.66Z"/>
</svg>