<?xml version="1.0" encoding="UTF-8"?>
<svg id="Layer_1" xmlns="http://www.w3.org/2000/svg" version="1.1" viewBox="0 0 244.78 247.68">
  <!-- Generator: Adobe Illustrator 29.1.0, SVG Export Plug-In . SVG Version: 2.1.0 Build 142)  -->
  <defs>
    <style>
      .st0 {
        fill: #9c3a30;
      }
    </style>
  </defs>
  <path class="st0" d="M104.95,179.67c-8.64,9.76-8.13,21.2,3.74,25.58,4.16,1.54,9.15,1.95,14.12,1.37,5.1,1.57,10.43.51,14.37-4.94.19-.12.39-.24.58-.37,9.45-6.4,9.8-17.82,2.91-24.47-.79-2.4-1.95-4.61-3.47-6.49-8.98-11.05-24.83.94-32.24,9.32ZM125.35,198.8c-.15.03-.3.06-.45.09-2.41-.55-4.78-1.09-6.97-2.25-3.23-1.71-5.16-5.07-6.69-8.26-.13-.27-.61-.06-.51.23,1.6,4.6,4.23,8.54,8.08,10.71-6.81-.16-14.43-2.4-11.73-9.55,1.22-3.23,4.57-7.65,8.58-11.12.61,5.75,2.77,10.88,6.39,15.32,1.88,2.3,5.03,4.03,7.86,3.62-1.56.54-3.13.93-4.55,1.22ZM135.91,194.18c-1.06,1.02-2.34,1.82-3.72,2.48.79-.55,1.51-1.36,2.09-2.47.34-.66-.16-1.61-.97-1.29-8.81,3.48-14.06-7.73-16.76-15.02,4.7-3.81,10.12-6.16,14.07-3.84l2.85,3c1.84,3.12,3.02,7.87,2.94,12.59-2.16-.59-4.09-1.43-5.94-3.17-3.02-2.83-4.62-7.17-5.73-11.13-.28-1-1.78-.54-1.6.48,1.13,6.45,5.22,17.27,12.96,17.38-.06.33-.11.67-.19,1Z"/>
  <path class="st0" d="M160.68,126.88c-10.14-4.77-22.14-5.57-33.59-5.03-12.54.59-25.34,3.61-37.54,7.38-9.42,2.91-21.21,6.39-28.78,13.4-.52.48-.02,1.17.57,1.04.23-.05.46-.12.7-.17-.97.81-1.32,2.4.04,3.41,7.53,5.58,12.14,13.78,17.99,20.94.76.93,2.35-.37,1.78-1.39-4.74-8.45-9.51-16.81-17.11-22.96-.29-.23-.58-.38-.87-.45,8.17-2.13,16.25-5.83,24.38-8.19,11.42-3.32,23.1-5.48,34.76-6.25,10.91-.71,22.15-.37,32.1,3.54,2.72,1.07,5.24,2.45,7.55,4.14-.2.09-.36.29-.29.53,1.36,4.59,2.68,9.19,4.41,13.62.96,2.45,2.46,5.56,5.57,5.27.54-.05,1.14-.75.76-1.25-3.9-5.25-6.77-11.65-9.68-17.58,1.01.79,1.99,1.63,2.91,2.54,3.73,3.69,5.19,8.28,7.36,12.95.41.89,1.05,1.38,1.76,1.56-1.49,1.99-2.97,3.99-4.66,5.87-2.18,2.42-4.75,4.66-7.32,6.79-5.95-6.82-15.38-10.66-24.99-12.49-.65-1.54-1.39-3.04-2.02-4.57-1.89-4.54-4.2-8.9-7.06-12.86-.58-.8-1.93-.06-1.46.87,1.98,3.9,3.18,8.1,4.73,12.2.44,1.16.84,2.4,1.26,3.63-3.27-.42-6.51-.62-9.57-.64-2.02-.01-4.07.08-6.12.27-1.11-2.76-2.55-5.42-3.75-8.08-1.95-4.33-4.13-8.51-6.86-12.36-.38-.54-1.33,0-.97.58,2.16,3.53,3.84,7.27,5.38,11.14,1.12,2.84,2,6.09,3.24,9.06-2.62.36-5.24.87-7.83,1.56-1.13-1.51-2.58-2.87-3.78-4.25-2.84-3.26-6.08-6.13-8.97-9.32-.35-.38-.94.15-.74.58,1.71,3.7,3.55,7.07,6,10.34.94,1.26,1.8,2.73,2.74,4.11-3.53,1.24-6.96,2.79-10.21,4.67-3.26-2.44-5.86-5.03-8.23-8.99-2.51-4.2-4.81-8.4-7.99-12.12-.45-.53-1.37.21-1.04.81,3.14,5.63,6.62,18.09,13.26,22.84-2.16,1.5-4.22,3.16-6.13,4.98-.62.59.11,1.59.82,1.11,2.64-1.76,5.35-3.3,8.1-4.65,1.27.42,2.64.56,4.13.36,1.02-.14,1.41-1.35.58-1.89-.18-.12-.34-.23-.52-.35,3.38-1.38,6.84-2.47,10.35-3.28.57.42,1.2.77,1.9,1.01.69.24,1.54-.5,1.53-1.21,0-.17-.02-.33-.03-.5,4.4-.78,8.89-1.13,13.43-1.07,5.02.07,10.03.87,14.79,2.22.27.31.56.61.88.88.42.37,1.15.28,1.51-.15.83.28,1.66.57,2.47.87,6.44,2.45,11.17,6.47,16.49,10.55,2.62,2.01,5.89-.06,6.1-2.68,8.05-3.64,15.55-10.45,17.96-18.93.51-1.79-1.53-3.26-3.03-2.2-1.87-9.89-10.57-17.72-19.14-21.75Z"/>
  <path class="st0" d="M230.36,101.31c-.06-.08-.11-.16-.19-.24-17.01-17.39-36.01-32.85-57.67-44.4-10.21-5.44-21.12-9.82-32.58-12.47-7.91-1.83-16.48-1.8-24.72-1.46-20.4.84-41.45,5.11-60.89,13.03-12.55,5.12-26.45,12.41-34.52,23.86-.38-.38-.77-.75-1.15-1.14-.2-.21-.61.1-.44.35.35.52.71,1.04,1.08,1.54-1.76,2.63-3.23,5.47-4.3,8.55-.38,1.09,1.27,1.72,1.81.67,1.23-2.39,2.71-4.62,4.38-6.71,2.78,3.5,5.91,6.62,9.62,9.27,4.75,3.4,11.45,9.04,17.73,9.01.92,0,1.32-1.15.78-1.74-3.34-3.68-9.71-5.27-14.03-7.84-4.68-2.77-9.15-6.11-13.19-9.79,5-5.86,11.56-10.53,18.51-14.3,0,.07,0,.13.02.2,2.04,5.94,5.25,11,9.43,15.55,3.59,3.91,9.74,8.89,15.4,8.94.92,0,1.31-1.15.78-1.74-1.65-1.85-3.75-2.76-5.89-4.01-2.79-1.63-5.26-3.69-7.63-5.85-4.29-3.91-7.69-8.41-10.05-13.79-.05-.12-.13-.2-.21-.28,5.15-2.66,10.45-4.84,15.45-6.67,1.49-.54,2.99-1.06,4.49-1.56,0,6.51,2.71,12.03,6.12,17.14,3.04,4.56,6.6,9.18,11.34,11.96-12.58,4.96-24.06,12.96-33.18,24.17-2.93-3.02-7.68-5.36-10.47-7.21-7.21-4.78-14.64-9.16-22.22-13.37-.35-.2-.72.31-.46.59,5.18,5.67,11.21,9.85,17.41,14.38,3.34,2.44,6.57,4.99,9.69,7.69.99.85,1.78,1.74,2.6,2.49-.09.12-.18.24-.27.37-.62.89.65,1.77,1.39,1.03.1-.1.2-.19.3-.29.86.53,1.86.86,3.17.86.7,0,1.45-.71,1.42-1.42-.03-1.05-.36-2.05-.89-2.98,10.65-9.86,22.45-17.91,36.19-22.49,14.05-4.68,28.84-4.82,42.74-2.42,28.42,4.9,54.61,20.56,74.49,40.1,0,.35.24.67.67.64.02,0,.04,0,.05,0,1.66,1.2,3.75.36,4.85-1.14,3.27-1.27,6.21-3.42,9.05-5.78,2.92-2.43,5.71-5.02,8.56-7.54,2.83-2.51,6.52-5.33,8.43-8.57,1.43-2.43-.36-5.46-3-5.18ZM215.25,114.69c-2.52,2.96-5.19,6.4-8.15,9.35-21.37-21.28-49.29-37.35-80.24-41.85-14.6-2.12-29.65-.9-43.53,3.89-8.05-7.96-17.75-16.24-20.23-27.99,0-.02-.01-.03-.02-.05,17.26-5.72,35.35-8.9,53.06-9.59.27,0,.53,0,.79-.01-.06,5.38.2,10.55,1.83,15.77,1.59,5.07,5.08,14.16,11.04,15.04.79.12,1.79-.62,1.51-1.51-.88-2.73-3.01-4.24-4.69-6.5-2.12-2.87-3.53-6.29-4.7-9.69-1.45-4.24-2.81-8.65-3.79-13.13,19.27-.33,36.18,5.45,52.59,14.26,5.89,3.16,11.61,6.64,17.17,10.36-.27,4.9.05,9.69.98,14.53.92,4.78,3.37,13.34,8.02,15.36.73.32,1.46-.29,1.37-1.08-.25-2.22-1.48-3.67-2.58-5.51-1.78-2.97-3.05-6.26-4.14-9.58-1.4-4.3-2.54-8.7-2.93-13.25,6.9,4.65,13.55,9.69,19.95,15,1.61,7.15-.38,14.19.07,21.4.06.95,1.23,1.03,1.6.14,2.52-5.93,2.14-13.46.61-19.62,5.04,4.27,9.92,8.71,14.65,13.25-3.96,2.92-7.31,7.55-10.24,11Z"/>
  <path class="st0" d="M88.68,51.94c.17,3.94,2.42,8.02,3.98,11.5,2.14,4.77,4.74,12.79,10.02,14.78.82.31,2.12-.33,1.79-1.4-.81-2.6-2.59-4.59-4.01-6.85-1.7-2.7-3.1-5.61-4.49-8.5-1.39-2.89-3.37-9.12-7.05-9.72-.11-.02-.24.06-.24.19Z"/>
  <path class="st0" d="M139.73,52.74c-.19-.28-.62-.02-.49.29,2.64,6.19,3.61,13.21,5.21,19.8,1.2,4.94,2.82,13.02,7.51,15.55.74.4,1.69-.36,1.51-1.19-.54-2.61-2.29-4.63-3.44-6.98-1.7-3.48-2.7-7.35-3.73-11.11-1.59-5.86-3.25-11.33-6.58-16.36Z"/>
  <path class="st0" d="M163.46,64.37c.83,5.79,1.89,11.37,3.3,17,1.39,5.54,2.67,11.03,6.28,15.33.68.81,2.12-.14,1.87-1.13-1.39-5.72-3.86-11.06-5.61-16.71-1.57-5.07-3.01-9.98-5.17-14.79-.17-.39-.74-.08-.68.3Z"/>
  <path class="st0" d="M154.74,157.71c-.04-3.13-2.6-5.87-3.92-8.56-1.82-3.72-3.63-7.67-4.05-11.92-.06-.65-1.01-.4-1.08.18-.42,3.73-.02,7.68,1.3,11.06,1.27,3.26,2.76,8.7,6.07,10.26.68.32,1.68-.16,1.67-1.02Z"/>
</svg>