<?xml version="1.0" encoding="UTF-8"?>
<svg id="Layer_1" xmlns="http://www.w3.org/2000/svg" version="1.1" viewBox="0 0 40 40">
  <!-- Generator: Adobe Illustrator 29.1.0, SVG Export Plug-In . SVG Version: 2.1.0 Build 142)  -->
  <defs>
    <style>
      .st0 {
        fill: #ec4639;
      }

      .st1 {
        fill: #181306;
      }

      .st2 {
        fill: #ffd201;
      }
    </style>
  </defs>
  <path class="st2" d="M.59,15.2C3.24,4.47,14.08-2.06,24.8.59c10.72,2.65,17.26,13.49,14.61,24.21-2.65,10.72-13.49,17.26-24.21,14.61C4.48,36.76-2.06,25.92.59,15.2"/>
  <path class="st1" d="M1.17,13.28h37.67c-2.18-6.1-7.27-11.02-14.03-12.69C14.74-1.9,4.57,3.71,1.17,13.28"/>
  <path class="st0" d="M39.57,24.11s.02-.09.03-.13c.02-.07.03-.15.04-.22,0-.04.02-.09.02-.13.01-.08.03-.15.04-.23,0-.04.01-.08.02-.12.02-.1.03-.19.05-.29,0-.02,0-.04,0-.06.02-.12.03-.23.05-.35,0-.03,0-.06.01-.09.01-.08.02-.17.03-.25,0-.04,0-.08.01-.12,0-.08.02-.15.02-.23,0-.04,0-.08.01-.13,0-.08.01-.15.02-.23,0-.04,0-.08,0-.12,0-.09.01-.18.02-.26,0-.03,0-.05,0-.08,0-.12.01-.23.02-.35,0-.02,0-.04,0-.06,0-.1,0-.19,0-.29,0-.04,0-.07,0-.11,0-.08,0-.16,0-.24,0-.04,0-.08,0-.12,0-.08,0-.15,0-.23,0-.04,0-.08,0-.11,0-.08,0-.17,0-.25,0-.03,0-.06,0-.09,0-.23-.02-.46-.04-.68,0-.03,0-.06,0-.09,0-.08-.01-.17-.02-.25,0-.04,0-.07-.01-.11,0-.08-.02-.16-.02-.24,0-.04,0-.07-.01-.11,0-.08-.02-.17-.03-.25,0-.03,0-.06-.01-.09-.03-.23-.06-.45-.1-.68,0-.02,0-.04-.01-.06-.02-.09-.03-.18-.05-.27,0-.03-.01-.06-.02-.09-.02-.08-.03-.16-.05-.24,0-.03-.01-.06-.02-.1-.02-.08-.03-.17-.05-.25,0-.03-.01-.06-.02-.08-.02-.1-.05-.2-.07-.3v-.02c-.03-.11-.06-.21-.08-.32h0c-.15-.59-.33-1.16-.53-1.73H1.17c-.22.62-.41,1.26-.58,1.91-.66,2.68-.75,5.37-.34,7.94,0,.01,0,.02,0,.03.01.09.03.19.05.28,0,.02,0,.04.01.06.02.09.03.17.05.26,0,.03.01.05.02.08.02.08.03.16.05.25,0,.03.01.06.02.09.02.08.03.16.05.23,0,.04.02.07.03.11.02.07.03.15.05.22.01.06.03.11.04.16.02.08.04.16.06.25.02.08.04.16.07.24,0,.04.02.07.03.11.02.08.04.15.07.23.01.04.02.07.03.11.02.08.05.15.07.23.01.03.02.07.03.1.02.08.05.15.08.23.01.03.02.07.04.1.03.08.05.15.08.23,0,.02.01.04.02.05h0s.03.09.05.14h37.52s.03-.09.05-.14h0c.04-.12.08-.24.12-.35,0-.01,0-.02.01-.03.05-.15.1-.31.15-.47,0-.02.01-.04.02-.07.04-.15.09-.29.13-.44,0-.03.02-.06.03-.09.05-.18.1-.35.14-.53.03-.12.06-.23.08-.35,0-.04.02-.07.02-.11.02-.08.04-.16.05-.24"/>
</svg>