<?xml version="1.0" encoding="UTF-8"?>
<svg id="Layer_1" xmlns="http://www.w3.org/2000/svg" xmlns:xlink="http://www.w3.org/1999/xlink" version="1.1" viewBox="0 0 40 40">
  <!-- Generator: Adobe Illustrator 29.1.0, SVG Export Plug-In . SVG Version: 2.1.0 Build 142)  -->
  <defs>
    <style>
      .st0 {
        fill: none;
      }

      .st1 {
        fill: url(#radial-gradient);
      }

      .st2 {
        fill: #2f3e67;
      }

      .st3 {
        fill: #ed3726;
      }

      .st4 {
        fill: #efebe7;
      }

      .st5 {
        fill: #223c72;
      }

      .st6 {
        clip-path: url(#clippath);
      }
    </style>
    <clipPath id="clippath">
      <path class="st0" d="M19.98,0C11.01,0,2.84,6.09.59,15.2c-2.65,10.72,3.89,21.56,14.61,24.21,10.72,2.65,21.56-3.89,24.21-14.61,2.65-10.72-3.88-21.56-14.61-24.21C23.19.19,21.58,0,19.98,0h0"/>
    </clipPath>
    <radialGradient id="radial-gradient" cx="-1959.45" cy="2004.07" fx="-1959.45" fy="2004.07" r=".1" gradientTransform="translate(386947.66 395758.39) scale(197.47 -197.47)" gradientUnits="userSpaceOnUse">
      <stop offset="0" stop-color="#fff"/>
      <stop offset=".78" stop-color="#fff"/>
      <stop offset=".82" stop-color="#f9f8f7"/>
      <stop offset=".88" stop-color="#e8e5e3"/>
      <stop offset=".94" stop-color="#cec8c1"/>
      <stop offset="1" stop-color="#b5aba1"/>
    </radialGradient>
  </defs>
  <g class="st6">
    <rect class="st1" x="-2.06" y="0" width="44.13" height="42.06"/>
  </g>
  <path class="st5" d="M.59,15.2C3.24,4.47,14.08-2.06,24.8.59c10.72,2.65,17.26,13.49,14.61,24.21-2.65,10.72-13.49,17.26-24.21,14.61C4.48,36.76-2.06,25.92.59,15.2"/>
  <path class="st4" d="M34.18,5.9l-8.04,5.36V.97c-.44-.14-.89-.27-1.34-.38-3.77-.93-7.56-.73-11,.4v10.28L5.79,5.92c-1.83,1.85-3.32,4.07-4.34,6.59l2.12,1.41H.95c-.13.42-.25.84-.36,1.27-.94,3.8-.73,7.61.42,11.07h2.62l-2.1,1.4c1.02,2.45,2.51,4.67,4.4,6.55l7.87-5.25v10.04c.46.15.92.28,1.39.4,3.75.93,7.52.73,10.95-.38v-10.06l7.9,5.27c1.86-1.83,3.37-4.03,4.41-6.54l-2.14-1.43h2.67c.16-.48.3-.97.42-1.47.92-3.73.73-7.47-.36-10.87h-2.69l2.16-1.44c-1-2.46-2.47-4.7-4.35-6.59"/>
  <path class="st3" d="M10.73,13.93l-7.42-4.94c-.49.75-.94,1.54-1.34,2.36l3.88,2.58h4.88ZM36.67,8.95c-.5-.75-1.05-1.47-1.65-2.15l-8.88,5.9v1.23h3.04l7.48-4.98ZM3.36,31.08c.5.75,1.05,1.47,1.65,2.15l8.79-5.85v-1.11h-3.21l-7.24,4.81ZM39.69,16.5h-16.12V.33c-2.44-.45-4.88-.43-7.2,0v16.17H.31c-.44,2.44-.41,4.88.03,7.2h16.03v15.97c2.44.45,4.88.44,7.2.02v-15.98h16.08c.46-2.44.46-4.87.04-7.2M29.36,26.27l7.28,4.84c.5-.75.95-1.53,1.35-2.35l-3.74-2.49h-4.88Z"/>
  <path class="st2" d="M26.14,3.05h0v1.3c.08-.25.12-.48.12-.7,0-.21-.04-.42-.12-.6"/>
</svg>